# MagicaVoxel @ Ephtracy

# group
g DragonThingArmsRightForeArm

# material
mtllib DragonThingArmsRightForeArm.mtl
usemtl palette

# normals
vn -1 0 0
vn 1 0 0
vn 0 0 1
vn 0 0 -1
vn 0 -1 0
vn 0 1 0

# texcoords
vt 0.908203 0.5
vt 0.958984 0.5

# verts
v -14 16 9
v -14 16 2
v -14 17 14
v -14 17 9
v -14 17 2
v -14 17 -4
v -14 18 19
v -14 18 18
v -14 18 16
v -14 18 14
v -14 19 19
v -14 19 18
v -14 19 16
v -14 19 9
v -14 19 2
v -14 20 19
v -14 20 9
v -14 21 2
v -14 21 -4
v -13 15 9
v -13 15 2
v -13 16 14
v -13 16 9
v -13 16 2
v -13 16 -4
v -13 17 14
v -13 17 9
v -13 17 2
v -13 17 -4
v -13 19 9
v -13 19 2
v -13 20 14
v -13 20 9
v -13 20 2
v -13 21 14
v -13 21 9
v -12 19 20
v -12 19 19
v -12 19 18
v -12 19 16
v -12 20 20
v -12 20 19
v -12 20 18
v -12 20 17
v -12 20 16
v -12 21 20
v -12 21 17
v -10 17 19
v -10 17 18
v -10 18 19
v -10 18 18
v -10 19 19
v -10 19 18
v -10 19 17
v -10 19 16
v -10 20 19
v -10 20 18
v -10 20 17
v -10 20 16
v -10 21 19
v -10 21 16
v -9 17 18
v -9 17 14
v -9 18 18
v -9 18 14
v -13 18 19
v -13 18 18
v -13 19 19
v -13 19 18
v -13 19 16
v -13 20 19
v -13 20 16
v -11 19 20
v -11 19 19
v -11 19 18
v -11 19 16
v -11 20 20
v -11 20 19
v -11 20 18
v -11 20 17
v -11 20 16
v -11 21 20
v -11 21 17
v -10 15 9
v -10 15 2
v -10 16 14
v -10 16 9
v -10 16 2
v -10 17 14
v -10 17 9
v -10 18 16
v -10 18 14
v -10 19 16
v -10 19 14
v -10 19 9
v -10 19 2
v -10 20 14
v -10 20 9
v -10 20 2
v -10 21 14
v -10 21 9
v -9 16 9
v -9 16 -4
v -9 17 13
v -9 17 9
v -9 18 14
v -9 18 13
v -9 19 19
v -9 19 18
v -9 19 17
v -9 19 14
v -9 19 9
v -9 19 2
v -9 20 19
v -9 20 18
v -9 20 17
v -9 20 16
v -9 20 9
v -9 20 -1
v -9 20 -4
v -9 21 19
v -9 21 16
v -9 21 2
v -9 21 -1
v -8 17 19
v -8 17 13
v -8 18 19
v -8 18 13
v -8 20 -1
v -8 20 -4
v -8 21 -1
v -8 21 -4
v -12 19 20
v -12 20 20
v -12 21 20
v -11 19 20
v -11 20 20
v -11 21 20
v -14 18 19
v -14 19 19
v -14 20 19
v -13 18 19
v -13 19 19
v -13 20 19
v -10 17 19
v -10 18 19
v -10 19 19
v -10 20 19
v -10 21 19
v -9 17 19
v -9 18 19
v -9 19 19
v -9 20 19
v -9 21 19
v -8 17 19
v -8 18 19
v -12 19 18
v -12 20 18
v -11 19 18
v -11 20 18
v -10 19 17
v -10 20 17
v -9 19 17
v -9 20 17
v -14 18 16
v -14 19 16
v -13 19 16
v -13 20 16
v -12 19 16
v -12 20 16
v -11 19 16
v -11 20 16
v -10 18 16
v -10 19 16
v -10 20 16
v -14 17 14
v -14 18 14
v -13 16 14
v -13 17 14
v -13 20 14
v -13 21 14
v -10 16 14
v -10 17 14
v -10 18 14
v -10 19 14
v -10 20 14
v -10 21 14
v -9 17 14
v -9 18 14
v -9 19 14
v -14 16 9
v -14 17 9
v -13 15 9
v -13 16 9
v -13 17 9
v -10 15 9
v -10 16 9
v -10 17 9
v -9 16 9
v -9 17 9
v -14 19 2
v -14 21 2
v -13 19 2
v -13 20 2
v -10 19 2
v -10 20 2
v -9 19 2
v -9 21 2
v -9 20 -1
v -9 21 -1
v -8 20 -1
v -8 21 -1
v -12 19 19
v -12 20 19
v -11 19 19
v -11 20 19
v -14 18 18
v -14 19 18
v -13 18 18
v -13 19 18
v -10 17 18
v -10 18 18
v -10 19 18
v -10 20 18
v -9 17 18
v -9 18 18
v -9 19 18
v -9 20 18
v -12 20 17
v -12 21 17
v -11 20 17
v -11 21 17
v -10 20 16
v -10 21 16
v -9 20 16
v -9 21 16
v -9 17 13
v -9 18 13
v -8 17 13
v -8 18 13
v -14 19 9
v -14 20 9
v -13 19 9
v -13 20 9
v -13 21 9
v -10 19 9
v -10 20 9
v -10 21 9
v -9 19 9
v -9 20 9
v -14 16 2
v -14 17 2
v -13 15 2
v -13 16 2
v -13 17 2
v -10 15 2
v -10 16 2
v -14 17 -4
v -14 21 -4
v -13 16 -4
v -13 17 -4
v -9 16 -4
v -9 20 -4
v -8 20 -4
v -8 21 -4
v -13 15 9
v -10 15 9
v -13 15 2
v -10 15 2
v -13 16 14
v -10 16 14
v -14 16 9
v -13 16 9
v -10 16 9
v -9 16 9
v -14 16 2
v -13 16 2
v -10 16 2
v -13 16 -4
v -9 16 -4
v -10 17 19
v -9 17 19
v -8 17 19
v -10 17 18
v -9 17 18
v -14 17 14
v -13 17 14
v -10 17 14
v -9 17 14
v -9 17 13
v -8 17 13
v -14 17 9
v -13 17 9
v -10 17 9
v -9 17 9
v -14 17 2
v -13 17 2
v -14 17 -4
v -13 17 -4
v -14 18 19
v -13 18 19
v -14 18 18
v -13 18 18
v -14 18 16
v -10 18 16
v -14 18 14
v -10 18 14
v -12 19 20
v -11 19 20
v -12 19 19
v -11 19 19
v -10 19 19
v -9 19 19
v -14 19 18
v -13 19 18
v -12 19 18
v -11 19 18
v -10 19 18
v -9 19 18
v -10 19 17
v -9 19 17
v -14 19 16
v -13 19 16
v -12 19 16
v -11 19 16
v -10 19 16
v -10 19 14
v -9 19 14
v -12 20 19
v -11 20 19
v -12 20 18
v -11 20 18
v -10 20 18
v -9 20 18
v -10 20 17
v -9 20 17
v -9 20 -1
v -8 20 -1
v -9 20 -4
v -8 20 -4
v -10 18 19
v -9 18 19
v -8 18 19
v -10 18 18
v -9 18 18
v -9 18 14
v -9 18 13
v -8 18 13
v -14 19 9
v -13 19 9
v -10 19 9
v -9 19 9
v -14 19 2
v -13 19 2
v -10 19 2
v -9 19 2
v -14 20 19
v -13 20 19
v -12 20 17
v -11 20 17
v -13 20 16
v -12 20 16
v -11 20 16
v -10 20 16
v -9 20 16
v -13 20 14
v -10 20 14
v -14 20 9
v -13 20 9
v -10 20 9
v -9 20 9
v -13 20 2
v -10 20 2
v -12 21 20
v -11 21 20
v -10 21 19
v -9 21 19
v -12 21 17
v -11 21 17
v -10 21 16
v -9 21 16
v -13 21 14
v -10 21 14
v -13 21 9
v -10 21 9
v -14 21 2
v -9 21 2
v -9 21 -1
v -8 21 -1
v -14 21 -4
v -8 21 -4

# faces
f 4/1/1 2/1/1 1/1/1
f 5/1/1 2/1/1 4/1/1
f 10/1/1 4/1/1 3/1/1
f 10/1/1 5/1/1 4/1/1
f 10/1/1 6/1/1 5/1/1
f 11/2/1 8/2/1 7/2/1
f 12/2/1 8/2/1 11/2/1
f 13/1/1 10/1/1 9/1/1
f 14/1/1 6/1/1 10/1/1
f 14/1/1 10/1/1 13/1/1
f 15/1/1 6/1/1 14/1/1
f 16/1/1 12/1/1 11/1/1
f 16/1/1 13/1/1 12/1/1
f 16/1/1 14/1/1 13/1/1
f 17/1/1 14/1/1 16/1/1
f 18/1/1 6/1/1 15/1/1
f 19/1/1 6/1/1 18/1/1
f 23/1/1 21/1/1 20/1/1
f 24/1/1 21/1/1 23/1/1
f 26/1/1 23/1/1 22/1/1
f 27/1/1 23/1/1 26/1/1
f 28/1/1 25/1/1 24/1/1
f 29/1/1 25/1/1 28/1/1
f 33/1/1 31/1/1 30/1/1
f 34/1/1 31/1/1 33/1/1
f 35/1/1 33/1/1 32/1/1
f 36/1/1 33/1/1 35/1/1
f 41/2/1 38/2/1 37/2/1
f 42/2/1 38/2/1 41/2/1
f 43/1/1 40/1/1 39/1/1
f 44/1/1 40/1/1 43/1/1
f 45/1/1 40/1/1 44/1/1
f 46/1/1 42/1/1 41/1/1
f 46/1/1 43/1/1 42/1/1
f 46/1/1 44/1/1 43/1/1
f 47/1/1 44/1/1 46/1/1
f 50/2/1 49/2/1 48/2/1
f 51/2/1 49/2/1 50/2/1
f 56/2/1 53/2/1 52/2/1
f 57/2/1 53/2/1 56/2/1
f 58/1/1 55/1/1 54/1/1
f 59/1/1 55/1/1 58/1/1
f 60/1/1 57/1/1 56/1/1
f 60/1/1 58/1/1 57/1/1
f 60/1/1 59/1/1 58/1/1
f 61/1/1 59/1/1 60/1/1
f 64/1/1 63/1/1 62/1/1
f 65/1/1 63/1/1 64/1/1
f 66/2/2 67/2/2 68/2/2
f 68/2/2 67/2/2 69/2/2
f 68/1/2 69/1/2 71/1/2
f 69/1/2 70/1/2 71/1/2
f 71/1/2 70/1/2 72/1/2
f 73/2/2 74/2/2 77/2/2
f 77/2/2 74/2/2 78/2/2
f 75/1/2 76/1/2 79/1/2
f 79/1/2 76/1/2 80/1/2
f 80/1/2 76/1/2 81/1/2
f 77/1/2 78/1/2 82/1/2
f 78/1/2 79/1/2 82/1/2
f 79/1/2 80/1/2 82/1/2
f 82/1/2 80/1/2 83/1/2
f 84/1/2 85/1/2 87/1/2
f 87/1/2 85/1/2 88/1/2
f 86/1/2 87/1/2 89/1/2
f 89/1/2 87/1/2 90/1/2
f 91/1/2 92/1/2 93/1/2
f 93/1/2 92/1/2 94/1/2
f 95/1/2 96/1/2 98/1/2
f 98/1/2 96/1/2 99/1/2
f 97/1/2 98/1/2 100/1/2
f 100/1/2 98/1/2 101/1/2
f 102/1/2 103/1/2 105/1/2
f 104/1/2 105/1/2 107/1/2
f 106/1/2 107/1/2 111/1/2
f 105/1/2 103/1/2 112/1/2
f 107/1/2 105/1/2 112/1/2
f 111/1/2 107/1/2 112/1/2
f 112/1/2 103/1/2 113/1/2
f 108/2/2 109/2/2 114/2/2
f 114/2/2 109/2/2 115/2/2
f 110/1/2 111/1/2 116/1/2
f 111/1/2 112/1/2 116/1/2
f 116/1/2 112/1/2 117/1/2
f 117/1/2 112/1/2 118/1/2
f 113/1/2 103/1/2 119/1/2
f 119/1/2 103/1/2 120/1/2
f 114/1/2 115/1/2 121/1/2
f 115/1/2 116/1/2 121/1/2
f 116/1/2 117/1/2 121/1/2
f 121/1/2 117/1/2 122/1/2
f 113/1/2 119/1/2 123/1/2
f 123/1/2 119/1/2 124/1/2
f 125/1/2 126/1/2 127/1/2
f 127/1/2 126/1/2 128/1/2
f 129/1/2 130/1/2 131/1/2
f 131/1/2 130/1/2 132/1/2
f 136/2/3 134/2/3 133/2/3
f 137/1/3 135/1/3 134/1/3
f 137/2/3 134/2/3 136/2/3
f 138/1/3 135/1/3 137/1/3
f 142/2/3 140/2/3 139/2/3
f 143/1/3 141/1/3 140/1/3
f 143/2/3 140/2/3 142/2/3
f 144/1/3 141/1/3 143/1/3
f 150/2/3 146/2/3 145/2/3
f 151/2/3 146/2/3 150/2/3
f 152/2/3 148/2/3 147/2/3
f 153/1/3 149/1/3 148/1/3
f 153/2/3 148/2/3 152/2/3
f 154/1/3 149/1/3 153/1/3
f 155/1/3 151/1/3 150/1/3
f 156/1/3 151/1/3 155/1/3
f 159/1/3 158/1/3 157/1/3
f 160/1/3 158/1/3 159/1/3
f 163/1/3 162/1/3 161/1/3
f 164/1/3 162/1/3 163/1/3
f 167/1/3 166/1/3 165/1/3
f 169/1/3 167/1/3 165/1/3
f 169/1/3 168/1/3 167/1/3
f 170/1/3 168/1/3 169/1/3
f 171/1/3 169/1/3 165/1/3
f 173/1/3 171/1/3 165/1/3
f 173/1/3 172/1/3 171/1/3
f 174/1/3 172/1/3 173/1/3
f 175/1/3 172/1/3 174/1/3
f 179/1/3 177/1/3 176/1/3
f 182/1/3 179/1/3 178/1/3
f 183/1/3 177/1/3 179/1/3
f 183/1/3 179/1/3 182/1/3
f 184/1/3 177/1/3 183/1/3
f 186/1/3 181/1/3 180/1/3
f 187/1/3 181/1/3 186/1/3
f 188/1/3 185/1/3 184/1/3
f 188/1/3 184/1/3 183/1/3
f 189/1/3 185/1/3 188/1/3
f 190/1/3 185/1/3 189/1/3
f 194/1/3 192/1/3 191/1/3
f 195/1/3 192/1/3 194/1/3
f 196/1/3 194/1/3 193/1/3
f 197/1/3 194/1/3 196/1/3
f 199/1/3 198/1/3 197/1/3
f 200/1/3 198/1/3 199/1/3
f 203/1/3 202/1/3 201/1/3
f 204/1/3 202/1/3 203/1/3
f 206/1/3 202/1/3 204/1/3
f 207/1/3 206/1/3 205/1/3
f 208/1/3 202/1/3 206/1/3
f 208/1/3 206/1/3 207/1/3
f 211/1/3 210/1/3 209/1/3
f 212/1/3 210/1/3 211/1/3
f 213/2/4 214/2/4 215/2/4
f 215/2/4 214/2/4 216/2/4
f 217/2/4 218/2/4 219/2/4
f 219/2/4 218/2/4 220/2/4
f 221/2/4 222/2/4 225/2/4
f 225/2/4 222/2/4 226/2/4
f 223/2/4 224/2/4 227/2/4
f 227/2/4 224/2/4 228/2/4
f 229/1/4 230/1/4 231/1/4
f 231/1/4 230/1/4 232/1/4
f 233/1/4 234/1/4 235/1/4
f 235/1/4 234/1/4 236/1/4
f 237/1/4 238/1/4 239/1/4
f 239/1/4 238/1/4 240/1/4
f 241/1/4 242/1/4 243/1/4
f 243/1/4 242/1/4 244/1/4
f 244/1/4 245/1/4 247/1/4
f 247/1/4 245/1/4 248/1/4
f 246/1/4 247/1/4 249/1/4
f 249/1/4 247/1/4 250/1/4
f 251/1/4 252/1/4 254/1/4
f 254/1/4 252/1/4 255/1/4
f 253/1/4 254/1/4 256/1/4
f 256/1/4 254/1/4 257/1/4
f 258/1/4 259/1/4 261/1/4
f 260/1/4 261/1/4 262/1/4
f 261/1/4 259/1/4 263/1/4
f 262/1/4 261/1/4 263/1/4
f 263/1/4 259/1/4 264/1/4
f 264/1/4 259/1/4 265/1/4
f 268/1/5 267/1/5 266/1/5
f 269/1/5 267/1/5 268/1/5
f 273/1/5 271/1/5 270/1/5
f 274/1/5 271/1/5 273/1/5
f 276/1/5 273/1/5 272/1/5
f 277/1/5 273/1/5 276/1/5
f 278/1/5 275/1/5 274/1/5
f 279/1/5 278/1/5 277/1/5
f 280/1/5 275/1/5 278/1/5
f 280/1/5 278/1/5 279/1/5
f 284/2/5 282/2/5 281/2/5
f 285/1/5 283/1/5 282/1/5
f 285/2/5 282/2/5 284/2/5
f 289/1/5 283/1/5 285/1/5
f 290/1/5 283/1/5 289/1/5
f 290/1/5 289/1/5 288/1/5
f 291/1/5 283/1/5 290/1/5
f 292/1/5 287/1/5 286/1/5
f 293/1/5 287/1/5 292/1/5
f 294/1/5 290/1/5 288/1/5
f 295/1/5 290/1/5 294/1/5
f 298/1/5 297/1/5 296/1/5
f 299/1/5 297/1/5 298/1/5
f 302/2/5 301/2/5 300/2/5
f 303/2/5 301/2/5 302/2/5
f 306/1/5 305/1/5 304/1/5
f 307/1/5 305/1/5 306/1/5
f 310/2/5 309/2/5 308/2/5
f 311/2/5 309/2/5 310/2/5
f 318/2/5 313/2/5 312/2/5
f 319/2/5 313/2/5 318/2/5
f 322/1/5 315/1/5 314/1/5
f 323/1/5 315/1/5 322/1/5
f 324/1/5 317/1/5 316/1/5
f 325/1/5 317/1/5 324/1/5
f 326/1/5 321/1/5 320/1/5
f 327/1/5 321/1/5 326/1/5
f 328/1/5 321/1/5 327/1/5
f 331/1/5 330/1/5 329/1/5
f 332/1/5 330/1/5 331/1/5
f 335/1/5 334/1/5 333/1/5
f 336/1/5 334/1/5 335/1/5
f 339/1/5 338/1/5 337/1/5
f 340/1/5 338/1/5 339/1/5
f 341/2/6 342/2/6 344/2/6
f 342/1/6 343/1/6 345/1/6
f 344/2/6 342/2/6 345/2/6
f 345/1/6 343/1/6 346/1/6
f 346/1/6 343/1/6 347/1/6
f 347/1/6 343/1/6 348/1/6
f 349/1/6 350/1/6 353/1/6
f 353/1/6 350/1/6 354/1/6
f 351/1/6 352/1/6 355/1/6
f 355/1/6 352/1/6 356/1/6
f 357/1/6 358/1/6 361/1/6
f 359/1/6 360/1/6 362/1/6
f 362/1/6 360/1/6 363/1/6
f 357/1/6 361/1/6 366/1/6
f 364/1/6 365/1/6 366/1/6
f 363/1/6 364/1/6 366/1/6
f 362/1/6 363/1/6 366/1/6
f 361/1/6 362/1/6 366/1/6
f 366/1/6 365/1/6 367/1/6
f 357/1/6 366/1/6 368/1/6
f 368/1/6 366/1/6 369/1/6
f 367/1/6 365/1/6 370/1/6
f 370/1/6 365/1/6 371/1/6
f 369/1/6 370/1/6 372/1/6
f 372/1/6 370/1/6 373/1/6
f 374/1/6 375/1/6 378/1/6
f 378/1/6 375/1/6 379/1/6
f 376/1/6 377/1/6 380/1/6
f 380/1/6 377/1/6 381/1/6
f 382/1/6 383/1/6 384/1/6
f 384/1/6 383/1/6 385/1/6
f 386/1/6 387/1/6 388/1/6
f 386/1/6 388/1/6 390/1/6
f 388/1/6 389/1/6 390/1/6
f 390/1/6 389/1/6 391/1/6
