# MagicaVoxel @ Ephtracy

# group
g DragonArmLeft

# material
mtllib DragonArmLeft.mtl
usemtl palette

# normals
vn -1 0 0
vn 1 0 0
vn 0 0 1
vn 0 0 -1
vn 0 -1 0
vn 0 1 0

# texcoords
vt 0.162109 0.5
vt 0.908203 0.5
vt 0.958984 0.5

# verts
v 8 20 -1
v 8 20 -4
v 8 21 -0
v 8 21 -1
v 8 22 2
v 8 22 -0
v 8 27 2
v 8 27 -4
v 9 16 5
v 9 16 -4
v 9 17 10
v 9 17 9
v 9 17 8
v 9 17 5
v 9 18 9
v 9 18 8
v 9 20 -1
v 9 20 -4
v 9 21 5
v 9 21 2
v 9 21 -0
v 9 21 -1
v 9 22 10
v 9 22 9
v 9 22 8
v 9 22 5
v 9 22 2
v 9 22 -0
v 10 21 5
v 10 21 4
v 10 22 10
v 10 22 9
v 10 22 8
v 10 22 5
v 10 22 4
v 10 23 10
v 10 23 9
v 10 23 5
v 12 16 5
v 12 16 4
v 12 17 10
v 12 17 9
v 12 17 5
v 12 17 4
v 12 18 10
v 12 18 9
v 12 21 5
v 12 21 4
v 12 22 10
v 12 22 9
v 12 22 5
v 12 22 4
v 12 23 10
v 12 23 5
v 13 16 4
v 13 16 -4
v 13 17 9
v 13 17 4
v 13 17 3
v 13 17 -4
v 13 18 10
v 13 18 9
v 13 18 8
v 13 18 7
v 13 18 3
v 13 19 10
v 13 19 9
v 13 22 10
v 13 22 9
v 13 26 2
v 13 26 -4
v 13 27 2
v 13 27 -4
v 14 17 3
v 14 17 -4
v 14 18 9
v 14 18 8
v 14 18 7
v 14 18 3
v 14 19 8
v 14 19 7
v 14 21 5
v 14 21 2
v 14 22 9
v 14 22 8
v 14 22 7
v 14 22 5
v 14 26 2
v 14 26 -4
v 9 17 10
v 9 22 10
v 10 17 10
v 10 18 10
v 10 22 10
v 10 23 10
v 11 17 10
v 11 18 10
v 11 23 10
v 12 17 10
v 12 18 10
v 12 19 10
v 12 22 10
v 12 23 10
v 13 18 10
v 13 19 10
v 13 22 10
v 12 17 9
v 12 18 9
v 13 17 9
v 13 18 9
v 13 19 9
v 13 22 9
v 14 18 9
v 14 22 9
v 9 16 5
v 9 17 5
v 12 16 5
v 12 17 5
v 12 16 4
v 12 17 4
v 13 16 4
v 13 17 4
v 13 17 3
v 13 18 3
v 14 17 3
v 14 18 3
v 8 22 2
v 8 27 2
v 9 21 2
v 9 22 2
v 13 26 2
v 13 27 2
v 14 21 2
v 14 26 2
v 8 21 -0
v 8 22 -0
v 9 21 -0
v 9 22 -0
v 8 20 -1
v 8 21 -1
v 9 20 -1
v 9 21 -1
v 9 21 5
v 9 22 5
v 10 21 5
v 10 22 5
v 10 23 5
v 12 21 5
v 12 22 5
v 12 23 5
v 14 21 5
v 14 22 5
v 10 21 4
v 10 22 4
v 12 21 4
v 12 22 4
v 8 20 -4
v 8 27 -4
v 9 16 -4
v 9 20 -4
v 13 16 -4
v 13 17 -4
v 13 26 -4
v 13 27 -4
v 14 17 -4
v 14 26 -4
v 9 16 5
v 12 16 5
v 12 16 4
v 13 16 4
v 9 16 -4
v 13 16 -4
v 9 17 10
v 10 17 10
v 11 17 10
v 12 17 10
v 9 17 9
v 10 17 9
v 11 17 9
v 12 17 9
v 13 17 9
v 9 17 8
v 10 17 8
v 9 17 5
v 12 17 5
v 12 17 4
v 13 17 4
v 13 17 3
v 14 17 3
v 13 17 -4
v 14 17 -4
v 12 18 10
v 13 18 10
v 12 18 9
v 13 18 9
v 14 18 9
v 13 18 8
v 14 18 8
v 13 18 7
v 14 18 7
v 13 18 3
v 14 18 3
v 8 20 -1
v 9 20 -1
v 8 20 -4
v 9 20 -4
v 8 21 -0
v 9 21 -0
v 8 21 -1
v 9 21 -1
v 8 22 2
v 9 22 2
v 8 22 -0
v 9 22 -0
v 9 21 5
v 10 21 5
v 12 21 5
v 14 21 5
v 10 21 4
v 12 21 4
v 9 21 2
v 14 21 2
v 9 22 10
v 10 22 10
v 12 22 10
v 13 22 10
v 9 22 9
v 10 22 9
v 12 22 9
v 13 22 9
v 14 22 9
v 9 22 8
v 10 22 8
v 13 22 8
v 14 22 8
v 13 22 7
v 14 22 7
v 9 22 5
v 10 22 5
v 12 22 5
v 14 22 5
v 10 22 4
v 12 22 4
v 10 23 10
v 11 23 10
v 12 23 10
v 10 23 9
v 11 23 9
v 10 23 5
v 12 23 5
v 13 26 2
v 14 26 2
v 13 26 -4
v 14 26 -4
v 8 27 2
v 13 27 2
v 8 27 -4
v 13 27 -4

# faces
f 4/2/1 2/2/1 1/2/1
f 6/2/1 4/2/1 3/2/1
f 7/2/1 6/2/1 5/2/1
f 8/2/1 2/2/1 4/2/1
f 8/2/1 6/2/1 7/2/1
f 8/2/1 4/2/1 6/2/1
f 14/2/1 10/2/1 9/2/1
f 15/3/1 13/3/1 12/3/1
f 15/2/1 12/2/1 11/2/1
f 16/2/1 14/2/1 13/2/1
f 16/3/1 13/3/1 15/3/1
f 17/2/1 10/2/1 14/2/1
f 17/2/1 14/2/1 16/2/1
f 18/2/1 10/2/1 17/2/1
f 19/2/1 17/2/1 16/2/1
f 20/2/1 17/2/1 19/2/1
f 21/2/1 17/2/1 20/2/1
f 22/2/1 17/2/1 21/2/1
f 23/2/1 15/2/1 11/2/1
f 24/1/1 16/1/1 15/1/1
f 24/2/1 15/2/1 23/2/1
f 25/2/1 19/2/1 16/2/1
f 25/1/1 16/1/1 24/1/1
f 26/2/1 19/2/1 25/2/1
f 27/2/1 21/2/1 20/2/1
f 28/2/1 21/2/1 27/2/1
f 34/2/1 30/2/1 29/2/1
f 35/2/1 30/2/1 34/2/1
f 36/1/1 32/1/1 31/1/1
f 37/2/1 33/2/1 32/2/1
f 37/1/1 32/1/1 36/1/1
f 37/2/1 34/2/1 33/2/1
f 38/2/1 34/2/1 37/2/1
f 39/2/2 40/2/2 43/2/2
f 43/2/2 40/2/2 44/2/2
f 41/2/2 42/2/2 45/2/2
f 45/2/2 42/2/2 46/2/2
f 47/2/2 48/2/2 51/2/2
f 51/2/2 48/2/2 52/2/2
f 49/2/2 50/2/2 53/2/2
f 50/2/2 51/2/2 53/2/2
f 53/2/2 51/2/2 54/2/2
f 55/2/2 56/2/2 58/2/2
f 58/2/2 56/2/2 59/2/2
f 59/2/2 56/2/2 60/2/2
f 57/2/2 58/2/2 62/2/2
f 58/2/2 59/2/2 62/2/2
f 62/2/2 59/2/2 63/2/2
f 63/2/2 59/2/2 64/2/2
f 64/2/2 59/2/2 65/2/2
f 61/3/2 62/3/2 66/3/2
f 66/3/2 62/3/2 67/3/2
f 66/1/2 67/1/2 68/1/2
f 68/1/2 67/1/2 69/1/2
f 70/2/2 71/2/2 72/2/2
f 72/2/2 71/2/2 73/2/2
f 74/2/2 75/2/2 79/2/2
f 77/3/2 78/3/2 80/3/2
f 76/2/2 77/2/2 80/2/2
f 78/2/2 79/2/2 81/2/2
f 80/3/2 78/3/2 81/3/2
f 81/2/2 79/2/2 82/2/2
f 79/2/2 75/2/2 83/2/2
f 82/2/2 79/2/2 83/2/2
f 76/2/2 80/2/2 84/2/2
f 80/1/2 81/1/2 85/1/2
f 84/2/2 80/2/2 85/2/2
f 81/2/2 82/2/2 86/2/2
f 85/1/2 81/1/2 86/1/2
f 86/2/2 82/2/2 87/2/2
f 83/2/2 75/2/2 88/2/2
f 88/2/2 75/2/2 89/2/2
f 92/2/3 91/2/3 90/2/3
f 93/2/3 91/2/3 92/2/3
f 94/2/3 91/2/3 93/2/3
f 96/3/3 93/3/3 92/3/3
f 97/1/3 95/1/3 94/1/3
f 97/3/3 93/3/3 96/3/3
f 97/1/3 94/1/3 93/1/3
f 98/1/3 95/1/3 97/1/3
f 99/2/3 97/2/3 96/2/3
f 99/2/3 98/2/3 97/2/3
f 100/2/3 98/2/3 99/2/3
f 101/2/3 98/2/3 100/2/3
f 102/2/3 98/2/3 101/2/3
f 103/2/3 98/2/3 102/2/3
f 104/3/3 101/3/3 100/3/3
f 105/1/3 102/1/3 101/1/3
f 105/3/3 101/3/3 104/3/3
f 106/1/3 102/1/3 105/1/3
f 109/2/3 108/2/3 107/2/3
f 110/2/3 108/2/3 109/2/3
f 113/2/3 112/2/3 111/2/3
f 113/2/3 111/2/3 110/2/3
f 114/2/3 112/2/3 113/2/3
f 117/2/3 116/2/3 115/2/3
f 118/2/3 116/2/3 117/2/3
f 121/2/3 120/2/3 119/2/3
f 122/2/3 120/2/3 121/2/3
f 125/2/3 124/2/3 123/2/3
f 126/2/3 124/2/3 125/2/3
f 130/2/3 128/2/3 127/2/3
f 131/2/3 128/2/3 130/2/3
f 131/2/3 130/2/3 129/2/3
f 132/2/3 128/2/3 131/2/3
f 133/2/3 131/2/3 129/2/3
f 134/2/3 131/2/3 133/2/3
f 137/2/3 136/2/3 135/2/3
f 138/2/3 136/2/3 137/2/3
f 141/2/3 140/2/3 139/2/3
f 142/2/3 140/2/3 141/2/3
f 143/2/4 144/2/4 145/2/4
f 145/2/4 144/2/4 146/2/4
f 146/2/4 147/2/4 149/2/4
f 149/2/4 147/2/4 150/2/4
f 148/2/4 149/2/4 151/2/4
f 151/2/4 149/2/4 152/2/4
f 153/2/4 154/2/4 155/2/4
f 155/2/4 154/2/4 156/2/4
f 157/2/4 158/2/4 160/2/4
f 159/2/4 160/2/4 161/2/4
f 161/2/4 160/2/4 162/2/4
f 160/2/4 158/2/4 163/2/4
f 162/2/4 160/2/4 163/2/4
f 163/2/4 158/2/4 164/2/4
f 162/2/4 163/2/4 165/2/4
f 165/2/4 163/2/4 166/2/4
f 169/2/5 168/2/5 167/2/5
f 171/2/5 169/2/5 167/2/5
f 171/2/5 170/2/5 169/2/5
f 172/2/5 170/2/5 171/2/5
f 177/2/5 174/2/5 173/2/5
f 178/3/5 175/3/5 174/3/5
f 178/2/5 174/2/5 177/2/5
f 179/2/5 176/2/5 175/2/5
f 179/3/5 175/3/5 178/3/5
f 180/2/5 176/2/5 179/2/5
f 182/3/5 178/3/5 177/3/5
f 183/2/5 181/2/5 180/2/5
f 183/3/5 178/3/5 182/3/5
f 183/2/5 179/2/5 178/2/5
f 183/2/5 180/2/5 179/2/5
f 184/2/5 183/2/5 182/2/5
f 185/2/5 181/2/5 183/2/5
f 185/2/5 183/2/5 184/2/5
f 186/2/5 181/2/5 185/2/5
f 187/2/5 181/2/5 186/2/5
f 190/2/5 189/2/5 188/2/5
f 191/2/5 189/2/5 190/2/5
f 194/3/5 193/3/5 192/3/5
f 195/3/5 193/3/5 194/3/5
f 197/2/5 196/2/5 195/2/5
f 198/2/5 196/2/5 197/2/5
f 199/3/5 198/3/5 197/3/5
f 200/3/5 198/3/5 199/3/5
f 201/2/5 200/2/5 199/2/5
f 202/2/5 200/2/5 201/2/5
f 205/2/5 204/2/5 203/2/5
f 206/2/5 204/2/5 205/2/5
f 209/2/5 208/2/5 207/2/5
f 210/2/5 208/2/5 209/2/5
f 213/2/5 212/2/5 211/2/5
f 214/2/5 212/2/5 213/2/5
f 215/2/6 216/2/6 219/2/6
f 217/2/6 218/2/6 220/2/6
f 215/2/6 219/2/6 221/2/6
f 219/2/6 220/2/6 221/2/6
f 220/2/6 218/2/6 222/2/6
f 221/2/6 220/2/6 222/2/6
f 223/2/6 224/2/6 227/2/6
f 227/2/6 224/2/6 228/2/6
f 225/1/6 226/1/6 229/1/6
f 229/1/6 226/1/6 230/1/6
f 227/1/6 228/1/6 232/1/6
f 232/1/6 228/1/6 233/1/6
f 230/2/6 231/2/6 234/2/6
f 229/2/6 230/2/6 234/2/6
f 234/2/6 231/2/6 235/2/6
f 229/2/6 234/2/6 236/2/6
f 234/1/6 235/1/6 236/1/6
f 236/1/6 235/1/6 237/1/6
f 232/2/6 233/2/6 238/2/6
f 238/2/6 233/2/6 239/2/6
f 229/2/6 236/2/6 240/2/6
f 236/2/6 237/2/6 240/2/6
f 240/2/6 237/2/6 241/2/6
f 239/2/6 240/2/6 242/2/6
f 242/2/6 240/2/6 243/2/6
f 244/1/6 245/1/6 247/1/6
f 245/2/6 246/2/6 248/2/6
f 247/1/6 245/1/6 248/1/6
f 247/2/6 248/2/6 249/2/6
f 248/2/6 246/2/6 250/2/6
f 249/2/6 248/2/6 250/2/6
f 251/2/6 252/2/6 253/2/6
f 253/2/6 252/2/6 254/2/6
f 255/2/6 256/2/6 257/2/6
f 257/2/6 256/2/6 258/2/6
