# MagicaVoxel @ Ephtracy

# group
g DragonLegRight

# material
mtllib DragonLegRight.mtl
usemtl palette

# normals
vn -1 0 0
vn 1 0 0
vn 0 0 1
vn 0 0 -1
vn 0 -1 0
vn 0 1 0

# texcoords
vt 0.162109 0.5
vt 0.908203 0.5
vt 0.958984 0.5

# verts
v -12 0 14
v -12 0 13
v -12 0 -4
v -12 1 14
v -12 1 13
v -12 3 14
v -12 3 13
v -12 3 11
v -12 4 11
v -12 4 7
v -12 4 -2
v -12 4 -4
v -12 7 8
v -12 7 7
v -12 10 -2
v -12 10 -3
v -12 11 8
v -12 11 -3
v -11 0 -4
v -11 0 -5
v -11 3 13
v -11 3 11
v -11 4 13
v -11 4 11
v -11 4 -2
v -11 4 -4
v -11 4 -5
v -11 7 9
v -11 7 8
v -11 10 -2
v -11 10 -3
v -11 10 -4
v -11 11 9
v -11 11 8
v -10 0 14
v -10 0 13
v -10 1 14
v -10 1 13
v -10 3 14
v -10 3 13
v -10 9 10
v -10 9 9
v -10 11 10
v -10 11 9
v -8 0 14
v -8 0 13
v -8 1 14
v -8 1 13
v -8 1 -5
v -8 1 -6
v -8 3 14
v -8 3 13
v -8 4 -4
v -8 4 -5
v -8 10 -3
v -8 10 -4
v -8 11 -3
v -8 11 -6
v -6 0 14
v -6 0 13
v -6 1 14
v -6 1 13
v -6 3 14
v -6 3 13
v -11 0 14
v -11 0 13
v -11 1 14
v -11 1 13
v -11 3 14
v -11 3 13
v -9 0 14
v -9 0 13
v -9 1 14
v -9 1 13
v -9 3 14
v -9 3 13
v -7 0 14
v -7 0 13
v -7 1 14
v -7 1 13
v -7 3 14
v -7 3 13
v -6 4 7
v -6 4 5
v -6 6 7
v -6 6 5
v -6 7 9
v -6 7 8
v -6 9 9
v -6 9 8
v -5 3 13
v -5 3 12
v -5 4 13
v -5 4 12
v -4 0 14
v -4 0 13
v -4 0 12
v -4 1 14
v -4 1 13
v -4 3 14
v -4 3 13
v -4 3 12
v -4 6 7
v -4 6 6
v -4 7 8
v -4 7 7
v -4 9 10
v -4 9 9
v -4 9 8
v -4 11 10
v -4 11 9
v -4 11 6
v -3 0 12
v -3 0 -5
v -3 1 -5
v -3 1 -6
v -3 4 12
v -3 4 5
v -3 6 5
v -3 6 -6
v -1 6 6
v -1 6 -6
v -1 11 6
v -1 11 -6
v -12 0 14
v -12 1 14
v -12 3 14
v -11 0 14
v -11 1 14
v -11 3 14
v -10 0 14
v -10 1 14
v -10 3 14
v -9 0 14
v -9 1 14
v -9 3 14
v -8 0 14
v -8 1 14
v -8 3 14
v -7 0 14
v -7 1 14
v -7 3 14
v -6 0 14
v -6 1 14
v -6 3 14
v -4 0 14
v -4 1 14
v -4 3 14
v -11 0 13
v -11 1 13
v -11 3 13
v -11 4 13
v -10 0 13
v -10 1 13
v -10 3 13
v -9 0 13
v -9 1 13
v -9 3 13
v -8 0 13
v -8 1 13
v -8 3 13
v -7 0 13
v -7 1 13
v -7 3 13
v -6 0 13
v -6 1 13
v -6 3 13
v -5 3 13
v -5 4 13
v -5 3 12
v -5 4 12
v -4 0 12
v -4 3 12
v -3 0 12
v -3 4 12
v -12 3 11
v -12 4 11
v -11 3 11
v -11 4 11
v -10 9 10
v -10 11 10
v -4 9 10
v -4 11 10
v -11 7 9
v -11 11 9
v -10 9 9
v -10 11 9
v -6 7 9
v -6 9 9
v -12 7 8
v -12 11 8
v -11 7 8
v -11 11 8
v -6 7 8
v -6 9 8
v -4 7 8
v -4 9 8
v -12 4 7
v -12 7 7
v -6 4 7
v -6 6 7
v -4 6 7
v -4 7 7
v -4 6 6
v -4 11 6
v -1 6 6
v -1 11 6
v -6 4 5
v -6 6 5
v -3 4 5
v -3 6 5
v -12 4 -2
v -12 10 -2
v -11 4 -2
v -11 10 -2
v -12 10 -3
v -12 11 -3
v -11 10 -3
v -8 10 -3
v -8 11 -3
v -12 0 -4
v -12 4 -4
v -11 0 -4
v -11 4 -4
v -11 10 -4
v -8 4 -4
v -8 10 -4
v -11 0 -5
v -11 4 -5
v -8 1 -5
v -8 4 -5
v -3 0 -5
v -3 1 -5
v -8 1 -6
v -8 11 -6
v -3 1 -6
v -3 6 -6
v -1 6 -6
v -1 11 -6
v -12 0 14
v -11 0 14
v -10 0 14
v -9 0 14
v -8 0 14
v -7 0 14
v -6 0 14
v -4 0 14
v -12 0 13
v -11 0 13
v -10 0 13
v -9 0 13
v -8 0 13
v -7 0 13
v -6 0 13
v -4 0 13
v -4 0 12
v -3 0 12
v -12 0 -4
v -11 0 -4
v -11 0 -5
v -3 0 -5
v -8 1 -5
v -3 1 -5
v -8 1 -6
v -3 1 -6
v -6 6 7
v -4 6 7
v -4 6 6
v -1 6 6
v -6 6 5
v -3 6 5
v -3 6 -6
v -1 6 -6
v -11 7 9
v -6 7 9
v -12 7 8
v -11 7 8
v -6 7 8
v -4 7 8
v -12 7 7
v -4 7 7
v -10 9 10
v -4 9 10
v -10 9 9
v -6 9 9
v -4 9 9
v -6 9 8
v -4 9 8
v -12 10 -2
v -11 10 -2
v -12 10 -3
v -11 10 -3
v -12 3 14
v -11 3 14
v -10 3 14
v -9 3 14
v -8 3 14
v -7 3 14
v -6 3 14
v -4 3 14
v -12 3 13
v -11 3 13
v -10 3 13
v -9 3 13
v -8 3 13
v -7 3 13
v -6 3 13
v -5 3 13
v -4 3 13
v -5 3 12
v -4 3 12
v -12 3 11
v -11 3 11
v -11 4 13
v -5 4 13
v -5 4 12
v -3 4 12
v -12 4 11
v -11 4 11
v -12 4 7
v -6 4 7
v -6 4 5
v -3 4 5
v -12 4 -2
v -11 4 -2
v -12 4 -4
v -11 4 -4
v -8 4 -4
v -11 4 -5
v -8 4 -5
v -11 10 -3
v -8 10 -3
v -11 10 -4
v -8 10 -4
v -10 11 10
v -4 11 10
v -11 11 9
v -10 11 9
v -4 11 9
v -12 11 8
v -11 11 8
v -4 11 6
v -1 11 6
v -12 11 -3
v -8 11 -3
v -8 11 -6
v -1 11 -6

# faces
f 4/3/1 2/3/1 1/3/1
f 5/2/1 3/2/1 2/2/1
f 5/3/1 2/3/1 4/3/1
f 6/1/1 5/1/1 4/1/1
f 7/2/1 3/2/1 5/2/1
f 7/1/1 5/1/1 6/1/1
f 8/2/1 3/2/1 7/2/1
f 9/2/1 3/2/1 8/2/1
f 10/2/1 3/2/1 9/2/1
f 11/2/1 3/2/1 10/2/1
f 12/2/1 3/2/1 11/2/1
f 14/2/1 11/2/1 10/2/1
f 15/2/1 11/2/1 14/2/1
f 15/2/1 14/2/1 13/2/1
f 17/2/1 15/2/1 13/2/1
f 17/2/1 16/2/1 15/2/1
f 18/2/1 16/2/1 17/2/1
f 23/2/1 22/2/1 21/2/1
f 24/2/1 22/2/1 23/2/1
f 26/2/1 20/2/1 19/2/1
f 27/2/1 20/2/1 26/2/1
f 30/2/1 26/2/1 25/2/1
f 31/2/1 26/2/1 30/2/1
f 32/2/1 26/2/1 31/2/1
f 33/2/1 29/2/1 28/2/1
f 34/2/1 29/2/1 33/2/1
f 37/3/1 36/3/1 35/3/1
f 38/3/1 36/3/1 37/3/1
f 39/1/1 38/1/1 37/1/1
f 40/1/1 38/1/1 39/1/1
f 43/1/1 42/1/1 41/1/1
f 44/1/1 42/1/1 43/1/1
f 47/3/1 46/3/1 45/3/1
f 48/3/1 46/3/1 47/3/1
f 51/1/1 48/1/1 47/1/1
f 52/1/1 48/1/1 51/1/1
f 54/2/1 50/2/1 49/2/1
f 56/2/1 54/2/1 53/2/1
f 57/2/1 56/2/1 55/2/1
f 58/2/1 50/2/1 54/2/1
f 58/2/1 56/2/1 57/2/1
f 58/2/1 54/2/1 56/2/1
f 61/3/1 60/3/1 59/3/1
f 62/3/1 60/3/1 61/3/1
f 63/1/1 62/1/1 61/1/1
f 64/1/1 62/1/1 63/1/1
f 65/3/2 66/3/2 67/3/2
f 67/3/2 66/3/2 68/3/2
f 67/1/2 68/1/2 69/1/2
f 69/1/2 68/1/2 70/1/2
f 71/3/2 72/3/2 73/3/2
f 73/3/2 72/3/2 74/3/2
f 73/1/2 74/1/2 75/1/2
f 75/1/2 74/1/2 76/1/2
f 77/3/2 78/3/2 79/3/2
f 79/3/2 78/3/2 80/3/2
f 79/1/2 80/1/2 81/1/2
f 81/1/2 80/1/2 82/1/2
f 83/2/2 84/2/2 85/2/2
f 85/2/2 84/2/2 86/2/2
f 87/2/2 88/2/2 89/2/2
f 89/2/2 88/2/2 90/2/2
f 91/2/2 92/2/2 93/2/2
f 93/2/2 92/2/2 94/2/2
f 95/3/2 96/3/2 98/3/2
f 96/2/2 97/2/2 99/2/2
f 98/3/2 96/3/2 99/3/2
f 98/1/2 99/1/2 100/1/2
f 99/2/2 97/2/2 101/2/2
f 100/1/2 99/1/2 101/1/2
f 101/2/2 97/2/2 102/2/2
f 103/2/2 104/2/2 106/2/2
f 105/2/2 106/2/2 109/2/2
f 107/1/2 108/1/2 110/1/2
f 108/2/2 109/2/2 111/2/2
f 110/1/2 108/1/2 111/1/2
f 106/2/2 104/2/2 112/2/2
f 111/2/2 109/2/2 112/2/2
f 109/2/2 106/2/2 112/2/2
f 113/2/2 114/2/2 115/2/2
f 113/2/2 115/2/2 117/2/2
f 115/2/2 116/2/2 117/2/2
f 117/2/2 116/2/2 118/2/2
f 118/2/2 116/2/2 119/2/2
f 119/2/2 116/2/2 120/2/2
f 121/2/2 122/2/2 123/2/2
f 123/2/2 122/2/2 124/2/2
f 128/3/3 126/3/3 125/3/3
f 129/1/3 127/1/3 126/1/3
f 129/3/3 126/3/3 128/3/3
f 130/1/3 127/1/3 129/1/3
f 134/3/3 132/3/3 131/3/3
f 135/1/3 133/1/3 132/1/3
f 135/3/3 132/3/3 134/3/3
f 136/1/3 133/1/3 135/1/3
f 140/3/3 138/3/3 137/3/3
f 141/1/3 139/1/3 138/1/3
f 141/3/3 138/3/3 140/3/3
f 142/1/3 139/1/3 141/1/3
f 146/3/3 144/3/3 143/3/3
f 147/1/3 145/1/3 144/1/3
f 147/3/3 144/3/3 146/3/3
f 148/1/3 145/1/3 147/1/3
f 153/2/3 150/2/3 149/2/3
f 153/2/3 152/2/3 151/2/3
f 153/2/3 151/2/3 150/2/3
f 154/2/3 152/2/3 153/2/3
f 155/2/3 152/2/3 154/2/3
f 158/2/3 152/2/3 155/2/3
f 159/2/3 157/2/3 156/2/3
f 159/2/3 158/2/3 157/2/3
f 160/2/3 158/2/3 159/2/3
f 161/2/3 152/2/3 158/2/3
f 161/2/3 158/2/3 160/2/3
f 164/2/3 152/2/3 161/2/3
f 165/2/3 163/2/3 162/2/3
f 165/2/3 164/2/3 163/2/3
f 166/2/3 164/2/3 165/2/3
f 167/2/3 152/2/3 164/2/3
f 167/2/3 164/2/3 166/2/3
f 168/2/3 152/2/3 167/2/3
f 169/2/3 152/2/3 168/2/3
f 173/2/3 171/2/3 170/2/3
f 174/2/3 173/2/3 172/2/3
f 175/2/3 171/2/3 173/2/3
f 175/2/3 173/2/3 174/2/3
f 178/2/3 177/2/3 176/2/3
f 179/2/3 177/2/3 178/2/3
f 182/1/3 181/1/3 180/1/3
f 183/1/3 181/1/3 182/1/3
f 186/2/3 185/2/3 184/2/3
f 187/2/3 185/2/3 186/2/3
f 188/2/3 186/2/3 184/2/3
f 189/2/3 186/2/3 188/2/3
f 192/2/3 191/2/3 190/2/3
f 193/2/3 191/2/3 192/2/3
f 196/2/3 195/2/3 194/2/3
f 197/2/3 195/2/3 196/2/3
f 200/2/3 199/2/3 198/2/3
f 201/2/3 199/2/3 200/2/3
f 202/2/3 199/2/3 201/2/3
f 203/2/3 199/2/3 202/2/3
f 206/2/3 205/2/3 204/2/3
f 207/2/3 205/2/3 206/2/3
f 210/2/3 209/2/3 208/2/3
f 211/2/3 209/2/3 210/2/3
f 212/2/4 213/2/4 214/2/4
f 214/2/4 213/2/4 215/2/4
f 216/2/4 217/2/4 218/2/4
f 218/2/4 217/2/4 219/2/4
f 219/2/4 217/2/4 220/2/4
f 221/2/4 222/2/4 223/2/4
f 223/2/4 222/2/4 224/2/4
f 224/2/4 225/2/4 226/2/4
f 226/2/4 225/2/4 227/2/4
f 228/2/4 229/2/4 230/2/4
f 230/2/4 229/2/4 231/2/4
f 228/2/4 230/2/4 232/2/4
f 232/2/4 230/2/4 233/2/4
f 234/2/4 235/2/4 236/2/4
f 236/2/4 235/2/4 237/2/4
f 237/2/4 235/2/4 238/2/4
f 238/2/4 235/2/4 239/2/4
f 248/3/5 241/3/5 240/3/5
f 249/3/5 241/3/5 248/3/5
f 250/3/5 243/3/5 242/3/5
f 251/3/5 243/3/5 250/3/5
f 252/3/5 245/3/5 244/3/5
f 253/3/5 245/3/5 252/3/5
f 254/3/5 247/3/5 246/3/5
f 255/3/5 247/3/5 254/3/5
f 256/2/5 253/2/5 252/2/5
f 256/2/5 249/2/5 248/2/5
f 256/2/5 255/2/5 254/2/5
f 256/2/5 254/2/5 253/2/5
f 256/2/5 251/2/5 250/2/5
f 256/2/5 252/2/5 251/2/5
f 256/2/5 250/2/5 249/2/5
f 258/2/5 256/2/5 248/2/5
f 258/2/5 257/2/5 256/2/5
f 259/2/5 257/2/5 258/2/5
f 260/2/5 257/2/5 259/2/5
f 261/2/5 257/2/5 260/2/5
f 264/2/5 263/2/5 262/2/5
f 265/2/5 263/2/5 264/2/5
f 268/2/5 267/2/5 266/2/5
f 270/2/5 268/2/5 266/2/5
f 270/2/5 269/2/5 268/2/5
f 271/2/5 269/2/5 270/2/5
f 272/2/5 269/2/5 271/2/5
f 273/2/5 269/2/5 272/2/5
f 277/2/5 275/2/5 274/2/5
f 278/2/5 275/2/5 277/2/5
f 280/2/5 277/2/5 276/2/5
f 280/2/5 279/2/5 278/2/5
f 280/2/5 278/2/5 277/2/5
f 281/2/5 279/2/5 280/2/5
f 284/1/5 283/1/5 282/1/5
f 285/1/5 283/1/5 284/1/5
f 286/1/5 283/1/5 285/1/5
f 287/2/5 286/2/5 285/2/5
f 288/2/5 286/2/5 287/2/5
f 291/2/5 290/2/5 289/2/5
f 292/2/5 290/2/5 291/2/5
f 293/1/6 294/1/6 301/1/6
f 301/1/6 294/1/6 302/1/6
f 295/1/6 296/1/6 303/1/6
f 303/1/6 296/1/6 304/1/6
f 297/1/6 298/1/6 305/1/6
f 305/1/6 298/1/6 306/1/6
f 299/1/6 300/1/6 307/1/6
f 307/1/6 300/1/6 308/1/6
f 308/1/6 300/1/6 309/1/6
f 308/2/6 309/2/6 310/2/6
f 310/2/6 309/2/6 311/2/6
f 301/2/6 302/2/6 312/2/6
f 312/2/6 302/2/6 313/2/6
f 314/2/6 315/2/6 316/2/6
f 314/2/6 316/2/6 319/2/6
f 316/2/6 317/2/6 319/2/6
f 318/2/6 319/2/6 320/2/6
f 319/2/6 317/2/6 321/2/6
f 320/2/6 319/2/6 321/2/6
f 321/2/6 317/2/6 322/2/6
f 322/2/6 317/2/6 323/2/6
f 324/2/6 325/2/6 326/2/6
f 326/2/6 325/2/6 327/2/6
f 327/2/6 328/2/6 329/2/6
f 329/2/6 328/2/6 330/2/6
f 331/2/6 332/2/6 333/2/6
f 333/2/6 332/2/6 334/2/6
f 335/1/6 336/1/6 338/1/6
f 338/1/6 336/1/6 339/1/6
f 337/2/6 338/2/6 341/2/6
f 338/2/6 339/2/6 341/2/6
f 341/2/6 339/2/6 342/2/6
f 340/2/6 341/2/6 342/2/6
f 340/2/6 342/2/6 344/2/6
f 342/2/6 343/2/6 344/2/6
f 344/2/6 343/2/6 345/2/6
f 345/2/6 343/2/6 346/2/6
f 346/2/6 343/2/6 347/2/6
