# MagicaVoxel @ Ephtracy

# group
g FoodHut

# material
mtllib FoodHut.mtl
usemtl palette

# normals
vn -1 0 0
vn 1 0 0
vn 0 0 1
vn 0 0 -1
vn 0 -1 0
vn 0 1 0

# texcoords
vt 0.310547 0.5
vt 0.466797 0.5
vt 0.810547 0.5
vt 0.853516 0.5
vt 0.994141 0.5

# verts
v -13 11 13
v -13 11 -13
v -13 13 13
v -13 13 -13
v -12 0 12
v -12 0 -12
v -12 4 8
v -12 4 5
v -12 4 -5
v -12 4 -8
v -12 5 7
v -12 5 6
v -12 5 -6
v -12 5 -7
v -12 6 7
v -12 6 6
v -12 6 -6
v -12 6 -7
v -12 7 8
v -12 7 5
v -12 7 -5
v -12 7 -8
v -12 11 12
v -12 11 -12
v -11 13 11
v -11 13 -11
v -11 14 11
v -11 14 -11
v -8 14 -0
v -8 14 -2
v -8 21 -0
v -8 21 -2
v -3 14 -0
v -3 14 -2
v -3 20 -0
v -3 20 -2
v -1 15 -0
v -1 15 -2
v -1 19 -0
v -1 19 -2
v 1 14 -0
v 1 14 -2
v 1 20 -0
v 1 20 -2
v 3 15 -0
v 3 15 -2
v 3 19 -0
v 3 19 -2
v 5 14 -0
v 5 14 -2
v 5 21 -0
v 5 21 -2
v 7 15 -0
v 7 15 -2
v 7 16 -0
v 7 16 -2
v 7 19 -0
v 7 19 -2
v 7 20 -0
v 7 20 -2
v 8 16 -0
v 8 16 -2
v 8 19 -0
v 8 19 -2
v -7 14 -0
v -7 14 -2
v -7 18 -0
v -7 18 -2
v -7 19 -0
v -7 19 -2
v -7 20 -0
v -7 20 -2
v -5 18 -0
v -5 18 -2
v -5 19 -0
v -5 19 -2
v -5 20 -0
v -5 20 -2
v -5 21 -0
v -5 21 -2
v -2 15 -0
v -2 15 -2
v -2 19 -0
v -2 19 -2
v 0 14 -0
v 0 14 -2
v 0 20 -0
v 0 20 -2
v 2 15 -0
v 2 15 -2
v 2 19 -0
v 2 19 -2
v 4 14 -0
v 4 14 -2
v 4 20 -0
v 4 20 -2
v 6 15 -0
v 6 15 -2
v 6 20 -0
v 6 20 -2
v 7 14 -0
v 7 14 -2
v 7 15 -0
v 7 15 -2
v 7 20 -0
v 7 20 -2
v 7 21 -0
v 7 21 -2
v 8 15 -0
v 8 15 -2
v 8 16 -0
v 8 16 -2
v 8 19 -0
v 8 19 -2
v 8 20 -0
v 8 20 -2
v 9 16 -0
v 9 16 -2
v 9 19 -0
v 9 19 -2
v 11 13 11
v 11 13 -11
v 11 14 11
v 11 14 -11
v 12 0 12
v 12 0 -12
v 12 4 7
v 12 4 4
v 12 4 -5
v 12 4 -8
v 12 5 6
v 12 5 5
v 12 5 -6
v 12 5 -7
v 12 6 6
v 12 6 5
v 12 6 -6
v 12 6 -7
v 12 7 7
v 12 7 4
v 12 7 -5
v 12 7 -8
v 12 11 12
v 12 11 -12
v 13 11 13
v 13 11 -13
v 13 13 13
v 13 13 -13
v -13 11 13
v -13 13 13
v 13 11 13
v 13 13 13
v -12 0 12
v -12 11 12
v -10 4 12
v -10 7 12
v -9 5 12
v -9 6 12
v -8 5 12
v -8 6 12
v -7 4 12
v -7 7 12
v -4 0 12
v -4 6 12
v -3 0 12
v -3 5 12
v 0 0 12
v 0 5 12
v 1 0 12
v 1 5 12
v 4 0 12
v 4 5 12
v 5 0 12
v 5 6 12
v 7 4 12
v 7 7 12
v 8 5 12
v 8 6 12
v 9 5 12
v 9 6 12
v 10 4 12
v 10 7 12
v 12 0 12
v 12 11 12
v -11 13 11
v -11 14 11
v 11 13 11
v 11 14 11
v -8 14 -0
v -8 21 -0
v -7 14 -0
v -7 18 -0
v -7 19 -0
v -7 20 -0
v -5 18 -0
v -5 19 -0
v -5 20 -0
v -5 21 -0
v -3 14 -0
v -3 20 -0
v -2 15 -0
v -2 19 -0
v -1 15 -0
v -1 19 -0
v 0 14 -0
v 0 20 -0
v 1 14 -0
v 1 20 -0
v 2 15 -0
v 2 19 -0
v 3 15 -0
v 3 19 -0
v 4 14 -0
v 4 20 -0
v 5 14 -0
v 5 21 -0
v 6 15 -0
v 6 20 -0
v 7 14 -0
v 7 15 -0
v 7 16 -0
v 7 19 -0
v 7 20 -0
v 7 21 -0
v 8 15 -0
v 8 16 -0
v 8 19 -0
v 8 20 -0
v 9 16 -0
v 9 19 -0
v -8 14 -2
v -8 21 -2
v -7 14 -2
v -7 18 -2
v -7 19 -2
v -7 20 -2
v -5 18 -2
v -5 19 -2
v -5 20 -2
v -5 21 -2
v -3 14 -2
v -3 20 -2
v -2 15 -2
v -2 19 -2
v -1 15 -2
v -1 19 -2
v 0 14 -2
v 0 20 -2
v 1 14 -2
v 1 20 -2
v 2 15 -2
v 2 19 -2
v 3 15 -2
v 3 19 -2
v 4 14 -2
v 4 20 -2
v 5 14 -2
v 5 21 -2
v 6 15 -2
v 6 20 -2
v 7 14 -2
v 7 15 -2
v 7 16 -2
v 7 19 -2
v 7 20 -2
v 7 21 -2
v 8 15 -2
v 8 16 -2
v 8 19 -2
v 8 20 -2
v 9 16 -2
v 9 19 -2
v -11 13 -11
v -11 14 -11
v 11 13 -11
v 11 14 -11
v -12 0 -12
v -12 11 -12
v -8 4 -12
v -8 7 -12
v -7 5 -12
v -7 6 -12
v -6 5 -12
v -6 6 -12
v -5 4 -12
v -5 7 -12
v 4 4 -12
v 4 7 -12
v 5 5 -12
v 5 6 -12
v 6 5 -12
v 6 6 -12
v 7 4 -12
v 7 7 -12
v 12 0 -12
v 12 11 -12
v -13 11 -13
v -13 13 -13
v 13 11 -13
v 13 13 -13
v -12 0 12
v -4 0 12
v -3 0 12
v 0 0 12
v 1 0 12
v 4 0 12
v 5 0 12
v 12 0 12
v -4 0 11
v -3 0 11
v 0 0 11
v 1 0 11
v 4 0 11
v 5 0 11
v -12 0 -12
v 12 0 -12
v -13 11 13
v 13 11 13
v -12 11 12
v 12 11 12
v -12 11 -12
v 12 11 -12
v -13 11 -13
v 13 11 -13
v 7 15 -0
v 8 15 -0
v 7 15 -2
v 8 15 -2
v 8 16 -0
v 9 16 -0
v 8 16 -2
v 9 16 -2
v -7 18 -0
v -5 18 -0
v -7 18 -2
v -5 18 -2
v -2 19 -0
v -1 19 -0
v 2 19 -0
v 3 19 -0
v 7 19 -0
v 8 19 -0
v -2 19 -2
v -1 19 -2
v 2 19 -2
v 3 19 -2
v 7 19 -2
v 8 19 -2
v -7 20 -0
v -5 20 -0
v 6 20 -0
v 7 20 -0
v -7 20 -2
v -5 20 -2
v 6 20 -2
v 7 20 -2
v -13 13 13
v 13 13 13
v -11 13 11
v 11 13 11
v -11 13 -11
v 11 13 -11
v -13 13 -13
v 13 13 -13
v -11 14 11
v 11 14 11
v -8 14 -0
v -7 14 -0
v -3 14 -0
v 0 14 -0
v 1 14 -0
v 4 14 -0
v 5 14 -0
v 7 14 -0
v -8 14 -2
v -7 14 -2
v -3 14 -2
v 0 14 -2
v 1 14 -2
v 4 14 -2
v 5 14 -2
v 7 14 -2
v -11 14 -11
v 11 14 -11
v -2 15 -0
v -1 15 -0
v 2 15 -0
v 3 15 -0
v 6 15 -0
v 7 15 -0
v -2 15 -2
v -1 15 -2
v 2 15 -2
v 3 15 -2
v 6 15 -2
v 7 15 -2
v 7 16 -0
v 8 16 -0
v 7 16 -2
v 8 16 -2
v -7 19 -0
v -5 19 -0
v 8 19 -0
v 9 19 -0
v -7 19 -2
v -5 19 -2
v 8 19 -2
v 9 19 -2
v -3 20 -0
v 0 20 -0
v 1 20 -0
v 4 20 -0
v 7 20 -0
v 8 20 -0
v -3 20 -2
v 0 20 -2
v 1 20 -2
v 4 20 -2
v 7 20 -2
v 8 20 -2
v -8 21 -0
v -5 21 -0
v 5 21 -0
v 7 21 -0
v -8 21 -2
v -5 21 -2
v 5 21 -2
v 7 21 -2

# faces
f 3/4/1 2/4/1 1/4/1
f 4/4/1 2/4/1 3/4/1
f 7/1/1 6/1/1 5/1/1
f 8/1/1 6/1/1 7/1/1
f 9/1/1 6/1/1 8/1/1
f 10/1/1 6/1/1 9/1/1
f 11/3/1 8/3/1 7/3/1
f 12/3/1 8/3/1 11/3/1
f 13/3/1 10/3/1 9/3/1
f 14/3/1 10/3/1 13/3/1
f 15/3/1 11/3/1 7/3/1
f 15/1/1 12/1/1 11/1/1
f 16/3/1 8/3/1 12/3/1
f 16/1/1 12/1/1 15/1/1
f 17/1/1 14/1/1 13/1/1
f 17/3/1 13/3/1 9/3/1
f 18/3/1 10/3/1 14/3/1
f 18/1/1 14/1/1 17/1/1
f 19/1/1 7/1/1 5/1/1
f 19/3/1 15/3/1 7/3/1
f 19/3/1 16/3/1 15/3/1
f 20/1/1 9/1/1 8/1/1
f 20/3/1 16/3/1 19/3/1
f 20/3/1 8/3/1 16/3/1
f 21/3/1 18/3/1 17/3/1
f 21/1/1 9/1/1 20/1/1
f 21/3/1 17/3/1 9/3/1
f 22/3/1 10/3/1 18/3/1
f 22/3/1 18/3/1 21/3/1
f 22/1/1 6/1/1 10/1/1
f 23/1/1 21/1/1 20/1/1
f 23/1/1 20/1/1 19/1/1
f 23/1/1 22/1/1 21/1/1
f 23/1/1 19/1/1 5/1/1
f 24/1/1 6/1/1 22/1/1
f 24/1/1 22/1/1 23/1/1
f 27/4/1 26/4/1 25/4/1
f 28/4/1 26/4/1 27/4/1
f 31/2/1 30/2/1 29/2/1
f 32/2/1 30/2/1 31/2/1
f 35/2/1 34/2/1 33/2/1
f 36/2/1 34/2/1 35/2/1
f 39/2/1 38/2/1 37/2/1
f 40/2/1 38/2/1 39/2/1
f 43/2/1 42/2/1 41/2/1
f 44/2/1 42/2/1 43/2/1
f 47/2/1 46/2/1 45/2/1
f 48/2/1 46/2/1 47/2/1
f 51/2/1 50/2/1 49/2/1
f 52/2/1 50/2/1 51/2/1
f 55/2/1 54/2/1 53/2/1
f 56/2/1 54/2/1 55/2/1
f 59/2/1 58/2/1 57/2/1
f 60/2/1 58/2/1 59/2/1
f 63/2/1 62/2/1 61/2/1
f 64/2/1 62/2/1 63/2/1
f 65/2/2 66/2/2 67/2/2
f 67/2/2 66/2/2 68/2/2
f 69/2/2 70/2/2 71/2/2
f 71/2/2 70/2/2 72/2/2
f 73/2/2 74/2/2 75/2/2
f 75/2/2 74/2/2 76/2/2
f 77/2/2 78/2/2 79/2/2
f 79/2/2 78/2/2 80/2/2
f 81/2/2 82/2/2 83/2/2
f 83/2/2 82/2/2 84/2/2
f 85/2/2 86/2/2 87/2/2
f 87/2/2 86/2/2 88/2/2
f 89/2/2 90/2/2 91/2/2
f 91/2/2 90/2/2 92/2/2
f 93/2/2 94/2/2 95/2/2
f 95/2/2 94/2/2 96/2/2
f 97/2/2 98/2/2 99/2/2
f 99/2/2 98/2/2 100/2/2
f 101/2/2 102/2/2 103/2/2
f 103/2/2 102/2/2 104/2/2
f 105/2/2 106/2/2 107/2/2
f 107/2/2 106/2/2 108/2/2
f 109/2/2 110/2/2 111/2/2
f 111/2/2 110/2/2 112/2/2
f 113/2/2 114/2/2 115/2/2
f 115/2/2 114/2/2 116/2/2
f 117/2/2 118/2/2 119/2/2
f 119/2/2 118/2/2 120/2/2
f 121/4/2 122/4/2 123/4/2
f 123/4/2 122/4/2 124/4/2
f 125/1/2 126/1/2 127/1/2
f 127/1/2 126/1/2 128/1/2
f 128/1/2 126/1/2 129/1/2
f 129/1/2 126/1/2 130/1/2
f 127/3/2 128/3/2 131/3/2
f 131/3/2 128/3/2 132/3/2
f 129/3/2 130/3/2 133/3/2
f 133/3/2 130/3/2 134/3/2
f 127/3/2 131/3/2 135/3/2
f 131/1/2 132/1/2 135/1/2
f 132/3/2 128/3/2 136/3/2
f 135/1/2 132/1/2 136/1/2
f 133/1/2 134/1/2 137/1/2
f 129/3/2 133/3/2 137/3/2
f 134/3/2 130/3/2 138/3/2
f 137/1/2 134/1/2 138/1/2
f 125/1/2 127/1/2 139/1/2
f 127/3/2 135/3/2 139/3/2
f 135/3/2 136/3/2 139/3/2
f 128/1/2 129/1/2 140/1/2
f 139/3/2 136/3/2 140/3/2
f 136/3/2 128/3/2 140/3/2
f 137/3/2 138/3/2 141/3/2
f 140/1/2 129/1/2 141/1/2
f 129/3/2 137/3/2 141/3/2
f 138/3/2 130/3/2 142/3/2
f 141/3/2 138/3/2 142/3/2
f 130/1/2 126/1/2 142/1/2
f 140/1/2 141/1/2 143/1/2
f 139/1/2 140/1/2 143/1/2
f 141/1/2 142/1/2 143/1/2
f 125/1/2 139/1/2 143/1/2
f 142/1/2 126/1/2 144/1/2
f 143/1/2 142/1/2 144/1/2
f 145/4/2 146/4/2 147/4/2
f 147/4/2 146/4/2 148/4/2
f 151/4/3 150/4/3 149/4/3
f 152/4/3 150/4/3 151/4/3
f 155/1/3 154/1/3 153/1/3
f 156/1/3 154/1/3 155/1/3
f 157/3/3 156/3/3 155/3/3
f 158/3/3 156/3/3 157/3/3
f 159/3/3 157/3/3 155/3/3
f 159/1/3 158/1/3 157/1/3
f 160/3/3 156/3/3 158/3/3
f 160/1/3 158/1/3 159/1/3
f 161/1/3 155/1/3 153/1/3
f 161/3/3 159/3/3 155/3/3
f 161/3/3 160/3/3 159/3/3
f 162/3/3 156/3/3 160/3/3
f 162/3/3 160/3/3 161/3/3
f 162/1/3 154/1/3 156/1/3
f 163/1/3 161/1/3 153/1/3
f 163/1/3 162/1/3 161/1/3
f 164/1/3 162/1/3 163/1/3
f 165/5/3 164/5/3 163/5/3
f 166/5/3 164/5/3 165/5/3
f 167/1/3 166/1/3 165/1/3
f 168/5/3 164/5/3 166/5/3
f 168/1/3 166/1/3 167/1/3
f 169/5/3 168/5/3 167/5/3
f 170/5/3 164/5/3 168/5/3
f 170/5/3 168/5/3 169/5/3
f 171/1/3 170/1/3 169/1/3
f 172/5/3 164/5/3 170/5/3
f 172/1/3 170/1/3 171/1/3
f 173/5/3 172/5/3 171/5/3
f 174/1/3 162/1/3 164/1/3
f 174/5/3 172/5/3 173/5/3
f 174/5/3 164/5/3 172/5/3
f 175/1/3 174/1/3 173/1/3
f 176/1/3 154/1/3 162/1/3
f 176/1/3 174/1/3 175/1/3
f 176/1/3 162/1/3 174/1/3
f 177/3/3 176/3/3 175/3/3
f 178/3/3 176/3/3 177/3/3
f 179/3/3 177/3/3 175/3/3
f 179/1/3 178/1/3 177/1/3
f 180/3/3 176/3/3 178/3/3
f 180/1/3 178/1/3 179/1/3
f 181/1/3 175/1/3 173/1/3
f 181/3/3 179/3/3 175/3/3
f 181/3/3 180/3/3 179/3/3
f 182/3/3 176/3/3 180/3/3
f 182/3/3 180/3/3 181/3/3
f 182/1/3 154/1/3 176/1/3
f 183/1/3 181/1/3 173/1/3
f 183/1/3 182/1/3 181/1/3
f 184/1/3 154/1/3 182/1/3
f 184/1/3 182/1/3 183/1/3
f 187/4/3 186/4/3 185/4/3
f 188/4/3 186/4/3 187/4/3
f 191/2/3 190/2/3 189/2/3
f 192/2/3 190/2/3 191/2/3
f 193/2/3 190/2/3 192/2/3
f 194/2/3 190/2/3 193/2/3
f 195/2/3 193/2/3 192/2/3
f 196/2/3 193/2/3 195/2/3
f 197/2/3 190/2/3 194/2/3
f 198/2/3 190/2/3 197/2/3
f 201/2/3 200/2/3 199/2/3
f 202/2/3 200/2/3 201/2/3
f 203/2/3 201/2/3 199/2/3
f 204/2/3 200/2/3 202/2/3
f 205/2/3 203/2/3 199/2/3
f 205/2/3 204/2/3 203/2/3
f 206/2/3 200/2/3 204/2/3
f 206/2/3 204/2/3 205/2/3
f 209/2/3 208/2/3 207/2/3
f 210/2/3 208/2/3 209/2/3
f 211/2/3 209/2/3 207/2/3
f 212/2/3 208/2/3 210/2/3
f 213/2/3 211/2/3 207/2/3
f 213/2/3 212/2/3 211/2/3
f 214/2/3 208/2/3 212/2/3
f 214/2/3 212/2/3 213/2/3
f 217/2/3 216/2/3 215/2/3
f 218/2/3 216/2/3 217/2/3
f 219/2/3 217/2/3 215/2/3
f 220/2/3 217/2/3 219/2/3
f 223/2/3 216/2/3 218/2/3
f 224/2/3 216/2/3 223/2/3
f 225/2/3 221/2/3 220/2/3
f 226/2/3 221/2/3 225/2/3
f 227/2/3 223/2/3 222/2/3
f 228/2/3 223/2/3 227/2/3
f 229/2/3 227/2/3 226/2/3
f 230/2/3 227/2/3 229/2/3
f 231/2/4 232/2/4 233/2/4
f 233/2/4 232/2/4 234/2/4
f 234/2/4 232/2/4 235/2/4
f 235/2/4 232/2/4 236/2/4
f 234/2/4 235/2/4 237/2/4
f 237/2/4 235/2/4 238/2/4
f 236/2/4 232/2/4 239/2/4
f 239/2/4 232/2/4 240/2/4
f 241/2/4 242/2/4 243/2/4
f 243/2/4 242/2/4 244/2/4
f 241/2/4 243/2/4 245/2/4
f 244/2/4 242/2/4 246/2/4
f 241/2/4 245/2/4 247/2/4
f 245/2/4 246/2/4 247/2/4
f 246/2/4 242/2/4 248/2/4
f 247/2/4 246/2/4 248/2/4
f 249/2/4 250/2/4 251/2/4
f 251/2/4 250/2/4 252/2/4
f 249/2/4 251/2/4 253/2/4
f 252/2/4 250/2/4 254/2/4
f 249/2/4 253/2/4 255/2/4
f 253/2/4 254/2/4 255/2/4
f 254/2/4 250/2/4 256/2/4
f 255/2/4 254/2/4 256/2/4
f 257/2/4 258/2/4 259/2/4
f 259/2/4 258/2/4 260/2/4
f 257/2/4 259/2/4 261/2/4
f 261/2/4 259/2/4 262/2/4
f 260/2/4 258/2/4 265/2/4
f 265/2/4 258/2/4 266/2/4
f 262/2/4 263/2/4 267/2/4
f 267/2/4 263/2/4 268/2/4
f 264/2/4 265/2/4 269/2/4
f 269/2/4 265/2/4 270/2/4
f 268/2/4 269/2/4 271/2/4
f 271/2/4 269/2/4 272/2/4
f 273/4/4 274/4/4 275/4/4
f 275/4/4 274/4/4 276/4/4
f 277/1/4 278/1/4 279/1/4
f 279/1/4 278/1/4 280/1/4
f 279/3/4 280/3/4 281/3/4
f 281/3/4 280/3/4 282/3/4
f 279/3/4 281/3/4 283/3/4
f 281/1/4 282/1/4 283/1/4
f 282/3/4 280/3/4 284/3/4
f 283/1/4 282/1/4 284/1/4
f 277/1/4 279/1/4 285/1/4
f 279/3/4 283/3/4 285/3/4
f 283/3/4 284/3/4 285/3/4
f 284/3/4 280/3/4 286/3/4
f 285/3/4 284/3/4 286/3/4
f 280/1/4 278/1/4 286/1/4
f 277/1/4 285/1/4 287/1/4
f 285/1/4 286/1/4 287/1/4
f 286/1/4 278/1/4 288/1/4
f 287/1/4 286/1/4 288/1/4
f 287/3/4 288/3/4 289/3/4
f 289/3/4 288/3/4 290/3/4
f 287/3/4 289/3/4 291/3/4
f 289/1/4 290/1/4 291/1/4
f 290/3/4 288/3/4 292/3/4
f 291/1/4 290/1/4 292/1/4
f 277/1/4 287/1/4 293/1/4
f 287/3/4 291/3/4 293/3/4
f 291/3/4 292/3/4 293/3/4
f 292/3/4 288/3/4 294/3/4
f 293/3/4 292/3/4 294/3/4
f 288/1/4 278/1/4 294/1/4
f 277/1/4 293/1/4 295/1/4
f 293/1/4 294/1/4 295/1/4
f 294/1/4 278/1/4 296/1/4
f 295/1/4 294/1/4 296/1/4
f 297/4/4 298/4/4 299/4/4
f 299/4/4 298/4/4 300/4/4
f 309/1/5 302/1/5 301/1/5
f 309/5/5 303/5/5 302/5/5
f 310/1/5 304/1/5 303/1/5
f 310/5/5 303/5/5 309/5/5
f 311/5/5 305/5/5 304/5/5
f 311/1/5 304/1/5 310/1/5
f 312/1/5 306/1/5 305/1/5
f 312/5/5 305/5/5 311/5/5
f 313/5/5 307/5/5 306/5/5
f 313/1/5 306/1/5 312/1/5
f 314/1/5 308/1/5 307/1/5
f 314/5/5 307/5/5 313/5/5
f 315/1/5 313/1/5 312/1/5
f 315/1/5 312/1/5 311/1/5
f 315/1/5 314/1/5 313/1/5
f 315/1/5 311/1/5 310/1/5
f 315/1/5 310/1/5 309/1/5
f 315/1/5 309/1/5 301/1/5
f 316/1/5 308/1/5 314/1/5
f 316/1/5 314/1/5 315/1/5
f 319/4/5 318/4/5 317/4/5
f 320/4/5 318/4/5 319/4/5
f 321/4/5 319/4/5 317/4/5
f 322/4/5 318/4/5 320/4/5
f 323/4/5 321/4/5 317/4/5
f 323/4/5 322/4/5 321/4/5
f 324/4/5 318/4/5 322/4/5
f 324/4/5 322/4/5 323/4/5
f 327/2/5 326/2/5 325/2/5
f 328/2/5 326/2/5 327/2/5
f 331/2/5 330/2/5 329/2/5
f 332/2/5 330/2/5 331/2/5
f 335/2/5 334/2/5 333/2/5
f 336/2/5 334/2/5 335/2/5
f 343/2/5 338/2/5 337/2/5
f 344/2/5 338/2/5 343/2/5
f 345/2/5 340/2/5 339/2/5
f 346/2/5 340/2/5 345/2/5
f 347/2/5 342/2/5 341/2/5
f 348/2/5 342/2/5 347/2/5
f 353/2/5 350/2/5 349/2/5
f 354/2/5 350/2/5 353/2/5
f 355/2/5 352/2/5 351/2/5
f 356/2/5 352/2/5 355/2/5
f 357/4/6 358/4/6 359/4/6
f 359/4/6 358/4/6 360/4/6
f 357/4/6 359/4/6 361/4/6
f 360/4/6 358/4/6 362/4/6
f 357/4/6 361/4/6 363/4/6
f 361/4/6 362/4/6 363/4/6
f 362/4/6 358/4/6 364/4/6
f 363/4/6 362/4/6 364/4/6
f 365/4/6 366/4/6 367/4/6
f 367/4/6 366/4/6 368/4/6
f 368/4/6 366/4/6 369/4/6
f 369/4/6 366/4/6 370/4/6
f 370/4/6 366/4/6 371/4/6
f 371/4/6 366/4/6 372/4/6
f 372/4/6 366/4/6 373/4/6
f 373/4/6 366/4/6 374/4/6
f 365/4/6 367/4/6 375/4/6
f 368/4/6 369/4/6 376/4/6
f 376/4/6 369/4/6 377/4/6
f 370/4/6 371/4/6 378/4/6
f 378/4/6 371/4/6 379/4/6
f 372/4/6 373/4/6 380/4/6
f 380/4/6 373/4/6 381/4/6
f 374/4/6 366/4/6 382/4/6
f 380/4/6 381/4/6 383/4/6
f 381/4/6 382/4/6 383/4/6
f 378/4/6 379/4/6 383/4/6
f 365/4/6 375/4/6 383/4/6
f 379/4/6 380/4/6 383/4/6
f 376/4/6 377/4/6 383/4/6
f 377/4/6 378/4/6 383/4/6
f 375/4/6 376/4/6 383/4/6
f 382/4/6 366/4/6 384/4/6
f 383/4/6 382/4/6 384/4/6
f 385/2/6 386/2/6 391/2/6
f 391/2/6 386/2/6 392/2/6
f 387/2/6 388/2/6 393/2/6
f 393/2/6 388/2/6 394/2/6
f 389/2/6 390/2/6 395/2/6
f 395/2/6 390/2/6 396/2/6
f 397/2/6 398/2/6 399/2/6
f 399/2/6 398/2/6 400/2/6
f 401/2/6 402/2/6 405/2/6
f 405/2/6 402/2/6 406/2/6
f 403/2/6 404/2/6 407/2/6
f 407/2/6 404/2/6 408/2/6
f 409/2/6 410/2/6 415/2/6
f 415/2/6 410/2/6 416/2/6
f 411/2/6 412/2/6 417/2/6
f 417/2/6 412/2/6 418/2/6
f 413/2/6 414/2/6 419/2/6
f 419/2/6 414/2/6 420/2/6
f 421/2/6 422/2/6 425/2/6
f 425/2/6 422/2/6 426/2/6
f 423/2/6 424/2/6 427/2/6
f 427/2/6 424/2/6 428/2/6
