# MagicaVoxel @ Ephtracy

# group
g armyguy2body

# material
mtllib armyguy2body.mtl
usemtl palette

# normals
vn -1 0 0
vn 1 0 0
vn 0 0 1
vn 0 0 -1
vn 0 -1 0
vn 0 1 0

# texcoords
vt 0.0136719 0.5
vt 0.0332031 0.5
vt 0.677734 0.5
vt 0.791016 0.5
vt 0.869141 0.5
vt 0.873047 0.5
vt 0.990234 0.5
vt 0.994141 0.5

# verts
v -6 19 4
v -6 19 2
v -6 19 1
v -6 19 -1
v -6 19 -2
v -6 19 -4
v -6 23 4
v -6 23 2
v -6 23 1
v -6 23 -1
v -6 23 -2
v -6 23 -4
v -5 17 5
v -5 17 -5
v -5 19 4
v -5 19 2
v -5 19 1
v -5 19 -1
v -5 19 -2
v -5 19 -4
v -5 23 4
v -5 23 2
v -5 23 1
v -5 23 -1
v -5 23 -2
v -5 23 -4
v -5 28 5
v -5 28 -5
v -5 32 5
v -5 32 -5
v -5 35 5
v -5 35 4
v -5 35 -4
v -5 35 -5
v -5 36 4
v -5 36 -4
v -4 12 5
v -4 12 4
v -4 12 -4
v -4 12 -5
v -4 13 5
v -4 13 4
v -4 13 -4
v -4 13 -5
v -4 14 4
v -4 14 -4
v -4 15 5
v -4 15 -5
v -4 17 6
v -4 17 5
v -4 17 -5
v -4 17 -6
v -4 24 6
v -4 24 5
v -4 24 -5
v -4 24 -6
v -4 28 5
v -4 28 3
v -4 28 -3
v -4 28 -5
v -4 29 5
v -4 29 3
v -4 29 -3
v -4 29 -5
v -4 32 3
v -4 32 -3
v -4 36 3
v -4 36 -3
v -4 37 3
v -4 37 -3
v -3 19 7
v -3 19 6
v -3 19 -6
v -3 19 -7
v -3 23 7
v -3 23 6
v -3 23 -6
v -3 23 -7
v -1 19 7
v -1 19 6
v -1 19 -6
v -1 19 -7
v -1 23 7
v -1 23 6
v -1 23 -6
v -1 23 -7
v 0 12 5
v 0 12 4
v 0 12 1
v 0 12 -1
v 0 12 -4
v 0 12 -5
v 0 13 5
v 0 13 4
v 0 13 2
v 0 13 -2
v 0 13 -4
v 0 13 -5
v 0 14 5
v 0 14 4
v 0 14 2
v 0 14 1
v 0 14 -1
v 0 14 -2
v 0 14 -4
v 0 14 -5
v 0 15 5
v 0 15 4
v 0 15 1
v 0 15 -1
v 0 15 -4
v 0 15 -5
v 0 17 6
v 0 17 5
v 0 17 1
v 0 17 -1
v 0 17 -5
v 0 17 -6
v 0 24 6
v 0 24 5
v 0 24 -5
v 0 24 -6
v 0 27 3
v 0 27 -3
v 0 29 3
v 0 29 1
v 0 29 -1
v 0 29 -3
v 0 30 1
v 0 30 -1
v 0 31 2
v 0 31 1
v 0 31 -1
v 0 31 -2
v 0 32 5
v 0 32 3
v 0 32 2
v 0 32 1
v 0 32 -1
v 0 32 -2
v 0 32 -3
v 0 32 -5
v 0 34 3
v 0 34 -3
v 0 35 5
v 0 35 4
v 0 35 -4
v 0 35 -5
v 0 36 4
v 0 36 3
v 0 36 -3
v 0 36 -4
v 0 37 3
v 0 37 -3
v 1 17 5
v 1 17 -5
v 1 19 4
v 1 19 2
v 1 19 -2
v 1 19 -4
v 1 23 4
v 1 23 2
v 1 23 -2
v 1 23 -4
v 1 25 -1
v 1 25 -4
v 1 27 3
v 1 27 -1
v 1 27 -3
v 1 27 -4
v 1 29 5
v 1 29 3
v 1 29 -3
v 1 29 -5
v 2 19 4
v 2 19 2
v 2 19 -2
v 2 19 -4
v 2 23 4
v 2 23 2
v 2 23 -2
v 2 23 -4
v 2 25 -1
v 2 25 -4
v 2 27 -1
v 2 27 -4
v -3 19 7
v -3 23 7
v -1 19 7
v -1 23 7
v -4 17 6
v -4 24 6
v -3 19 6
v -3 23 6
v -1 19 6
v -1 23 6
v 0 17 6
v 0 24 6
v -5 17 5
v -5 28 5
v -5 32 5
v -5 35 5
v -4 12 5
v -4 13 5
v -4 15 5
v -4 17 5
v -4 24 5
v -4 28 5
v -4 29 5
v -3 12 5
v -3 13 5
v -3 14 5
v -3 24 5
v -3 27 5
v -2 12 5
v -2 13 5
v -2 14 5
v -1 14 5
v -1 15 5
v -1 24 5
v -1 27 5
v 0 12 5
v 0 13 5
v 0 14 5
v 0 15 5
v 0 17 5
v 0 24 5
v 0 28 5
v 0 32 5
v 0 35 5
v 1 17 5
v 1 29 5
v -6 19 4
v -6 23 4
v -5 19 4
v -5 23 4
v -5 35 4
v -5 36 4
v 0 35 4
v 0 36 4
v 1 19 4
v 1 23 4
v 2 19 4
v 2 23 4
v -4 29 3
v -4 32 3
v -4 36 3
v -4 37 3
v 0 29 3
v 0 32 3
v 0 36 3
v 0 37 3
v -6 19 1
v -6 23 1
v -5 19 1
v -5 23 1
v 1 25 -1
v 1 27 -1
v 2 25 -1
v 2 27 -1
v -6 19 -2
v -6 23 -2
v -5 19 -2
v -5 23 -2
v 1 19 -2
v 1 23 -2
v 2 19 -2
v 2 23 -2
v 0 27 -3
v 0 29 -3
v 1 27 -3
v 1 29 -3
v 0 27 3
v 0 29 3
v 1 27 3
v 1 29 3
v -6 19 2
v -6 23 2
v -5 19 2
v -5 23 2
v 1 19 2
v 1 23 2
v 2 19 2
v 2 23 2
v -6 19 -1
v -6 23 -1
v -5 19 -1
v -5 23 -1
v -4 29 -3
v -4 32 -3
v -4 36 -3
v -4 37 -3
v 0 29 -3
v 0 32 -3
v 0 36 -3
v 0 37 -3
v -6 19 -4
v -6 23 -4
v -5 19 -4
v -5 23 -4
v -5 35 -4
v -5 36 -4
v 0 35 -4
v 0 36 -4
v 1 19 -4
v 1 23 -4
v 1 25 -4
v 1 27 -4
v 2 19 -4
v 2 23 -4
v 2 25 -4
v 2 27 -4
v -5 17 -5
v -5 28 -5
v -5 32 -5
v -5 35 -5
v -4 12 -5
v -4 13 -5
v -4 15 -5
v -4 17 -5
v -4 24 -5
v -4 28 -5
v -4 29 -5
v -3 12 -5
v -3 13 -5
v -3 14 -5
v -3 24 -5
v -3 27 -5
v -2 12 -5
v -2 13 -5
v -2 14 -5
v -1 14 -5
v -1 15 -5
v -1 24 -5
v -1 27 -5
v 0 12 -5
v 0 13 -5
v 0 14 -5
v 0 15 -5
v 0 17 -5
v 0 24 -5
v 0 28 -5
v 0 32 -5
v 0 35 -5
v 1 17 -5
v 1 29 -5
v -4 17 -6
v -4 24 -6
v -3 19 -6
v -3 23 -6
v -1 19 -6
v -1 23 -6
v 0 17 -6
v 0 24 -6
v -3 19 -7
v -3 23 -7
v -1 19 -7
v -1 23 -7
v -4 12 5
v -3 12 5
v -2 12 5
v 0 12 5
v -4 12 4
v -3 12 4
v -2 12 4
v 0 12 4
v -1 12 1
v 0 12 1
v -1 12 -1
v 0 12 -1
v -4 12 -4
v -3 12 -4
v -2 12 -4
v 0 12 -4
v -4 12 -5
v -3 12 -5
v -2 12 -5
v 0 12 -5
v -4 17 6
v 0 17 6
v -5 17 5
v -4 17 5
v 0 17 5
v 1 17 5
v 0 17 1
v 0 17 -1
v -5 17 -5
v -4 17 -5
v 0 17 -5
v 1 17 -5
v -4 17 -6
v 0 17 -6
v -3 19 7
v -1 19 7
v -3 19 6
v -1 19 6
v -6 19 4
v -5 19 4
v 1 19 4
v 2 19 4
v -6 19 2
v -5 19 2
v 1 19 2
v 2 19 2
v -6 19 1
v -5 19 1
v -6 19 -1
v -5 19 -1
v -6 19 -2
v -5 19 -2
v 1 19 -2
v 2 19 -2
v -6 19 -4
v -5 19 -4
v 1 19 -4
v 2 19 -4
v -3 19 -6
v -1 19 -6
v -3 19 -7
v -1 19 -7
v 1 25 -1
v 2 25 -1
v 1 25 -4
v 2 25 -4
v -5 32 5
v 0 32 5
v -4 32 3
v 0 32 3
v -4 32 -3
v 0 32 -3
v -5 32 -5
v 0 32 -5
v -3 23 7
v -1 23 7
v -3 23 6
v -1 23 6
v -6 23 4
v -5 23 4
v 1 23 4
v 2 23 4
v -6 23 2
v -5 23 2
v 1 23 2
v 2 23 2
v -6 23 1
v -5 23 1
v -6 23 -1
v -5 23 -1
v -6 23 -2
v -5 23 -2
v 1 23 -2
v 2 23 -2
v -6 23 -4
v -5 23 -4
v 1 23 -4
v 2 23 -4
v -3 23 -6
v -1 23 -6
v -3 23 -7
v -1 23 -7
v -4 24 6
v 0 24 6
v -4 24 5
v -3 24 5
v -1 24 5
v 0 24 5
v -4 24 -5
v -3 24 -5
v -1 24 -5
v 0 24 -5
v -4 24 -6
v 0 24 -6
v 0 27 3
v 1 27 3
v 1 27 -1
v 2 27 -1
v 0 27 -3
v 1 27 -3
v 1 27 -4
v 2 27 -4
v -5 28 5
v -4 28 5
v -4 28 3
v -4 28 -3
v -5 28 -5
v -4 28 -5
v -4 29 5
v 1 29 5
v -4 29 3
v 0 29 3
v 1 29 3
v -4 29 -3
v 0 29 -3
v 1 29 -3
v -4 29 -5
v 1 29 -5
v -5 35 5
v 0 35 5
v -5 35 4
v 0 35 4
v -5 35 -4
v 0 35 -4
v -5 35 -5
v 0 35 -5
v -5 36 4
v 0 36 4
v -4 36 3
v 0 36 3
v -4 36 -3
v 0 36 -3
v -5 36 -4
v 0 36 -4
v -4 37 3
v 0 37 3
v -4 37 -3
v 0 37 -3

# faces
f 7/8/1 2/8/1 1/8/1
f 8/8/1 2/8/1 7/8/1
f 9/8/1 4/8/1 3/8/1
f 10/8/1 4/8/1 9/8/1
f 11/8/1 6/8/1 5/8/1
f 12/8/1 6/8/1 11/8/1
f 15/5/1 14/5/1 13/5/1
f 16/5/1 14/5/1 15/5/1
f 17/5/1 14/5/1 16/5/1
f 18/5/1 14/5/1 17/5/1
f 19/5/1 14/5/1 18/5/1
f 20/5/1 14/5/1 19/5/1
f 21/5/1 15/5/1 13/5/1
f 22/5/1 17/5/1 16/5/1
f 23/5/1 17/5/1 22/5/1
f 24/5/1 19/5/1 18/5/1
f 25/5/1 19/5/1 24/5/1
f 26/5/1 14/5/1 20/5/1
f 27/5/1 25/5/1 24/5/1
f 27/5/1 26/5/1 25/5/1
f 27/5/1 23/5/1 22/5/1
f 27/5/1 21/5/1 13/5/1
f 27/5/1 24/5/1 23/5/1
f 27/5/1 22/5/1 21/5/1
f 28/5/1 14/5/1 26/5/1
f 28/5/1 26/5/1 27/5/1
f 31/6/1 30/6/1 29/6/1
f 32/6/1 30/6/1 31/6/1
f 33/6/1 30/6/1 32/6/1
f 34/6/1 30/6/1 33/6/1
f 35/6/1 33/6/1 32/6/1
f 36/6/1 33/6/1 35/6/1
f 41/7/1 38/7/1 37/7/1
f 42/3/1 39/3/1 38/3/1
f 42/7/1 38/7/1 41/7/1
f 43/7/1 40/7/1 39/7/1
f 43/3/1 39/3/1 42/3/1
f 44/7/1 40/7/1 43/7/1
f 45/3/1 42/3/1 41/3/1
f 45/7/1 43/7/1 42/7/1
f 46/3/1 44/3/1 43/3/1
f 46/7/1 43/7/1 45/7/1
f 47/3/1 45/3/1 41/3/1
f 47/3/1 46/3/1 45/3/1
f 48/3/1 44/3/1 46/3/1
f 48/3/1 46/3/1 47/3/1
f 50/8/1 48/8/1 47/8/1
f 51/8/1 48/8/1 50/8/1
f 53/5/1 50/5/1 49/5/1
f 54/5/1 50/5/1 53/5/1
f 55/5/1 52/5/1 51/5/1
f 56/5/1 52/5/1 55/5/1
f 61/5/1 58/5/1 57/5/1
f 62/2/1 59/2/1 58/2/1
f 62/5/1 58/5/1 61/5/1
f 63/5/1 60/5/1 59/5/1
f 63/2/1 59/2/1 62/2/1
f 64/5/1 60/5/1 63/5/1
f 65/2/1 63/2/1 62/2/1
f 66/2/1 63/2/1 65/2/1
f 69/6/1 68/6/1 67/6/1
f 70/6/1 68/6/1 69/6/1
f 75/8/1 72/8/1 71/8/1
f 76/8/1 72/8/1 75/8/1
f 77/8/1 74/8/1 73/8/1
f 78/8/1 74/8/1 77/8/1
f 79/8/2 80/8/2 83/8/2
f 83/8/2 80/8/2 84/8/2
f 81/8/2 82/8/2 85/8/2
f 85/8/2 82/8/2 86/8/2
f 87/7/2 88/7/2 93/7/2
f 88/3/2 89/3/2 94/3/2
f 93/7/2 88/7/2 94/7/2
f 94/3/2 89/3/2 95/3/2
f 90/3/2 91/3/2 96/3/2
f 91/7/2 92/7/2 97/7/2
f 96/3/2 91/3/2 97/3/2
f 97/7/2 92/7/2 98/7/2
f 93/3/2 94/3/2 99/3/2
f 94/7/2 95/7/2 100/7/2
f 99/3/2 94/3/2 100/3/2
f 95/3/2 89/3/2 101/3/2
f 100/7/2 95/7/2 101/7/2
f 89/7/2 90/7/2 102/7/2
f 101/3/2 89/3/2 102/3/2
f 90/3/2 96/3/2 103/3/2
f 102/7/2 90/7/2 103/7/2
f 96/7/2 97/7/2 104/7/2
f 103/3/2 96/3/2 104/3/2
f 97/3/2 98/3/2 105/3/2
f 104/7/2 97/7/2 105/7/2
f 105/3/2 98/3/2 106/3/2
f 99/7/2 100/7/2 107/7/2
f 101/3/2 102/3/2 108/3/2
f 107/7/2 100/7/2 108/7/2
f 100/3/2 101/3/2 108/3/2
f 102/3/2 103/3/2 108/3/2
f 104/3/2 105/3/2 108/3/2
f 103/3/2 104/3/2 108/3/2
f 108/3/2 105/3/2 109/3/2
f 109/3/2 105/3/2 110/3/2
f 105/7/2 106/7/2 111/7/2
f 110/3/2 105/3/2 111/3/2
f 111/7/2 106/7/2 112/7/2
f 107/8/2 108/8/2 114/8/2
f 108/8/2 109/8/2 114/8/2
f 109/1/2 110/1/2 115/1/2
f 114/8/2 109/8/2 115/8/2
f 111/8/2 112/8/2 116/8/2
f 115/1/2 110/1/2 116/1/2
f 110/8/2 111/8/2 116/8/2
f 116/8/2 112/8/2 117/8/2
f 113/5/2 114/5/2 119/5/2
f 119/5/2 114/5/2 120/5/2
f 117/5/2 118/5/2 121/5/2
f 121/5/2 118/5/2 122/5/2
f 123/2/2 124/2/2 125/2/2
f 125/2/2 124/2/2 126/2/2
f 126/2/2 124/2/2 127/2/2
f 127/2/2 124/2/2 128/2/2
f 125/2/2 126/2/2 129/2/2
f 126/8/2 127/8/2 129/8/2
f 127/2/2 128/2/2 130/2/2
f 129/8/2 127/8/2 130/8/2
f 125/2/2 129/2/2 131/2/2
f 129/2/2 130/2/2 131/2/2
f 131/2/2 130/2/2 132/2/2
f 130/2/2 128/2/2 133/2/2
f 132/2/2 130/2/2 133/2/2
f 133/2/2 128/2/2 134/2/2
f 125/2/2 131/2/2 136/2/2
f 131/8/2 132/8/2 137/8/2
f 136/2/2 131/2/2 137/2/2
f 132/2/2 133/2/2 138/2/2
f 137/8/2 132/8/2 138/8/2
f 133/8/2 134/8/2 139/8/2
f 138/2/2 133/2/2 139/2/2
f 134/2/2 128/2/2 140/2/2
f 139/8/2 134/8/2 140/8/2
f 140/2/2 128/2/2 141/2/2
f 140/2/2 141/2/2 143/2/2
f 135/6/2 136/6/2 143/6/2
f 139/2/2 140/2/2 143/2/2
f 138/2/2 139/2/2 143/2/2
f 137/2/2 138/2/2 143/2/2
f 136/2/2 137/2/2 143/2/2
f 141/6/2 142/6/2 144/6/2
f 143/2/2 141/2/2 144/2/2
f 135/6/2 143/6/2 145/6/2
f 143/6/2 144/6/2 145/6/2
f 145/6/2 144/6/2 146/6/2
f 144/6/2 142/6/2 147/6/2
f 146/6/2 144/6/2 147/6/2
f 147/6/2 142/6/2 148/6/2
f 146/6/2 147/6/2 149/6/2
f 149/6/2 147/6/2 150/6/2
f 150/6/2 147/6/2 151/6/2
f 151/6/2 147/6/2 152/6/2
f 150/6/2 151/6/2 153/6/2
f 153/6/2 151/6/2 154/6/2
f 155/5/2 156/5/2 157/5/2
f 157/5/2 156/5/2 158/5/2
f 158/5/2 156/5/2 159/5/2
f 159/5/2 156/5/2 160/5/2
f 155/5/2 157/5/2 161/5/2
f 158/5/2 159/5/2 162/5/2
f 162/5/2 159/5/2 163/5/2
f 160/5/2 156/5/2 164/5/2
f 162/5/2 163/5/2 165/5/2
f 163/5/2 164/5/2 165/5/2
f 161/5/2 162/5/2 165/5/2
f 164/5/2 156/5/2 166/5/2
f 165/5/2 164/5/2 166/5/2
f 161/5/2 165/5/2 167/5/2
f 167/5/2 165/5/2 168/5/2
f 166/5/2 156/5/2 170/5/2
f 155/5/2 161/5/2 171/5/2
f 161/5/2 167/5/2 171/5/2
f 171/5/2 167/5/2 172/5/2
f 169/5/2 170/5/2 173/5/2
f 170/5/2 156/5/2 174/5/2
f 173/5/2 170/5/2 174/5/2
f 175/8/2 176/8/2 179/8/2
f 179/8/2 176/8/2 180/8/2
f 177/8/2 178/8/2 181/8/2
f 181/8/2 178/8/2 182/8/2
f 183/8/2 184/8/2 185/8/2
f 185/8/2 184/8/2 186/8/2
f 189/8/3 188/8/3 187/8/3
f 190/8/3 188/8/3 189/8/3
f 193/5/3 192/5/3 191/5/3
f 194/5/3 192/5/3 193/5/3
f 195/5/3 193/5/3 191/5/3
f 196/5/3 192/5/3 194/5/3
f 197/5/3 195/5/3 191/5/3
f 197/5/3 196/5/3 195/5/3
f 198/5/3 192/5/3 196/5/3
f 198/5/3 196/5/3 197/5/3
f 206/5/3 200/5/3 199/5/3
f 207/5/3 200/5/3 206/5/3
f 208/5/3 200/5/3 207/5/3
f 210/7/3 204/7/3 203/7/3
f 211/3/3 205/3/3 204/3/3
f 211/7/3 204/7/3 210/7/3
f 212/3/3 205/3/3 211/3/3
f 213/4/3 208/4/3 207/4/3
f 214/4/3 208/4/3 213/4/3
f 215/3/3 211/3/3 210/3/3
f 216/7/3 212/7/3 211/7/3
f 216/3/3 211/3/3 215/3/3
f 217/3/3 205/3/3 212/3/3
f 217/7/3 212/7/3 216/7/3
f 218/3/3 217/3/3 216/3/3
f 218/3/3 205/3/3 217/3/3
f 219/8/3 206/8/3 205/8/3
f 219/3/3 205/3/3 218/3/3
f 220/2/3 214/2/3 213/2/3
f 221/4/3 208/4/3 214/4/3
f 221/2/3 214/2/3 220/2/3
f 222/7/3 216/7/3 215/7/3
f 223/3/3 218/3/3 216/3/3
f 223/7/3 216/7/3 222/7/3
f 224/7/3 219/7/3 218/7/3
f 224/3/3 218/3/3 223/3/3
f 225/8/3 206/8/3 219/8/3
f 225/7/3 219/7/3 224/7/3
f 226/8/3 206/8/3 225/8/3
f 227/4/3 221/4/3 220/4/3
f 228/5/3 209/5/3 208/5/3
f 228/4/3 208/4/3 221/4/3
f 228/4/3 221/4/3 227/4/3
f 229/6/3 202/6/3 201/6/3
f 230/6/3 202/6/3 229/6/3
f 231/5/3 227/5/3 226/5/3
f 231/5/3 228/5/3 227/5/3
f 232/5/3 209/5/3 228/5/3
f 232/5/3 228/5/3 231/5/3
f 235/8/3 234/8/3 233/8/3
f 236/8/3 234/8/3 235/8/3
f 239/6/3 238/6/3 237/6/3
f 240/6/3 238/6/3 239/6/3
f 243/8/3 242/8/3 241/8/3
f 244/8/3 242/8/3 243/8/3
f 249/2/3 246/2/3 245/2/3
f 250/2/3 246/2/3 249/2/3
f 251/6/3 248/6/3 247/6/3
f 252/6/3 248/6/3 251/6/3
f 255/8/3 254/8/3 253/8/3
f 256/8/3 254/8/3 255/8/3
f 259/8/3 258/8/3 257/8/3
f 260/8/3 258/8/3 259/8/3
f 263/8/3 262/8/3 261/8/3
f 264/8/3 262/8/3 263/8/3
f 267/8/3 266/8/3 265/8/3
f 268/8/3 266/8/3 267/8/3
f 271/5/3 270/5/3 269/5/3
f 272/5/3 270/5/3 271/5/3
f 273/5/4 274/5/4 275/5/4
f 275/5/4 274/5/4 276/5/4
f 277/8/4 278/8/4 279/8/4
f 279/8/4 278/8/4 280/8/4
f 281/8/4 282/8/4 283/8/4
f 283/8/4 282/8/4 284/8/4
f 285/8/4 286/8/4 287/8/4
f 287/8/4 286/8/4 288/8/4
f 289/2/4 290/2/4 293/2/4
f 293/2/4 290/2/4 294/2/4
f 291/6/4 292/6/4 295/6/4
f 295/6/4 292/6/4 296/6/4
f 297/8/4 298/8/4 299/8/4
f 299/8/4 298/8/4 300/8/4
f 301/6/4 302/6/4 303/6/4
f 303/6/4 302/6/4 304/6/4
f 305/8/4 306/8/4 309/8/4
f 309/8/4 306/8/4 310/8/4
f 307/8/4 308/8/4 311/8/4
f 311/8/4 308/8/4 312/8/4
f 313/5/4 314/5/4 320/5/4
f 320/5/4 314/5/4 321/5/4
f 321/5/4 314/5/4 322/5/4
f 317/7/4 318/7/4 324/7/4
f 318/3/4 319/3/4 325/3/4
f 324/7/4 318/7/4 325/7/4
f 325/3/4 319/3/4 326/3/4
f 321/4/4 322/4/4 327/4/4
f 327/4/4 322/4/4 328/4/4
f 324/3/4 325/3/4 329/3/4
f 325/7/4 326/7/4 330/7/4
f 329/3/4 325/3/4 330/3/4
f 326/3/4 319/3/4 331/3/4
f 330/7/4 326/7/4 331/7/4
f 330/3/4 331/3/4 332/3/4
f 331/3/4 319/3/4 332/3/4
f 319/8/4 320/8/4 333/8/4
f 332/3/4 319/3/4 333/3/4
f 327/2/4 328/2/4 334/2/4
f 328/4/4 322/4/4 335/4/4
f 334/2/4 328/2/4 335/2/4
f 329/7/4 330/7/4 336/7/4
f 330/3/4 332/3/4 337/3/4
f 336/7/4 330/7/4 337/7/4
f 332/7/4 333/7/4 338/7/4
f 337/3/4 332/3/4 338/3/4
f 333/8/4 320/8/4 339/8/4
f 338/7/4 333/7/4 339/7/4
f 339/8/4 320/8/4 340/8/4
f 334/4/4 335/4/4 341/4/4
f 322/5/4 323/5/4 342/5/4
f 335/4/4 322/4/4 342/4/4
f 341/4/4 335/4/4 342/4/4
f 315/6/4 316/6/4 343/6/4
f 343/6/4 316/6/4 344/6/4
f 340/5/4 341/5/4 345/5/4
f 341/5/4 342/5/4 345/5/4
f 342/5/4 323/5/4 346/5/4
f 345/5/4 342/5/4 346/5/4
f 347/5/4 348/5/4 349/5/4
f 349/5/4 348/5/4 350/5/4
f 347/5/4 349/5/4 351/5/4
f 350/5/4 348/5/4 352/5/4
f 347/5/4 351/5/4 353/5/4
f 351/5/4 352/5/4 353/5/4
f 352/5/4 348/5/4 354/5/4
f 353/5/4 352/5/4 354/5/4
f 355/8/4 356/8/4 357/8/4
f 357/8/4 356/8/4 358/8/4
f 363/7/5 360/7/5 359/7/5
f 364/3/5 361/3/5 360/3/5
f 364/7/5 360/7/5 363/7/5
f 365/7/5 362/7/5 361/7/5
f 365/3/5 361/3/5 364/3/5
f 366/7/5 362/7/5 365/7/5
f 367/3/5 364/3/5 363/3/5
f 367/3/5 365/3/5 364/3/5
f 367/3/5 366/3/5 365/3/5
f 368/3/5 366/3/5 367/3/5
f 369/3/5 367/3/5 363/3/5
f 369/7/5 368/7/5 367/7/5
f 370/7/5 368/7/5 369/7/5
f 371/3/5 369/3/5 363/3/5
f 371/3/5 370/3/5 369/3/5
f 372/3/5 370/3/5 371/3/5
f 373/3/5 370/3/5 372/3/5
f 374/3/5 370/3/5 373/3/5
f 375/7/5 372/7/5 371/7/5
f 376/3/5 373/3/5 372/3/5
f 376/7/5 372/7/5 375/7/5
f 377/7/5 374/7/5 373/7/5
f 377/3/5 373/3/5 376/3/5
f 378/7/5 374/7/5 377/7/5
f 382/5/5 380/5/5 379/5/5
f 383/5/5 380/5/5 382/5/5
f 385/5/5 384/5/5 383/5/5
f 386/5/5 384/5/5 385/5/5
f 387/5/5 382/5/5 381/5/5
f 388/5/5 382/5/5 387/5/5
f 389/5/5 384/5/5 386/5/5
f 390/5/5 384/5/5 389/5/5
f 391/5/5 389/5/5 388/5/5
f 392/5/5 389/5/5 391/5/5
f 395/8/5 394/8/5 393/8/5
f 396/8/5 394/8/5 395/8/5
f 401/8/5 398/8/5 397/8/5
f 402/8/5 398/8/5 401/8/5
f 403/8/5 400/8/5 399/8/5
f 404/8/5 400/8/5 403/8/5
f 407/8/5 406/8/5 405/8/5
f 408/8/5 406/8/5 407/8/5
f 413/8/5 410/8/5 409/8/5
f 414/8/5 410/8/5 413/8/5
f 415/8/5 412/8/5 411/8/5
f 416/8/5 412/8/5 415/8/5
f 419/8/5 418/8/5 417/8/5
f 420/8/5 418/8/5 419/8/5
f 423/8/5 422/8/5 421/8/5
f 424/8/5 422/8/5 423/8/5
f 427/6/5 426/6/5 425/6/5
f 428/6/5 426/6/5 427/6/5
f 429/6/5 427/6/5 425/6/5
f 431/6/5 429/6/5 425/6/5
f 431/6/5 430/6/5 429/6/5
f 432/6/5 430/6/5 431/6/5
f 433/8/6 434/8/6 435/8/6
f 435/8/6 434/8/6 436/8/6
f 437/8/6 438/8/6 441/8/6
f 441/8/6 438/8/6 442/8/6
f 439/8/6 440/8/6 443/8/6
f 443/8/6 440/8/6 444/8/6
f 445/8/6 446/8/6 447/8/6
f 447/8/6 446/8/6 448/8/6
f 449/8/6 450/8/6 453/8/6
f 453/8/6 450/8/6 454/8/6
f 451/8/6 452/8/6 455/8/6
f 455/8/6 452/8/6 456/8/6
f 457/8/6 458/8/6 459/8/6
f 459/8/6 458/8/6 460/8/6
f 461/5/6 462/5/6 463/5/6
f 463/5/6 462/5/6 464/5/6
f 464/5/6 462/5/6 465/5/6
f 465/5/6 462/5/6 466/5/6
f 467/5/6 468/5/6 471/5/6
f 469/5/6 470/5/6 471/5/6
f 468/5/6 469/5/6 471/5/6
f 471/5/6 470/5/6 472/5/6
f 473/5/6 474/5/6 475/5/6
f 473/5/6 475/5/6 477/5/6
f 475/8/6 476/8/6 478/8/6
f 477/5/6 475/5/6 478/5/6
f 478/8/6 476/8/6 479/8/6
f 479/8/6 476/8/6 480/8/6
f 481/5/6 482/5/6 483/5/6
f 481/5/6 483/5/6 484/5/6
f 481/5/6 484/5/6 485/5/6
f 485/5/6 484/5/6 486/5/6
f 487/5/6 488/5/6 489/5/6
f 489/5/6 488/5/6 490/5/6
f 490/5/6 488/5/6 491/5/6
f 492/5/6 493/5/6 495/5/6
f 493/5/6 494/5/6 495/5/6
f 495/5/6 494/5/6 496/5/6
f 497/6/6 498/6/6 499/6/6
f 499/6/6 498/6/6 500/6/6
f 501/6/6 502/6/6 503/6/6
f 503/6/6 502/6/6 504/6/6
f 505/6/6 506/6/6 507/6/6
f 507/6/6 506/6/6 508/6/6
f 505/6/6 507/6/6 509/6/6
f 505/6/6 509/6/6 511/6/6
f 509/6/6 510/6/6 511/6/6
f 511/6/6 510/6/6 512/6/6
f 513/6/6 514/6/6 515/6/6
f 515/6/6 514/6/6 516/6/6
