# MagicaVoxel @ Ephtracy

# group
g armyguy4body

# material
mtllib armyguy4body.mtl
usemtl palette

# normals
vn -1 0 0
vn 1 0 0
vn 0 0 1
vn 0 0 -1
vn 0 -1 0
vn 0 1 0

# texcoords
vt 0.0136719 0.5
vt 0.0605469 0.5
vt 0.677734 0.5
vt 0.791016 0.5
vt 0.912109 0.5
vt 0.990234 0.5
vt 0.994141 0.5

# verts
v -6 19 4
v -6 19 2
v -6 19 1
v -6 19 -1
v -6 19 -2
v -6 19 -4
v -6 23 4
v -6 23 2
v -6 23 1
v -6 23 -1
v -6 23 -2
v -6 23 -4
v -5 17 5
v -5 17 -5
v -5 19 4
v -5 19 2
v -5 19 1
v -5 19 -1
v -5 19 -2
v -5 19 -4
v -5 23 4
v -5 23 2
v -5 23 1
v -5 23 -1
v -5 23 -2
v -5 23 -4
v -5 28 5
v -5 28 -5
v -5 32 5
v -5 32 -5
v -5 35 5
v -5 35 4
v -5 35 -4
v -5 35 -5
v -5 36 4
v -5 36 -4
v -4 12 5
v -4 12 4
v -4 12 -4
v -4 12 -5
v -4 13 5
v -4 13 4
v -4 13 -4
v -4 13 -5
v -4 14 4
v -4 14 -4
v -4 15 5
v -4 15 -5
v -4 17 6
v -4 17 5
v -4 17 -5
v -4 17 -6
v -4 24 6
v -4 24 5
v -4 24 -5
v -4 24 -6
v -4 28 5
v -4 28 3
v -4 28 -3
v -4 28 -5
v -4 29 5
v -4 29 3
v -4 29 -3
v -4 29 -5
v -4 32 3
v -4 32 -3
v -4 36 3
v -4 36 -3
v -4 37 3
v -4 37 -3
v -3 19 7
v -3 19 6
v -3 19 -6
v -3 19 -7
v -3 23 7
v -3 23 6
v -3 23 -6
v -3 23 -7
v -1 19 7
v -1 19 6
v -1 19 -6
v -1 19 -7
v -1 23 7
v -1 23 6
v -1 23 -6
v -1 23 -7
v 0 12 5
v 0 12 4
v 0 12 1
v 0 12 -1
v 0 12 -4
v 0 12 -5
v 0 13 5
v 0 13 4
v 0 13 2
v 0 13 -2
v 0 13 -4
v 0 13 -5
v 0 14 5
v 0 14 4
v 0 14 2
v 0 14 1
v 0 14 -1
v 0 14 -2
v 0 14 -4
v 0 14 -5
v 0 15 5
v 0 15 4
v 0 15 1
v 0 15 -1
v 0 15 -4
v 0 15 -5
v 0 17 6
v 0 17 5
v 0 17 1
v 0 17 -1
v 0 17 -5
v 0 17 -6
v 0 24 6
v 0 24 5
v 0 24 -5
v 0 24 -6
v 0 27 3
v 0 27 -3
v 0 29 3
v 0 29 1
v 0 29 -1
v 0 29 -3
v 0 30 1
v 0 30 -1
v 0 31 2
v 0 31 1
v 0 31 -1
v 0 31 -2
v 0 32 5
v 0 32 3
v 0 32 2
v 0 32 1
v 0 32 -1
v 0 32 -2
v 0 32 -3
v 0 32 -5
v 0 34 3
v 0 34 -3
v 0 35 5
v 0 35 4
v 0 35 -4
v 0 35 -5
v 0 36 4
v 0 36 3
v 0 36 -3
v 0 36 -4
v 0 37 3
v 0 37 -3
v 1 17 5
v 1 17 -5
v 1 19 4
v 1 19 2
v 1 19 -2
v 1 19 -4
v 1 23 4
v 1 23 2
v 1 23 -2
v 1 23 -4
v 1 25 -1
v 1 25 -4
v 1 27 3
v 1 27 -1
v 1 27 -3
v 1 27 -4
v 1 29 5
v 1 29 3
v 1 29 -3
v 1 29 -5
v 2 19 4
v 2 19 2
v 2 19 -2
v 2 19 -4
v 2 23 4
v 2 23 2
v 2 23 -2
v 2 23 -4
v 2 25 -1
v 2 25 -4
v 2 27 -1
v 2 27 -4
v -3 19 7
v -3 23 7
v -1 19 7
v -1 23 7
v -4 17 6
v -4 24 6
v -3 19 6
v -3 23 6
v -1 19 6
v -1 23 6
v 0 17 6
v 0 24 6
v -5 17 5
v -5 28 5
v -5 32 5
v -5 35 5
v -4 12 5
v -4 13 5
v -4 15 5
v -4 17 5
v -4 24 5
v -4 28 5
v -4 29 5
v -3 12 5
v -3 13 5
v -3 14 5
v -3 24 5
v -3 27 5
v -2 12 5
v -2 13 5
v -2 14 5
v -1 14 5
v -1 15 5
v -1 24 5
v -1 27 5
v 0 12 5
v 0 13 5
v 0 14 5
v 0 15 5
v 0 17 5
v 0 24 5
v 0 28 5
v 0 32 5
v 0 35 5
v 1 17 5
v 1 29 5
v -6 19 4
v -6 23 4
v -5 19 4
v -5 23 4
v -5 35 4
v -5 36 4
v 0 35 4
v 0 36 4
v 1 19 4
v 1 23 4
v 2 19 4
v 2 23 4
v -4 29 3
v -4 32 3
v -4 36 3
v -4 37 3
v 0 29 3
v 0 32 3
v 0 36 3
v 0 37 3
v -6 19 1
v -6 23 1
v -5 19 1
v -5 23 1
v 1 25 -1
v 1 27 -1
v 2 25 -1
v 2 27 -1
v -6 19 -2
v -6 23 -2
v -5 19 -2
v -5 23 -2
v 1 19 -2
v 1 23 -2
v 2 19 -2
v 2 23 -2
v 0 27 -3
v 0 29 -3
v 1 27 -3
v 1 29 -3
v 0 27 3
v 0 29 3
v 1 27 3
v 1 29 3
v -6 19 2
v -6 23 2
v -5 19 2
v -5 23 2
v 1 19 2
v 1 23 2
v 2 19 2
v 2 23 2
v -6 19 -1
v -6 23 -1
v -5 19 -1
v -5 23 -1
v -4 29 -3
v -4 32 -3
v -4 36 -3
v -4 37 -3
v 0 29 -3
v 0 32 -3
v 0 36 -3
v 0 37 -3
v -6 19 -4
v -6 23 -4
v -5 19 -4
v -5 23 -4
v -5 35 -4
v -5 36 -4
v 0 35 -4
v 0 36 -4
v 1 19 -4
v 1 23 -4
v 1 25 -4
v 1 27 -4
v 2 19 -4
v 2 23 -4
v 2 25 -4
v 2 27 -4
v -5 17 -5
v -5 28 -5
v -5 32 -5
v -5 35 -5
v -4 12 -5
v -4 13 -5
v -4 15 -5
v -4 17 -5
v -4 24 -5
v -4 28 -5
v -4 29 -5
v -3 12 -5
v -3 13 -5
v -3 14 -5
v -3 24 -5
v -3 27 -5
v -2 12 -5
v -2 13 -5
v -2 14 -5
v -1 14 -5
v -1 15 -5
v -1 24 -5
v -1 27 -5
v 0 12 -5
v 0 13 -5
v 0 14 -5
v 0 15 -5
v 0 17 -5
v 0 24 -5
v 0 28 -5
v 0 32 -5
v 0 35 -5
v 1 17 -5
v 1 29 -5
v -4 17 -6
v -4 24 -6
v -3 19 -6
v -3 23 -6
v -1 19 -6
v -1 23 -6
v 0 17 -6
v 0 24 -6
v -3 19 -7
v -3 23 -7
v -1 19 -7
v -1 23 -7
v -4 12 5
v -3 12 5
v -2 12 5
v 0 12 5
v -4 12 4
v -3 12 4
v -2 12 4
v 0 12 4
v -1 12 1
v 0 12 1
v -1 12 -1
v 0 12 -1
v -4 12 -4
v -3 12 -4
v -2 12 -4
v 0 12 -4
v -4 12 -5
v -3 12 -5
v -2 12 -5
v 0 12 -5
v -4 17 6
v 0 17 6
v -5 17 5
v -4 17 5
v 0 17 5
v 1 17 5
v 0 17 1
v 0 17 -1
v -5 17 -5
v -4 17 -5
v 0 17 -5
v 1 17 -5
v -4 17 -6
v 0 17 -6
v -3 19 7
v -1 19 7
v -3 19 6
v -1 19 6
v -6 19 4
v -5 19 4
v 1 19 4
v 2 19 4
v -6 19 2
v -5 19 2
v 1 19 2
v 2 19 2
v -6 19 1
v -5 19 1
v -6 19 -1
v -5 19 -1
v -6 19 -2
v -5 19 -2
v 1 19 -2
v 2 19 -2
v -6 19 -4
v -5 19 -4
v 1 19 -4
v 2 19 -4
v -3 19 -6
v -1 19 -6
v -3 19 -7
v -1 19 -7
v 1 25 -1
v 2 25 -1
v 1 25 -4
v 2 25 -4
v -5 32 5
v 0 32 5
v -4 32 3
v 0 32 3
v -4 32 -3
v 0 32 -3
v -5 32 -5
v 0 32 -5
v -3 23 7
v -1 23 7
v -3 23 6
v -1 23 6
v -6 23 4
v -5 23 4
v 1 23 4
v 2 23 4
v -6 23 2
v -5 23 2
v 1 23 2
v 2 23 2
v -6 23 1
v -5 23 1
v -6 23 -1
v -5 23 -1
v -6 23 -2
v -5 23 -2
v 1 23 -2
v 2 23 -2
v -6 23 -4
v -5 23 -4
v 1 23 -4
v 2 23 -4
v -3 23 -6
v -1 23 -6
v -3 23 -7
v -1 23 -7
v -4 24 6
v 0 24 6
v -4 24 5
v -3 24 5
v -1 24 5
v 0 24 5
v -4 24 -5
v -3 24 -5
v -1 24 -5
v 0 24 -5
v -4 24 -6
v 0 24 -6
v 0 27 3
v 1 27 3
v 1 27 -1
v 2 27 -1
v 0 27 -3
v 1 27 -3
v 1 27 -4
v 2 27 -4
v -5 28 5
v -4 28 5
v -4 28 3
v -4 28 -3
v -5 28 -5
v -4 28 -5
v -4 29 5
v 1 29 5
v -4 29 3
v 0 29 3
v 1 29 3
v -4 29 -3
v 0 29 -3
v 1 29 -3
v -4 29 -5
v 1 29 -5
v -5 35 5
v 0 35 5
v -5 35 4
v 0 35 4
v -5 35 -4
v 0 35 -4
v -5 35 -5
v 0 35 -5
v -5 36 4
v 0 36 4
v -4 36 3
v 0 36 3
v -4 36 -3
v 0 36 -3
v -5 36 -4
v 0 36 -4
v -4 37 3
v 0 37 3
v -4 37 -3
v 0 37 -3

# faces
f 7/7/1 2/7/1 1/7/1
f 8/7/1 2/7/1 7/7/1
f 9/7/1 4/7/1 3/7/1
f 10/7/1 4/7/1 9/7/1
f 11/7/1 6/7/1 5/7/1
f 12/7/1 6/7/1 11/7/1
f 15/5/1 14/5/1 13/5/1
f 16/5/1 14/5/1 15/5/1
f 17/5/1 14/5/1 16/5/1
f 18/5/1 14/5/1 17/5/1
f 19/5/1 14/5/1 18/5/1
f 20/5/1 14/5/1 19/5/1
f 21/5/1 15/5/1 13/5/1
f 22/5/1 17/5/1 16/5/1
f 23/5/1 17/5/1 22/5/1
f 24/5/1 19/5/1 18/5/1
f 25/5/1 19/5/1 24/5/1
f 26/5/1 14/5/1 20/5/1
f 27/5/1 25/5/1 24/5/1
f 27/5/1 26/5/1 25/5/1
f 27/5/1 23/5/1 22/5/1
f 27/5/1 21/5/1 13/5/1
f 27/5/1 24/5/1 23/5/1
f 27/5/1 22/5/1 21/5/1
f 28/5/1 14/5/1 26/5/1
f 28/5/1 26/5/1 27/5/1
f 31/3/1 30/3/1 29/3/1
f 32/3/1 30/3/1 31/3/1
f 33/3/1 30/3/1 32/3/1
f 34/3/1 30/3/1 33/3/1
f 35/3/1 33/3/1 32/3/1
f 36/3/1 33/3/1 35/3/1
f 41/6/1 38/6/1 37/6/1
f 42/3/1 39/3/1 38/3/1
f 42/6/1 38/6/1 41/6/1
f 43/6/1 40/6/1 39/6/1
f 43/3/1 39/3/1 42/3/1
f 44/6/1 40/6/1 43/6/1
f 45/3/1 42/3/1 41/3/1
f 45/6/1 43/6/1 42/6/1
f 46/3/1 44/3/1 43/3/1
f 46/6/1 43/6/1 45/6/1
f 47/3/1 45/3/1 41/3/1
f 47/3/1 46/3/1 45/3/1
f 48/3/1 44/3/1 46/3/1
f 48/3/1 46/3/1 47/3/1
f 50/7/1 48/7/1 47/7/1
f 51/7/1 48/7/1 50/7/1
f 53/5/1 50/5/1 49/5/1
f 54/5/1 50/5/1 53/5/1
f 55/5/1 52/5/1 51/5/1
f 56/5/1 52/5/1 55/5/1
f 61/5/1 58/5/1 57/5/1
f 62/2/1 59/2/1 58/2/1
f 62/5/1 58/5/1 61/5/1
f 63/5/1 60/5/1 59/5/1
f 63/2/1 59/2/1 62/2/1
f 64/5/1 60/5/1 63/5/1
f 65/2/1 63/2/1 62/2/1
f 66/2/1 63/2/1 65/2/1
f 69/3/1 68/3/1 67/3/1
f 70/3/1 68/3/1 69/3/1
f 75/7/1 72/7/1 71/7/1
f 76/7/1 72/7/1 75/7/1
f 77/7/1 74/7/1 73/7/1
f 78/7/1 74/7/1 77/7/1
f 79/7/2 80/7/2 83/7/2
f 83/7/2 80/7/2 84/7/2
f 81/7/2 82/7/2 85/7/2
f 85/7/2 82/7/2 86/7/2
f 87/6/2 88/6/2 93/6/2
f 88/3/2 89/3/2 94/3/2
f 93/6/2 88/6/2 94/6/2
f 94/3/2 89/3/2 95/3/2
f 90/3/2 91/3/2 96/3/2
f 91/6/2 92/6/2 97/6/2
f 96/3/2 91/3/2 97/3/2
f 97/6/2 92/6/2 98/6/2
f 93/3/2 94/3/2 99/3/2
f 94/6/2 95/6/2 100/6/2
f 99/3/2 94/3/2 100/3/2
f 95/3/2 89/3/2 101/3/2
f 100/6/2 95/6/2 101/6/2
f 89/6/2 90/6/2 102/6/2
f 101/3/2 89/3/2 102/3/2
f 90/3/2 96/3/2 103/3/2
f 102/6/2 90/6/2 103/6/2
f 96/6/2 97/6/2 104/6/2
f 103/3/2 96/3/2 104/3/2
f 97/3/2 98/3/2 105/3/2
f 104/6/2 97/6/2 105/6/2
f 105/3/2 98/3/2 106/3/2
f 99/6/2 100/6/2 107/6/2
f 101/3/2 102/3/2 108/3/2
f 107/6/2 100/6/2 108/6/2
f 100/3/2 101/3/2 108/3/2
f 102/3/2 103/3/2 108/3/2
f 104/3/2 105/3/2 108/3/2
f 103/3/2 104/3/2 108/3/2
f 108/3/2 105/3/2 109/3/2
f 109/3/2 105/3/2 110/3/2
f 105/6/2 106/6/2 111/6/2
f 110/3/2 105/3/2 111/3/2
f 111/6/2 106/6/2 112/6/2
f 107/7/2 108/7/2 114/7/2
f 108/7/2 109/7/2 114/7/2
f 109/1/2 110/1/2 115/1/2
f 114/7/2 109/7/2 115/7/2
f 111/7/2 112/7/2 116/7/2
f 115/1/2 110/1/2 116/1/2
f 110/7/2 111/7/2 116/7/2
f 116/7/2 112/7/2 117/7/2
f 113/5/2 114/5/2 119/5/2
f 119/5/2 114/5/2 120/5/2
f 117/5/2 118/5/2 121/5/2
f 121/5/2 118/5/2 122/5/2
f 123/2/2 124/2/2 125/2/2
f 125/2/2 124/2/2 126/2/2
f 126/2/2 124/2/2 127/2/2
f 127/2/2 124/2/2 128/2/2
f 125/2/2 126/2/2 129/2/2
f 126/7/2 127/7/2 129/7/2
f 127/2/2 128/2/2 130/2/2
f 129/7/2 127/7/2 130/7/2
f 125/2/2 129/2/2 131/2/2
f 129/2/2 130/2/2 131/2/2
f 131/2/2 130/2/2 132/2/2
f 130/2/2 128/2/2 133/2/2
f 132/2/2 130/2/2 133/2/2
f 133/2/2 128/2/2 134/2/2
f 125/2/2 131/2/2 136/2/2
f 131/7/2 132/7/2 137/7/2
f 136/2/2 131/2/2 137/2/2
f 132/2/2 133/2/2 138/2/2
f 137/7/2 132/7/2 138/7/2
f 133/7/2 134/7/2 139/7/2
f 138/2/2 133/2/2 139/2/2
f 134/2/2 128/2/2 140/2/2
f 139/7/2 134/7/2 140/7/2
f 140/2/2 128/2/2 141/2/2
f 140/2/2 141/2/2 143/2/2
f 135/3/2 136/3/2 143/3/2
f 139/2/2 140/2/2 143/2/2
f 138/2/2 139/2/2 143/2/2
f 137/2/2 138/2/2 143/2/2
f 136/2/2 137/2/2 143/2/2
f 141/3/2 142/3/2 144/3/2
f 143/2/2 141/2/2 144/2/2
f 135/3/2 143/3/2 145/3/2
f 143/3/2 144/3/2 145/3/2
f 145/3/2 144/3/2 146/3/2
f 144/3/2 142/3/2 147/3/2
f 146/3/2 144/3/2 147/3/2
f 147/3/2 142/3/2 148/3/2
f 146/3/2 147/3/2 149/3/2
f 149/3/2 147/3/2 150/3/2
f 150/3/2 147/3/2 151/3/2
f 151/3/2 147/3/2 152/3/2
f 150/3/2 151/3/2 153/3/2
f 153/3/2 151/3/2 154/3/2
f 155/5/2 156/5/2 157/5/2
f 157/5/2 156/5/2 158/5/2
f 158/5/2 156/5/2 159/5/2
f 159/5/2 156/5/2 160/5/2
f 155/5/2 157/5/2 161/5/2
f 158/5/2 159/5/2 162/5/2
f 162/5/2 159/5/2 163/5/2
f 160/5/2 156/5/2 164/5/2
f 162/5/2 163/5/2 165/5/2
f 163/5/2 164/5/2 165/5/2
f 161/5/2 162/5/2 165/5/2
f 164/5/2 156/5/2 166/5/2
f 165/5/2 164/5/2 166/5/2
f 161/5/2 165/5/2 167/5/2
f 167/5/2 165/5/2 168/5/2
f 166/5/2 156/5/2 170/5/2
f 155/5/2 161/5/2 171/5/2
f 161/5/2 167/5/2 171/5/2
f 171/5/2 167/5/2 172/5/2
f 169/5/2 170/5/2 173/5/2
f 170/5/2 156/5/2 174/5/2
f 173/5/2 170/5/2 174/5/2
f 175/7/2 176/7/2 179/7/2
f 179/7/2 176/7/2 180/7/2
f 177/7/2 178/7/2 181/7/2
f 181/7/2 178/7/2 182/7/2
f 183/7/2 184/7/2 185/7/2
f 185/7/2 184/7/2 186/7/2
f 189/7/3 188/7/3 187/7/3
f 190/7/3 188/7/3 189/7/3
f 193/5/3 192/5/3 191/5/3
f 194/5/3 192/5/3 193/5/3
f 195/5/3 193/5/3 191/5/3
f 196/5/3 192/5/3 194/5/3
f 197/5/3 195/5/3 191/5/3
f 197/5/3 196/5/3 195/5/3
f 198/5/3 192/5/3 196/5/3
f 198/5/3 196/5/3 197/5/3
f 206/5/3 200/5/3 199/5/3
f 207/5/3 200/5/3 206/5/3
f 208/5/3 200/5/3 207/5/3
f 210/6/3 204/6/3 203/6/3
f 211/3/3 205/3/3 204/3/3
f 211/6/3 204/6/3 210/6/3
f 212/3/3 205/3/3 211/3/3
f 213/4/3 208/4/3 207/4/3
f 214/4/3 208/4/3 213/4/3
f 215/3/3 211/3/3 210/3/3
f 216/6/3 212/6/3 211/6/3
f 216/3/3 211/3/3 215/3/3
f 217/3/3 205/3/3 212/3/3
f 217/6/3 212/6/3 216/6/3
f 218/3/3 217/3/3 216/3/3
f 218/3/3 205/3/3 217/3/3
f 219/7/3 206/7/3 205/7/3
f 219/3/3 205/3/3 218/3/3
f 220/2/3 214/2/3 213/2/3
f 221/4/3 208/4/3 214/4/3
f 221/2/3 214/2/3 220/2/3
f 222/6/3 216/6/3 215/6/3
f 223/3/3 218/3/3 216/3/3
f 223/6/3 216/6/3 222/6/3
f 224/6/3 219/6/3 218/6/3
f 224/3/3 218/3/3 223/3/3
f 225/7/3 206/7/3 219/7/3
f 225/6/3 219/6/3 224/6/3
f 226/7/3 206/7/3 225/7/3
f 227/4/3 221/4/3 220/4/3
f 228/5/3 209/5/3 208/5/3
f 228/4/3 208/4/3 221/4/3
f 228/4/3 221/4/3 227/4/3
f 229/3/3 202/3/3 201/3/3
f 230/3/3 202/3/3 229/3/3
f 231/5/3 227/5/3 226/5/3
f 231/5/3 228/5/3 227/5/3
f 232/5/3 209/5/3 228/5/3
f 232/5/3 228/5/3 231/5/3
f 235/7/3 234/7/3 233/7/3
f 236/7/3 234/7/3 235/7/3
f 239/3/3 238/3/3 237/3/3
f 240/3/3 238/3/3 239/3/3
f 243/7/3 242/7/3 241/7/3
f 244/7/3 242/7/3 243/7/3
f 249/2/3 246/2/3 245/2/3
f 250/2/3 246/2/3 249/2/3
f 251/3/3 248/3/3 247/3/3
f 252/3/3 248/3/3 251/3/3
f 255/7/3 254/7/3 253/7/3
f 256/7/3 254/7/3 255/7/3
f 259/7/3 258/7/3 257/7/3
f 260/7/3 258/7/3 259/7/3
f 263/7/3 262/7/3 261/7/3
f 264/7/3 262/7/3 263/7/3
f 267/7/3 266/7/3 265/7/3
f 268/7/3 266/7/3 267/7/3
f 271/5/3 270/5/3 269/5/3
f 272/5/3 270/5/3 271/5/3
f 273/5/4 274/5/4 275/5/4
f 275/5/4 274/5/4 276/5/4
f 277/7/4 278/7/4 279/7/4
f 279/7/4 278/7/4 280/7/4
f 281/7/4 282/7/4 283/7/4
f 283/7/4 282/7/4 284/7/4
f 285/7/4 286/7/4 287/7/4
f 287/7/4 286/7/4 288/7/4
f 289/2/4 290/2/4 293/2/4
f 293/2/4 290/2/4 294/2/4
f 291/3/4 292/3/4 295/3/4
f 295/3/4 292/3/4 296/3/4
f 297/7/4 298/7/4 299/7/4
f 299/7/4 298/7/4 300/7/4
f 301/3/4 302/3/4 303/3/4
f 303/3/4 302/3/4 304/3/4
f 305/7/4 306/7/4 309/7/4
f 309/7/4 306/7/4 310/7/4
f 307/7/4 308/7/4 311/7/4
f 311/7/4 308/7/4 312/7/4
f 313/5/4 314/5/4 320/5/4
f 320/5/4 314/5/4 321/5/4
f 321/5/4 314/5/4 322/5/4
f 317/6/4 318/6/4 324/6/4
f 318/3/4 319/3/4 325/3/4
f 324/6/4 318/6/4 325/6/4
f 325/3/4 319/3/4 326/3/4
f 321/4/4 322/4/4 327/4/4
f 327/4/4 322/4/4 328/4/4
f 324/3/4 325/3/4 329/3/4
f 325/6/4 326/6/4 330/6/4
f 329/3/4 325/3/4 330/3/4
f 326/3/4 319/3/4 331/3/4
f 330/6/4 326/6/4 331/6/4
f 330/3/4 331/3/4 332/3/4
f 331/3/4 319/3/4 332/3/4
f 319/7/4 320/7/4 333/7/4
f 332/3/4 319/3/4 333/3/4
f 327/2/4 328/2/4 334/2/4
f 328/4/4 322/4/4 335/4/4
f 334/2/4 328/2/4 335/2/4
f 329/6/4 330/6/4 336/6/4
f 330/3/4 332/3/4 337/3/4
f 336/6/4 330/6/4 337/6/4
f 332/6/4 333/6/4 338/6/4
f 337/3/4 332/3/4 338/3/4
f 333/7/4 320/7/4 339/7/4
f 338/6/4 333/6/4 339/6/4
f 339/7/4 320/7/4 340/7/4
f 334/4/4 335/4/4 341/4/4
f 322/5/4 323/5/4 342/5/4
f 335/4/4 322/4/4 342/4/4
f 341/4/4 335/4/4 342/4/4
f 315/3/4 316/3/4 343/3/4
f 343/3/4 316/3/4 344/3/4
f 340/5/4 341/5/4 345/5/4
f 341/5/4 342/5/4 345/5/4
f 342/5/4 323/5/4 346/5/4
f 345/5/4 342/5/4 346/5/4
f 347/5/4 348/5/4 349/5/4
f 349/5/4 348/5/4 350/5/4
f 347/5/4 349/5/4 351/5/4
f 350/5/4 348/5/4 352/5/4
f 347/5/4 351/5/4 353/5/4
f 351/5/4 352/5/4 353/5/4
f 352/5/4 348/5/4 354/5/4
f 353/5/4 352/5/4 354/5/4
f 355/7/4 356/7/4 357/7/4
f 357/7/4 356/7/4 358/7/4
f 363/6/5 360/6/5 359/6/5
f 364/3/5 361/3/5 360/3/5
f 364/6/5 360/6/5 363/6/5
f 365/6/5 362/6/5 361/6/5
f 365/3/5 361/3/5 364/3/5
f 366/6/5 362/6/5 365/6/5
f 367/3/5 364/3/5 363/3/5
f 367/3/5 365/3/5 364/3/5
f 367/3/5 366/3/5 365/3/5
f 368/3/5 366/3/5 367/3/5
f 369/3/5 367/3/5 363/3/5
f 369/6/5 368/6/5 367/6/5
f 370/6/5 368/6/5 369/6/5
f 371/3/5 369/3/5 363/3/5
f 371/3/5 370/3/5 369/3/5
f 372/3/5 370/3/5 371/3/5
f 373/3/5 370/3/5 372/3/5
f 374/3/5 370/3/5 373/3/5
f 375/6/5 372/6/5 371/6/5
f 376/3/5 373/3/5 372/3/5
f 376/6/5 372/6/5 375/6/5
f 377/6/5 374/6/5 373/6/5
f 377/3/5 373/3/5 376/3/5
f 378/6/5 374/6/5 377/6/5
f 382/5/5 380/5/5 379/5/5
f 383/5/5 380/5/5 382/5/5
f 385/5/5 384/5/5 383/5/5
f 386/5/5 384/5/5 385/5/5
f 387/5/5 382/5/5 381/5/5
f 388/5/5 382/5/5 387/5/5
f 389/5/5 384/5/5 386/5/5
f 390/5/5 384/5/5 389/5/5
f 391/5/5 389/5/5 388/5/5
f 392/5/5 389/5/5 391/5/5
f 395/7/5 394/7/5 393/7/5
f 396/7/5 394/7/5 395/7/5
f 401/7/5 398/7/5 397/7/5
f 402/7/5 398/7/5 401/7/5
f 403/7/5 400/7/5 399/7/5
f 404/7/5 400/7/5 403/7/5
f 407/7/5 406/7/5 405/7/5
f 408/7/5 406/7/5 407/7/5
f 413/7/5 410/7/5 409/7/5
f 414/7/5 410/7/5 413/7/5
f 415/7/5 412/7/5 411/7/5
f 416/7/5 412/7/5 415/7/5
f 419/7/5 418/7/5 417/7/5
f 420/7/5 418/7/5 419/7/5
f 423/7/5 422/7/5 421/7/5
f 424/7/5 422/7/5 423/7/5
f 427/3/5 426/3/5 425/3/5
f 428/3/5 426/3/5 427/3/5
f 429/3/5 427/3/5 425/3/5
f 431/3/5 429/3/5 425/3/5
f 431/3/5 430/3/5 429/3/5
f 432/3/5 430/3/5 431/3/5
f 433/7/6 434/7/6 435/7/6
f 435/7/6 434/7/6 436/7/6
f 437/7/6 438/7/6 441/7/6
f 441/7/6 438/7/6 442/7/6
f 439/7/6 440/7/6 443/7/6
f 443/7/6 440/7/6 444/7/6
f 445/7/6 446/7/6 447/7/6
f 447/7/6 446/7/6 448/7/6
f 449/7/6 450/7/6 453/7/6
f 453/7/6 450/7/6 454/7/6
f 451/7/6 452/7/6 455/7/6
f 455/7/6 452/7/6 456/7/6
f 457/7/6 458/7/6 459/7/6
f 459/7/6 458/7/6 460/7/6
f 461/5/6 462/5/6 463/5/6
f 463/5/6 462/5/6 464/5/6
f 464/5/6 462/5/6 465/5/6
f 465/5/6 462/5/6 466/5/6
f 467/5/6 468/5/6 471/5/6
f 469/5/6 470/5/6 471/5/6
f 468/5/6 469/5/6 471/5/6
f 471/5/6 470/5/6 472/5/6
f 473/5/6 474/5/6 475/5/6
f 473/5/6 475/5/6 477/5/6
f 475/7/6 476/7/6 478/7/6
f 477/5/6 475/5/6 478/5/6
f 478/7/6 476/7/6 479/7/6
f 479/7/6 476/7/6 480/7/6
f 481/5/6 482/5/6 483/5/6
f 481/5/6 483/5/6 484/5/6
f 481/5/6 484/5/6 485/5/6
f 485/5/6 484/5/6 486/5/6
f 487/5/6 488/5/6 489/5/6
f 489/5/6 488/5/6 490/5/6
f 490/5/6 488/5/6 491/5/6
f 492/5/6 493/5/6 495/5/6
f 493/5/6 494/5/6 495/5/6
f 495/5/6 494/5/6 496/5/6
f 497/3/6 498/3/6 499/3/6
f 499/3/6 498/3/6 500/3/6
f 501/3/6 502/3/6 503/3/6
f 503/3/6 502/3/6 504/3/6
f 505/3/6 506/3/6 507/3/6
f 507/3/6 506/3/6 508/3/6
f 505/3/6 507/3/6 509/3/6
f 505/3/6 509/3/6 511/3/6
f 509/3/6 510/3/6 511/3/6
f 511/3/6 510/3/6 512/3/6
f 513/3/6 514/3/6 515/3/6
f 515/3/6 514/3/6 516/3/6
