# MagicaVoxel @ Ephtracy

# group
g armyguy1body

# material
mtllib armyguy1body.mtl
usemtl palette

# normals
vn -1 0 0
vn 1 0 0
vn 0 0 1
vn 0 0 -1
vn 0 -1 0
vn 0 1 0

# texcoords
vt 0.0136719 0.5
vt 0.0332031 0.5
vt 0.677734 0.5
vt 0.791016 0.5
vt 0.912109 0.5
vt 0.990234 0.5
vt 0.994141 0.5

# verts
v -5 17 5
v -5 17 -5
v -5 28 5
v -5 28 -5
v -5 32 5
v -5 32 -5
v -5 35 5
v -5 35 4
v -5 35 -4
v -5 35 -5
v -5 36 4
v -5 36 -4
v -4 12 5
v -4 12 4
v -4 12 -4
v -4 12 -5
v -4 13 5
v -4 13 4
v -4 13 -4
v -4 13 -5
v -4 14 4
v -4 14 -4
v -4 15 5
v -4 15 -5
v -4 17 6
v -4 17 5
v -4 17 -5
v -4 17 -6
v -4 24 6
v -4 24 5
v -4 24 -5
v -4 24 -6
v -4 28 5
v -4 28 3
v -4 28 -3
v -4 28 -5
v -4 29 5
v -4 29 3
v -4 29 -3
v -4 29 -5
v -4 32 3
v -4 32 -3
v -4 36 3
v -4 36 -3
v -4 37 3
v -4 37 -3
v 0 12 5
v 0 12 4
v 0 12 1
v 0 12 -1
v 0 12 -4
v 0 12 -5
v 0 13 5
v 0 13 4
v 0 13 2
v 0 13 -2
v 0 13 -4
v 0 13 -5
v 0 14 5
v 0 14 4
v 0 14 2
v 0 14 1
v 0 14 -1
v 0 14 -2
v 0 14 -4
v 0 14 -5
v 0 15 5
v 0 15 4
v 0 15 1
v 0 15 -1
v 0 15 -4
v 0 15 -5
v 0 17 6
v 0 17 5
v 0 17 1
v 0 17 -1
v 0 17 -5
v 0 17 -6
v 0 24 6
v 0 24 5
v 0 24 -5
v 0 24 -6
v 0 27 3
v 0 27 -3
v 0 29 3
v 0 29 1
v 0 29 -1
v 0 29 -3
v 0 30 1
v 0 30 -1
v 0 31 2
v 0 31 1
v 0 31 -1
v 0 31 -2
v 0 32 5
v 0 32 3
v 0 32 2
v 0 32 1
v 0 32 -1
v 0 32 -2
v 0 32 -3
v 0 32 -5
v 0 34 3
v 0 34 -3
v 0 35 5
v 0 35 4
v 0 35 -4
v 0 35 -5
v 0 36 4
v 0 36 3
v 0 36 -3
v 0 36 -4
v 0 37 3
v 0 37 -3
v 1 17 5
v 1 17 -5
v 1 19 4
v 1 19 2
v 1 19 -2
v 1 19 -4
v 1 23 4
v 1 23 2
v 1 23 -2
v 1 23 -4
v 1 27 3
v 1 27 -3
v 1 29 5
v 1 29 3
v 1 29 -3
v 1 29 -5
v 2 19 4
v 2 19 2
v 2 19 -2
v 2 19 -4
v 2 23 4
v 2 23 2
v 2 23 -2
v 2 23 -4
v -4 17 6
v -4 24 6
v 0 17 6
v 0 24 6
v -5 17 5
v -5 28 5
v -5 32 5
v -5 35 5
v -4 12 5
v -4 13 5
v -4 15 5
v -4 17 5
v -4 24 5
v -4 28 5
v -4 29 5
v -3 12 5
v -3 13 5
v -3 14 5
v -3 24 5
v -3 27 5
v -2 12 5
v -2 13 5
v -2 14 5
v -1 14 5
v -1 15 5
v -1 24 5
v -1 27 5
v 0 12 5
v 0 13 5
v 0 14 5
v 0 15 5
v 0 17 5
v 0 24 5
v 0 28 5
v 0 32 5
v 0 35 5
v 1 17 5
v 1 29 5
v -5 35 4
v -5 36 4
v 0 35 4
v 0 36 4
v 1 19 4
v 1 23 4
v 2 19 4
v 2 23 4
v -4 29 3
v -4 32 3
v -4 36 3
v -4 37 3
v 0 29 3
v 0 32 3
v 0 36 3
v 0 37 3
v 1 19 -2
v 1 23 -2
v 2 19 -2
v 2 23 -2
v 0 27 -3
v 0 29 -3
v 1 27 -3
v 1 29 -3
v 0 27 3
v 0 29 3
v 1 27 3
v 1 29 3
v 1 19 2
v 1 23 2
v 2 19 2
v 2 23 2
v -4 29 -3
v -4 32 -3
v -4 36 -3
v -4 37 -3
v 0 29 -3
v 0 32 -3
v 0 36 -3
v 0 37 -3
v -5 35 -4
v -5 36 -4
v 0 35 -4
v 0 36 -4
v 1 19 -4
v 1 23 -4
v 2 19 -4
v 2 23 -4
v -5 17 -5
v -5 28 -5
v -5 32 -5
v -5 35 -5
v -4 12 -5
v -4 13 -5
v -4 15 -5
v -4 17 -5
v -4 24 -5
v -4 28 -5
v -4 29 -5
v -3 12 -5
v -3 13 -5
v -3 14 -5
v -3 24 -5
v -3 27 -5
v -2 12 -5
v -2 13 -5
v -2 14 -5
v -1 14 -5
v -1 15 -5
v -1 24 -5
v -1 27 -5
v 0 12 -5
v 0 13 -5
v 0 14 -5
v 0 15 -5
v 0 17 -5
v 0 24 -5
v 0 28 -5
v 0 32 -5
v 0 35 -5
v 1 17 -5
v 1 29 -5
v -4 17 -6
v -4 24 -6
v 0 17 -6
v 0 24 -6
v -4 12 5
v -3 12 5
v -2 12 5
v 0 12 5
v -4 12 4
v -3 12 4
v -2 12 4
v 0 12 4
v -1 12 1
v 0 12 1
v -1 12 -1
v 0 12 -1
v -4 12 -4
v -3 12 -4
v -2 12 -4
v 0 12 -4
v -4 12 -5
v -3 12 -5
v -2 12 -5
v 0 12 -5
v -4 17 6
v 0 17 6
v -5 17 5
v -4 17 5
v 0 17 5
v 1 17 5
v 0 17 1
v 0 17 -1
v -5 17 -5
v -4 17 -5
v 0 17 -5
v 1 17 -5
v -4 17 -6
v 0 17 -6
v 1 19 4
v 2 19 4
v 1 19 2
v 2 19 2
v 1 19 -2
v 2 19 -2
v 1 19 -4
v 2 19 -4
v -5 32 5
v 0 32 5
v -4 32 3
v 0 32 3
v -4 32 -3
v 0 32 -3
v -5 32 -5
v 0 32 -5
v 1 23 4
v 2 23 4
v 1 23 2
v 2 23 2
v 1 23 -2
v 2 23 -2
v 1 23 -4
v 2 23 -4
v -4 24 6
v 0 24 6
v -4 24 5
v -3 24 5
v -1 24 5
v 0 24 5
v -4 24 -5
v -3 24 -5
v -1 24 -5
v 0 24 -5
v -4 24 -6
v 0 24 -6
v 0 27 3
v 1 27 3
v 0 27 -3
v 1 27 -3
v -5 28 5
v -4 28 5
v -4 28 3
v -4 28 -3
v -5 28 -5
v -4 28 -5
v -4 29 5
v 1 29 5
v -4 29 3
v 0 29 3
v 1 29 3
v -4 29 -3
v 0 29 -3
v 1 29 -3
v -4 29 -5
v 1 29 -5
v -5 35 5
v 0 35 5
v -5 35 4
v 0 35 4
v -5 35 -4
v 0 35 -4
v -5 35 -5
v 0 35 -5
v -5 36 4
v 0 36 4
v -4 36 3
v 0 36 3
v -4 36 -3
v 0 36 -3
v -5 36 -4
v 0 36 -4
v -4 37 3
v 0 37 3
v -4 37 -3
v 0 37 -3

# faces
f 3/5/1 2/5/1 1/5/1
f 4/5/1 2/5/1 3/5/1
f 7/3/1 6/3/1 5/3/1
f 8/3/1 6/3/1 7/3/1
f 9/3/1 6/3/1 8/3/1
f 10/3/1 6/3/1 9/3/1
f 11/3/1 9/3/1 8/3/1
f 12/3/1 9/3/1 11/3/1
f 17/6/1 14/6/1 13/6/1
f 18/3/1 15/3/1 14/3/1
f 18/6/1 14/6/1 17/6/1
f 19/6/1 16/6/1 15/6/1
f 19/3/1 15/3/1 18/3/1
f 20/6/1 16/6/1 19/6/1
f 21/3/1 18/3/1 17/3/1
f 21/6/1 19/6/1 18/6/1
f 22/3/1 20/3/1 19/3/1
f 22/6/1 19/6/1 21/6/1
f 23/3/1 21/3/1 17/3/1
f 23/3/1 22/3/1 21/3/1
f 24/3/1 20/3/1 22/3/1
f 24/3/1 22/3/1 23/3/1
f 26/7/1 24/7/1 23/7/1
f 27/7/1 24/7/1 26/7/1
f 29/5/1 26/5/1 25/5/1
f 30/5/1 26/5/1 29/5/1
f 31/5/1 28/5/1 27/5/1
f 32/5/1 28/5/1 31/5/1
f 37/5/1 34/5/1 33/5/1
f 38/2/1 35/2/1 34/2/1
f 38/5/1 34/5/1 37/5/1
f 39/5/1 36/5/1 35/5/1
f 39/2/1 35/2/1 38/2/1
f 40/5/1 36/5/1 39/5/1
f 41/2/1 39/2/1 38/2/1
f 42/2/1 39/2/1 41/2/1
f 45/3/1 44/3/1 43/3/1
f 46/3/1 44/3/1 45/3/1
f 47/6/2 48/6/2 53/6/2
f 48/3/2 49/3/2 54/3/2
f 53/6/2 48/6/2 54/6/2
f 54/3/2 49/3/2 55/3/2
f 50/3/2 51/3/2 56/3/2
f 51/6/2 52/6/2 57/6/2
f 56/3/2 51/3/2 57/3/2
f 57/6/2 52/6/2 58/6/2
f 53/3/2 54/3/2 59/3/2
f 54/6/2 55/6/2 60/6/2
f 59/3/2 54/3/2 60/3/2
f 55/3/2 49/3/2 61/3/2
f 60/6/2 55/6/2 61/6/2
f 49/6/2 50/6/2 62/6/2
f 61/3/2 49/3/2 62/3/2
f 50/3/2 56/3/2 63/3/2
f 62/6/2 50/6/2 63/6/2
f 56/6/2 57/6/2 64/6/2
f 63/3/2 56/3/2 64/3/2
f 57/3/2 58/3/2 65/3/2
f 64/6/2 57/6/2 65/6/2
f 65/3/2 58/3/2 66/3/2
f 59/6/2 60/6/2 67/6/2
f 61/3/2 62/3/2 68/3/2
f 67/6/2 60/6/2 68/6/2
f 60/3/2 61/3/2 68/3/2
f 62/3/2 63/3/2 68/3/2
f 64/3/2 65/3/2 68/3/2
f 63/3/2 64/3/2 68/3/2
f 68/3/2 65/3/2 69/3/2
f 69/3/2 65/3/2 70/3/2
f 65/6/2 66/6/2 71/6/2
f 70/3/2 65/3/2 71/3/2
f 71/6/2 66/6/2 72/6/2
f 67/7/2 68/7/2 74/7/2
f 68/7/2 69/7/2 74/7/2
f 69/1/2 70/1/2 75/1/2
f 74/7/2 69/7/2 75/7/2
f 71/7/2 72/7/2 76/7/2
f 75/1/2 70/1/2 76/1/2
f 70/7/2 71/7/2 76/7/2
f 76/7/2 72/7/2 77/7/2
f 73/5/2 74/5/2 79/5/2
f 79/5/2 74/5/2 80/5/2
f 77/5/2 78/5/2 81/5/2
f 81/5/2 78/5/2 82/5/2
f 83/2/2 84/2/2 85/2/2
f 85/2/2 84/2/2 86/2/2
f 86/2/2 84/2/2 87/2/2
f 87/2/2 84/2/2 88/2/2
f 85/2/2 86/2/2 89/2/2
f 86/7/2 87/7/2 89/7/2
f 87/2/2 88/2/2 90/2/2
f 89/7/2 87/7/2 90/7/2
f 85/2/2 89/2/2 91/2/2
f 89/2/2 90/2/2 91/2/2
f 91/2/2 90/2/2 92/2/2
f 90/2/2 88/2/2 93/2/2
f 92/2/2 90/2/2 93/2/2
f 93/2/2 88/2/2 94/2/2
f 85/2/2 91/2/2 96/2/2
f 91/7/2 92/7/2 97/7/2
f 96/2/2 91/2/2 97/2/2
f 92/2/2 93/2/2 98/2/2
f 97/7/2 92/7/2 98/7/2
f 93/7/2 94/7/2 99/7/2
f 98/2/2 93/2/2 99/2/2
f 94/2/2 88/2/2 100/2/2
f 99/7/2 94/7/2 100/7/2
f 100/2/2 88/2/2 101/2/2
f 100/2/2 101/2/2 103/2/2
f 95/3/2 96/3/2 103/3/2
f 99/2/2 100/2/2 103/2/2
f 98/2/2 99/2/2 103/2/2
f 97/2/2 98/2/2 103/2/2
f 96/2/2 97/2/2 103/2/2
f 101/3/2 102/3/2 104/3/2
f 103/2/2 101/2/2 104/2/2
f 95/3/2 103/3/2 105/3/2
f 103/3/2 104/3/2 105/3/2
f 105/3/2 104/3/2 106/3/2
f 104/3/2 102/3/2 107/3/2
f 106/3/2 104/3/2 107/3/2
f 107/3/2 102/3/2 108/3/2
f 106/3/2 107/3/2 109/3/2
f 109/3/2 107/3/2 110/3/2
f 110/3/2 107/3/2 111/3/2
f 111/3/2 107/3/2 112/3/2
f 110/3/2 111/3/2 113/3/2
f 113/3/2 111/3/2 114/3/2
f 115/5/2 116/5/2 117/5/2
f 117/5/2 116/5/2 118/5/2
f 118/5/2 116/5/2 119/5/2
f 119/5/2 116/5/2 120/5/2
f 115/5/2 117/5/2 121/5/2
f 118/5/2 119/5/2 122/5/2
f 122/5/2 119/5/2 123/5/2
f 120/5/2 116/5/2 124/5/2
f 122/5/2 123/5/2 125/5/2
f 123/5/2 124/5/2 125/5/2
f 121/5/2 122/5/2 125/5/2
f 125/5/2 124/5/2 126/5/2
f 115/5/2 121/5/2 127/5/2
f 121/5/2 125/5/2 127/5/2
f 127/5/2 125/5/2 128/5/2
f 126/5/2 124/5/2 129/5/2
f 124/5/2 116/5/2 130/5/2
f 129/5/2 124/5/2 130/5/2
f 131/7/2 132/7/2 135/7/2
f 135/7/2 132/7/2 136/7/2
f 133/7/2 134/7/2 137/7/2
f 137/7/2 134/7/2 138/7/2
f 141/5/3 140/5/3 139/5/3
f 142/5/3 140/5/3 141/5/3
f 150/5/3 144/5/3 143/5/3
f 151/5/3 144/5/3 150/5/3
f 152/5/3 144/5/3 151/5/3
f 154/6/3 148/6/3 147/6/3
f 155/3/3 149/3/3 148/3/3
f 155/6/3 148/6/3 154/6/3
f 156/3/3 149/3/3 155/3/3
f 157/4/3 152/4/3 151/4/3
f 158/4/3 152/4/3 157/4/3
f 159/3/3 155/3/3 154/3/3
f 160/6/3 156/6/3 155/6/3
f 160/3/3 155/3/3 159/3/3
f 161/3/3 149/3/3 156/3/3
f 161/6/3 156/6/3 160/6/3
f 162/3/3 161/3/3 160/3/3
f 162/3/3 149/3/3 161/3/3
f 163/7/3 150/7/3 149/7/3
f 163/3/3 149/3/3 162/3/3
f 164/2/3 158/2/3 157/2/3
f 165/4/3 152/4/3 158/4/3
f 165/2/3 158/2/3 164/2/3
f 166/6/3 160/6/3 159/6/3
f 167/3/3 162/3/3 160/3/3
f 167/6/3 160/6/3 166/6/3
f 168/6/3 163/6/3 162/6/3
f 168/3/3 162/3/3 167/3/3
f 169/7/3 150/7/3 163/7/3
f 169/6/3 163/6/3 168/6/3
f 170/7/3 150/7/3 169/7/3
f 171/4/3 165/4/3 164/4/3
f 172/5/3 153/5/3 152/5/3
f 172/4/3 152/4/3 165/4/3
f 172/4/3 165/4/3 171/4/3
f 173/3/3 146/3/3 145/3/3
f 174/3/3 146/3/3 173/3/3
f 175/5/3 171/5/3 170/5/3
f 175/5/3 172/5/3 171/5/3
f 176/5/3 153/5/3 172/5/3
f 176/5/3 172/5/3 175/5/3
f 179/3/3 178/3/3 177/3/3
f 180/3/3 178/3/3 179/3/3
f 183/7/3 182/7/3 181/7/3
f 184/7/3 182/7/3 183/7/3
f 189/2/3 186/2/3 185/2/3
f 190/2/3 186/2/3 189/2/3
f 191/3/3 188/3/3 187/3/3
f 192/3/3 188/3/3 191/3/3
f 195/7/3 194/7/3 193/7/3
f 196/7/3 194/7/3 195/7/3
f 199/5/3 198/5/3 197/5/3
f 200/5/3 198/5/3 199/5/3
f 201/5/4 202/5/4 203/5/4
f 203/5/4 202/5/4 204/5/4
f 205/7/4 206/7/4 207/7/4
f 207/7/4 206/7/4 208/7/4
f 209/2/4 210/2/4 213/2/4
f 213/2/4 210/2/4 214/2/4
f 211/3/4 212/3/4 215/3/4
f 215/3/4 212/3/4 216/3/4
f 217/3/4 218/3/4 219/3/4
f 219/3/4 218/3/4 220/3/4
f 221/7/4 222/7/4 223/7/4
f 223/7/4 222/7/4 224/7/4
f 225/5/4 226/5/4 232/5/4
f 232/5/4 226/5/4 233/5/4
f 233/5/4 226/5/4 234/5/4
f 229/6/4 230/6/4 236/6/4
f 230/3/4 231/3/4 237/3/4
f 236/6/4 230/6/4 237/6/4
f 237/3/4 231/3/4 238/3/4
f 233/4/4 234/4/4 239/4/4
f 239/4/4 234/4/4 240/4/4
f 236/3/4 237/3/4 241/3/4
f 237/6/4 238/6/4 242/6/4
f 241/3/4 237/3/4 242/3/4
f 238/3/4 231/3/4 243/3/4
f 242/6/4 238/6/4 243/6/4
f 242/3/4 243/3/4 244/3/4
f 243/3/4 231/3/4 244/3/4
f 231/7/4 232/7/4 245/7/4
f 244/3/4 231/3/4 245/3/4
f 239/2/4 240/2/4 246/2/4
f 240/4/4 234/4/4 247/4/4
f 246/2/4 240/2/4 247/2/4
f 241/6/4 242/6/4 248/6/4
f 242/3/4 244/3/4 249/3/4
f 248/6/4 242/6/4 249/6/4
f 244/6/4 245/6/4 250/6/4
f 249/3/4 244/3/4 250/3/4
f 245/7/4 232/7/4 251/7/4
f 250/6/4 245/6/4 251/6/4
f 251/7/4 232/7/4 252/7/4
f 246/4/4 247/4/4 253/4/4
f 234/5/4 235/5/4 254/5/4
f 247/4/4 234/4/4 254/4/4
f 253/4/4 247/4/4 254/4/4
f 227/3/4 228/3/4 255/3/4
f 255/3/4 228/3/4 256/3/4
f 252/5/4 253/5/4 257/5/4
f 253/5/4 254/5/4 257/5/4
f 254/5/4 235/5/4 258/5/4
f 257/5/4 254/5/4 258/5/4
f 259/5/4 260/5/4 261/5/4
f 261/5/4 260/5/4 262/5/4
f 267/6/5 264/6/5 263/6/5
f 268/3/5 265/3/5 264/3/5
f 268/6/5 264/6/5 267/6/5
f 269/6/5 266/6/5 265/6/5
f 269/3/5 265/3/5 268/3/5
f 270/6/5 266/6/5 269/6/5
f 271/3/5 268/3/5 267/3/5
f 271/3/5 269/3/5 268/3/5
f 271/3/5 270/3/5 269/3/5
f 272/3/5 270/3/5 271/3/5
f 273/3/5 271/3/5 267/3/5
f 273/6/5 272/6/5 271/6/5
f 274/6/5 272/6/5 273/6/5
f 275/3/5 273/3/5 267/3/5
f 275/3/5 274/3/5 273/3/5
f 276/3/5 274/3/5 275/3/5
f 277/3/5 274/3/5 276/3/5
f 278/3/5 274/3/5 277/3/5
f 279/6/5 276/6/5 275/6/5
f 280/3/5 277/3/5 276/3/5
f 280/6/5 276/6/5 279/6/5
f 281/6/5 278/6/5 277/6/5
f 281/3/5 277/3/5 280/3/5
f 282/6/5 278/6/5 281/6/5
f 286/5/5 284/5/5 283/5/5
f 287/5/5 284/5/5 286/5/5
f 289/5/5 288/5/5 287/5/5
f 290/5/5 288/5/5 289/5/5
f 291/5/5 286/5/5 285/5/5
f 292/5/5 286/5/5 291/5/5
f 293/5/5 288/5/5 290/5/5
f 294/5/5 288/5/5 293/5/5
f 295/5/5 293/5/5 292/5/5
f 296/5/5 293/5/5 295/5/5
f 299/7/5 298/7/5 297/7/5
f 300/7/5 298/7/5 299/7/5
f 303/7/5 302/7/5 301/7/5
f 304/7/5 302/7/5 303/7/5
f 307/3/5 306/3/5 305/3/5
f 308/3/5 306/3/5 307/3/5
f 309/3/5 307/3/5 305/3/5
f 311/3/5 309/3/5 305/3/5
f 311/3/5 310/3/5 309/3/5
f 312/3/5 310/3/5 311/3/5
f 313/7/6 314/7/6 315/7/6
f 315/7/6 314/7/6 316/7/6
f 317/7/6 318/7/6 319/7/6
f 319/7/6 318/7/6 320/7/6
f 321/5/6 322/5/6 323/5/6
f 323/5/6 322/5/6 324/5/6
f 324/5/6 322/5/6 325/5/6
f 325/5/6 322/5/6 326/5/6
f 327/5/6 328/5/6 331/5/6
f 329/5/6 330/5/6 331/5/6
f 328/5/6 329/5/6 331/5/6
f 331/5/6 330/5/6 332/5/6
f 333/5/6 334/5/6 335/5/6
f 335/5/6 334/5/6 336/5/6
f 337/5/6 338/5/6 339/5/6
f 337/5/6 339/5/6 340/5/6
f 337/5/6 340/5/6 341/5/6
f 341/5/6 340/5/6 342/5/6
f 343/5/6 344/5/6 345/5/6
f 345/5/6 344/5/6 346/5/6
f 346/5/6 344/5/6 347/5/6
f 348/5/6 349/5/6 351/5/6
f 349/5/6 350/5/6 351/5/6
f 351/5/6 350/5/6 352/5/6
f 353/3/6 354/3/6 355/3/6
f 355/3/6 354/3/6 356/3/6
f 357/3/6 358/3/6 359/3/6
f 359/3/6 358/3/6 360/3/6
f 361/3/6 362/3/6 363/3/6
f 363/3/6 362/3/6 364/3/6
f 361/3/6 363/3/6 365/3/6
f 361/3/6 365/3/6 367/3/6
f 365/3/6 366/3/6 367/3/6
f 367/3/6 366/3/6 368/3/6
f 369/3/6 370/3/6 371/3/6
f 371/3/6 370/3/6 372/3/6
