# MagicaVoxel @ Ephtracy

# group
g armyguy3body

# material
mtllib armyguy3body.mtl
usemtl palette

# normals
vn -1 0 0
vn 1 0 0
vn 0 0 1
vn 0 0 -1
vn 0 -1 0
vn 0 1 0

# texcoords
vt 0.0136719 0.5
vt 0.0332031 0.5
vt 0.677734 0.5
vt 0.791016 0.5
vt 0.990234 0.5
vt 0.994141 0.5

# verts
v -6 19 4
v -6 19 2
v -6 19 1
v -6 19 -1
v -6 19 -2
v -6 19 -4
v -6 23 4
v -6 23 2
v -6 23 1
v -6 23 -1
v -6 23 -2
v -6 23 -4
v -5 17 5
v -5 17 -5
v -5 19 4
v -5 19 2
v -5 19 1
v -5 19 -1
v -5 19 -2
v -5 19 -4
v -5 23 4
v -5 23 2
v -5 23 1
v -5 23 -1
v -5 23 -2
v -5 23 -4
v -5 28 5
v -5 28 -5
v -5 32 5
v -5 32 -5
v -5 35 5
v -5 35 4
v -5 35 -4
v -5 35 -5
v -5 36 4
v -5 36 -4
v -4 12 5
v -4 12 4
v -4 12 -4
v -4 12 -5
v -4 13 5
v -4 13 4
v -4 13 -4
v -4 13 -5
v -4 14 4
v -4 14 -4
v -4 15 5
v -4 15 -5
v -4 17 6
v -4 17 5
v -4 17 -5
v -4 17 -6
v -4 24 6
v -4 24 5
v -4 24 -5
v -4 24 -6
v -4 28 5
v -4 28 3
v -4 28 -3
v -4 28 -5
v -4 29 5
v -4 29 3
v -4 29 -3
v -4 29 -5
v -4 32 3
v -4 32 -3
v -4 36 3
v -4 36 -3
v -4 37 3
v -4 37 -3
v -3 19 7
v -3 19 6
v -3 19 -6
v -3 19 -7
v -3 23 7
v -3 23 6
v -3 23 -6
v -3 23 -7
v -1 19 7
v -1 19 6
v -1 19 -6
v -1 19 -7
v -1 23 7
v -1 23 6
v -1 23 -6
v -1 23 -7
v 0 12 5
v 0 12 4
v 0 12 1
v 0 12 -1
v 0 12 -4
v 0 12 -5
v 0 13 5
v 0 13 4
v 0 13 2
v 0 13 -2
v 0 13 -4
v 0 13 -5
v 0 14 5
v 0 14 4
v 0 14 2
v 0 14 1
v 0 14 -1
v 0 14 -2
v 0 14 -4
v 0 14 -5
v 0 15 5
v 0 15 4
v 0 15 1
v 0 15 -1
v 0 15 -4
v 0 15 -5
v 0 17 6
v 0 17 5
v 0 17 1
v 0 17 -1
v 0 17 -5
v 0 17 -6
v 0 24 6
v 0 24 5
v 0 24 -5
v 0 24 -6
v 0 27 3
v 0 27 -3
v 0 29 3
v 0 29 1
v 0 29 -1
v 0 29 -3
v 0 30 1
v 0 30 -1
v 0 31 2
v 0 31 1
v 0 31 -1
v 0 31 -2
v 0 32 5
v 0 32 3
v 0 32 2
v 0 32 1
v 0 32 -1
v 0 32 -2
v 0 32 -3
v 0 32 -5
v 0 34 3
v 0 34 -3
v 0 35 5
v 0 35 4
v 0 35 -4
v 0 35 -5
v 0 36 4
v 0 36 3
v 0 36 -3
v 0 36 -4
v 0 37 3
v 0 37 -3
v 1 17 5
v 1 17 -5
v 1 19 4
v 1 19 2
v 1 19 -2
v 1 19 -4
v 1 23 4
v 1 23 2
v 1 23 -2
v 1 23 -4
v 1 25 -1
v 1 25 -4
v 1 27 3
v 1 27 -1
v 1 27 -3
v 1 27 -4
v 1 29 5
v 1 29 3
v 1 29 -3
v 1 29 -5
v 2 19 4
v 2 19 2
v 2 19 -2
v 2 19 -4
v 2 23 4
v 2 23 2
v 2 23 -2
v 2 23 -4
v 2 25 -1
v 2 25 -4
v 2 27 -1
v 2 27 -4
v -3 19 7
v -3 23 7
v -1 19 7
v -1 23 7
v -4 17 6
v -4 24 6
v -3 19 6
v -3 23 6
v -1 19 6
v -1 23 6
v 0 17 6
v 0 24 6
v -5 17 5
v -5 28 5
v -5 32 5
v -5 35 5
v -4 12 5
v -4 13 5
v -4 15 5
v -4 17 5
v -4 24 5
v -4 28 5
v -4 29 5
v -3 12 5
v -3 13 5
v -3 14 5
v -3 24 5
v -3 27 5
v -2 12 5
v -2 13 5
v -2 14 5
v -1 14 5
v -1 15 5
v -1 24 5
v -1 27 5
v 0 12 5
v 0 13 5
v 0 14 5
v 0 15 5
v 0 17 5
v 0 24 5
v 0 28 5
v 0 32 5
v 0 35 5
v 1 17 5
v 1 29 5
v -6 19 4
v -6 23 4
v -5 19 4
v -5 23 4
v -5 35 4
v -5 36 4
v 0 35 4
v 0 36 4
v 1 19 4
v 1 23 4
v 2 19 4
v 2 23 4
v -4 29 3
v -4 32 3
v -4 36 3
v -4 37 3
v 0 29 3
v 0 32 3
v 0 36 3
v 0 37 3
v -6 19 1
v -6 23 1
v -5 19 1
v -5 23 1
v 1 25 -1
v 1 27 -1
v 2 25 -1
v 2 27 -1
v -6 19 -2
v -6 23 -2
v -5 19 -2
v -5 23 -2
v 1 19 -2
v 1 23 -2
v 2 19 -2
v 2 23 -2
v 0 27 -3
v 0 29 -3
v 1 27 -3
v 1 29 -3
v 0 27 3
v 0 29 3
v 1 27 3
v 1 29 3
v -6 19 2
v -6 23 2
v -5 19 2
v -5 23 2
v 1 19 2
v 1 23 2
v 2 19 2
v 2 23 2
v -6 19 -1
v -6 23 -1
v -5 19 -1
v -5 23 -1
v -4 29 -3
v -4 32 -3
v -4 36 -3
v -4 37 -3
v 0 29 -3
v 0 32 -3
v 0 36 -3
v 0 37 -3
v -6 19 -4
v -6 23 -4
v -5 19 -4
v -5 23 -4
v -5 35 -4
v -5 36 -4
v 0 35 -4
v 0 36 -4
v 1 19 -4
v 1 23 -4
v 1 25 -4
v 1 27 -4
v 2 19 -4
v 2 23 -4
v 2 25 -4
v 2 27 -4
v -5 17 -5
v -5 28 -5
v -5 32 -5
v -5 35 -5
v -4 12 -5
v -4 13 -5
v -4 15 -5
v -4 17 -5
v -4 24 -5
v -4 28 -5
v -4 29 -5
v -3 12 -5
v -3 13 -5
v -3 14 -5
v -3 24 -5
v -3 27 -5
v -2 12 -5
v -2 13 -5
v -2 14 -5
v -1 14 -5
v -1 15 -5
v -1 24 -5
v -1 27 -5
v 0 12 -5
v 0 13 -5
v 0 14 -5
v 0 15 -5
v 0 17 -5
v 0 24 -5
v 0 28 -5
v 0 32 -5
v 0 35 -5
v 1 17 -5
v 1 29 -5
v -4 17 -6
v -4 24 -6
v -3 19 -6
v -3 23 -6
v -1 19 -6
v -1 23 -6
v 0 17 -6
v 0 24 -6
v -3 19 -7
v -3 23 -7
v -1 19 -7
v -1 23 -7
v -4 12 5
v -3 12 5
v -2 12 5
v 0 12 5
v -4 12 4
v -3 12 4
v -2 12 4
v 0 12 4
v -1 12 1
v 0 12 1
v -1 12 -1
v 0 12 -1
v -4 12 -4
v -3 12 -4
v -2 12 -4
v 0 12 -4
v -4 12 -5
v -3 12 -5
v -2 12 -5
v 0 12 -5
v -4 17 6
v 0 17 6
v -5 17 5
v -4 17 5
v 0 17 5
v 1 17 5
v 0 17 1
v 0 17 -1
v -5 17 -5
v -4 17 -5
v 0 17 -5
v 1 17 -5
v -4 17 -6
v 0 17 -6
v -3 19 7
v -1 19 7
v -3 19 6
v -1 19 6
v -6 19 4
v -5 19 4
v 1 19 4
v 2 19 4
v -6 19 2
v -5 19 2
v 1 19 2
v 2 19 2
v -6 19 1
v -5 19 1
v -6 19 -1
v -5 19 -1
v -6 19 -2
v -5 19 -2
v 1 19 -2
v 2 19 -2
v -6 19 -4
v -5 19 -4
v 1 19 -4
v 2 19 -4
v -3 19 -6
v -1 19 -6
v -3 19 -7
v -1 19 -7
v 1 25 -1
v 2 25 -1
v 1 25 -4
v 2 25 -4
v -5 32 5
v 0 32 5
v -4 32 3
v 0 32 3
v -4 32 -3
v 0 32 -3
v -5 32 -5
v 0 32 -5
v -3 23 7
v -1 23 7
v -3 23 6
v -1 23 6
v -6 23 4
v -5 23 4
v 1 23 4
v 2 23 4
v -6 23 2
v -5 23 2
v 1 23 2
v 2 23 2
v -6 23 1
v -5 23 1
v -6 23 -1
v -5 23 -1
v -6 23 -2
v -5 23 -2
v 1 23 -2
v 2 23 -2
v -6 23 -4
v -5 23 -4
v 1 23 -4
v 2 23 -4
v -3 23 -6
v -1 23 -6
v -3 23 -7
v -1 23 -7
v -4 24 6
v 0 24 6
v -4 24 5
v -3 24 5
v -1 24 5
v 0 24 5
v -4 24 -5
v -3 24 -5
v -1 24 -5
v 0 24 -5
v -4 24 -6
v 0 24 -6
v 0 27 3
v 1 27 3
v 1 27 -1
v 2 27 -1
v 0 27 -3
v 1 27 -3
v 1 27 -4
v 2 27 -4
v -5 28 5
v -4 28 5
v -4 28 3
v -4 28 -3
v -5 28 -5
v -4 28 -5
v -4 29 5
v 1 29 5
v -4 29 3
v 0 29 3
v 1 29 3
v -4 29 -3
v 0 29 -3
v 1 29 -3
v -4 29 -5
v 1 29 -5
v -5 35 5
v 0 35 5
v -5 35 4
v 0 35 4
v -5 35 -4
v 0 35 -4
v -5 35 -5
v 0 35 -5
v -5 36 4
v 0 36 4
v -4 36 3
v 0 36 3
v -4 36 -3
v 0 36 -3
v -5 36 -4
v 0 36 -4
v -4 37 3
v 0 37 3
v -4 37 -3
v 0 37 -3

# faces
f 7/6/1 2/6/1 1/6/1
f 8/6/1 2/6/1 7/6/1
f 9/6/1 4/6/1 3/6/1
f 10/6/1 4/6/1 9/6/1
f 11/6/1 6/6/1 5/6/1
f 12/6/1 6/6/1 11/6/1
f 15/6/1 14/6/1 13/6/1
f 16/6/1 14/6/1 15/6/1
f 17/6/1 14/6/1 16/6/1
f 18/6/1 14/6/1 17/6/1
f 19/6/1 14/6/1 18/6/1
f 20/6/1 14/6/1 19/6/1
f 21/6/1 15/6/1 13/6/1
f 22/6/1 17/6/1 16/6/1
f 23/6/1 17/6/1 22/6/1
f 24/6/1 19/6/1 18/6/1
f 25/6/1 19/6/1 24/6/1
f 26/6/1 14/6/1 20/6/1
f 27/6/1 25/6/1 24/6/1
f 27/6/1 26/6/1 25/6/1
f 27/6/1 23/6/1 22/6/1
f 27/6/1 21/6/1 13/6/1
f 27/6/1 24/6/1 23/6/1
f 27/6/1 22/6/1 21/6/1
f 28/6/1 14/6/1 26/6/1
f 28/6/1 26/6/1 27/6/1
f 31/6/1 30/6/1 29/6/1
f 32/6/1 30/6/1 31/6/1
f 33/6/1 30/6/1 32/6/1
f 34/6/1 30/6/1 33/6/1
f 35/6/1 33/6/1 32/6/1
f 36/6/1 33/6/1 35/6/1
f 41/5/1 38/5/1 37/5/1
f 42/3/1 39/3/1 38/3/1
f 42/5/1 38/5/1 41/5/1
f 43/5/1 40/5/1 39/5/1
f 43/3/1 39/3/1 42/3/1
f 44/5/1 40/5/1 43/5/1
f 45/3/1 42/3/1 41/3/1
f 45/5/1 43/5/1 42/5/1
f 46/3/1 44/3/1 43/3/1
f 46/5/1 43/5/1 45/5/1
f 47/3/1 45/3/1 41/3/1
f 47/3/1 46/3/1 45/3/1
f 48/3/1 44/3/1 46/3/1
f 48/3/1 46/3/1 47/3/1
f 50/6/1 48/6/1 47/6/1
f 51/6/1 48/6/1 50/6/1
f 53/6/1 50/6/1 49/6/1
f 54/6/1 50/6/1 53/6/1
f 55/6/1 52/6/1 51/6/1
f 56/6/1 52/6/1 55/6/1
f 61/6/1 58/6/1 57/6/1
f 62/2/1 59/2/1 58/2/1
f 62/6/1 58/6/1 61/6/1
f 63/6/1 60/6/1 59/6/1
f 63/2/1 59/2/1 62/2/1
f 64/6/1 60/6/1 63/6/1
f 65/2/1 63/2/1 62/2/1
f 66/2/1 63/2/1 65/2/1
f 69/6/1 68/6/1 67/6/1
f 70/6/1 68/6/1 69/6/1
f 75/6/1 72/6/1 71/6/1
f 76/6/1 72/6/1 75/6/1
f 77/6/1 74/6/1 73/6/1
f 78/6/1 74/6/1 77/6/1
f 79/6/2 80/6/2 83/6/2
f 83/6/2 80/6/2 84/6/2
f 81/6/2 82/6/2 85/6/2
f 85/6/2 82/6/2 86/6/2
f 87/5/2 88/5/2 93/5/2
f 88/3/2 89/3/2 94/3/2
f 93/5/2 88/5/2 94/5/2
f 94/3/2 89/3/2 95/3/2
f 90/3/2 91/3/2 96/3/2
f 91/5/2 92/5/2 97/5/2
f 96/3/2 91/3/2 97/3/2
f 97/5/2 92/5/2 98/5/2
f 93/3/2 94/3/2 99/3/2
f 94/5/2 95/5/2 100/5/2
f 99/3/2 94/3/2 100/3/2
f 95/3/2 89/3/2 101/3/2
f 100/5/2 95/5/2 101/5/2
f 89/5/2 90/5/2 102/5/2
f 101/3/2 89/3/2 102/3/2
f 90/3/2 96/3/2 103/3/2
f 102/5/2 90/5/2 103/5/2
f 96/5/2 97/5/2 104/5/2
f 103/3/2 96/3/2 104/3/2
f 97/3/2 98/3/2 105/3/2
f 104/5/2 97/5/2 105/5/2
f 105/3/2 98/3/2 106/3/2
f 99/5/2 100/5/2 107/5/2
f 101/3/2 102/3/2 108/3/2
f 107/5/2 100/5/2 108/5/2
f 100/3/2 101/3/2 108/3/2
f 102/3/2 103/3/2 108/3/2
f 104/3/2 105/3/2 108/3/2
f 103/3/2 104/3/2 108/3/2
f 108/3/2 105/3/2 109/3/2
f 109/3/2 105/3/2 110/3/2
f 105/5/2 106/5/2 111/5/2
f 110/3/2 105/3/2 111/3/2
f 111/5/2 106/5/2 112/5/2
f 107/6/2 108/6/2 114/6/2
f 108/6/2 109/6/2 114/6/2
f 109/1/2 110/1/2 115/1/2
f 114/6/2 109/6/2 115/6/2
f 111/6/2 112/6/2 116/6/2
f 115/1/2 110/1/2 116/1/2
f 110/6/2 111/6/2 116/6/2
f 116/6/2 112/6/2 117/6/2
f 113/6/2 114/6/2 119/6/2
f 119/6/2 114/6/2 120/6/2
f 117/6/2 118/6/2 121/6/2
f 121/6/2 118/6/2 122/6/2
f 123/2/2 124/2/2 125/2/2
f 125/2/2 124/2/2 126/2/2
f 126/2/2 124/2/2 127/2/2
f 127/2/2 124/2/2 128/2/2
f 125/2/2 126/2/2 129/2/2
f 126/6/2 127/6/2 129/6/2
f 127/2/2 128/2/2 130/2/2
f 129/6/2 127/6/2 130/6/2
f 125/2/2 129/2/2 131/2/2
f 129/2/2 130/2/2 131/2/2
f 131/2/2 130/2/2 132/2/2
f 130/2/2 128/2/2 133/2/2
f 132/2/2 130/2/2 133/2/2
f 133/2/2 128/2/2 134/2/2
f 125/2/2 131/2/2 136/2/2
f 131/6/2 132/6/2 137/6/2
f 136/2/2 131/2/2 137/2/2
f 132/2/2 133/2/2 138/2/2
f 137/6/2 132/6/2 138/6/2
f 133/6/2 134/6/2 139/6/2
f 138/2/2 133/2/2 139/2/2
f 134/2/2 128/2/2 140/2/2
f 139/6/2 134/6/2 140/6/2
f 140/2/2 128/2/2 141/2/2
f 140/2/2 141/2/2 143/2/2
f 135/6/2 136/6/2 143/6/2
f 139/2/2 140/2/2 143/2/2
f 138/2/2 139/2/2 143/2/2
f 137/2/2 138/2/2 143/2/2
f 136/2/2 137/2/2 143/2/2
f 141/6/2 142/6/2 144/6/2
f 143/2/2 141/2/2 144/2/2
f 135/6/2 143/6/2 145/6/2
f 143/6/2 144/6/2 145/6/2
f 145/6/2 144/6/2 146/6/2
f 144/6/2 142/6/2 147/6/2
f 146/6/2 144/6/2 147/6/2
f 147/6/2 142/6/2 148/6/2
f 146/6/2 147/6/2 149/6/2
f 149/6/2 147/6/2 150/6/2
f 150/6/2 147/6/2 151/6/2
f 151/6/2 147/6/2 152/6/2
f 150/6/2 151/6/2 153/6/2
f 153/6/2 151/6/2 154/6/2
f 155/6/2 156/6/2 157/6/2
f 157/6/2 156/6/2 158/6/2
f 158/6/2 156/6/2 159/6/2
f 159/6/2 156/6/2 160/6/2
f 155/6/2 157/6/2 161/6/2
f 158/6/2 159/6/2 162/6/2
f 162/6/2 159/6/2 163/6/2
f 160/6/2 156/6/2 164/6/2
f 162/6/2 163/6/2 165/6/2
f 163/6/2 164/6/2 165/6/2
f 161/6/2 162/6/2 165/6/2
f 164/6/2 156/6/2 166/6/2
f 165/6/2 164/6/2 166/6/2
f 161/6/2 165/6/2 167/6/2
f 167/6/2 165/6/2 168/6/2
f 166/6/2 156/6/2 170/6/2
f 155/6/2 161/6/2 171/6/2
f 161/6/2 167/6/2 171/6/2
f 171/6/2 167/6/2 172/6/2
f 169/6/2 170/6/2 173/6/2
f 170/6/2 156/6/2 174/6/2
f 173/6/2 170/6/2 174/6/2
f 175/6/2 176/6/2 179/6/2
f 179/6/2 176/6/2 180/6/2
f 177/6/2 178/6/2 181/6/2
f 181/6/2 178/6/2 182/6/2
f 183/6/2 184/6/2 185/6/2
f 185/6/2 184/6/2 186/6/2
f 189/6/3 188/6/3 187/6/3
f 190/6/3 188/6/3 189/6/3
f 193/6/3 192/6/3 191/6/3
f 194/6/3 192/6/3 193/6/3
f 195/6/3 193/6/3 191/6/3
f 196/6/3 192/6/3 194/6/3
f 197/6/3 195/6/3 191/6/3
f 197/6/3 196/6/3 195/6/3
f 198/6/3 192/6/3 196/6/3
f 198/6/3 196/6/3 197/6/3
f 206/6/3 200/6/3 199/6/3
f 207/6/3 200/6/3 206/6/3
f 208/6/3 200/6/3 207/6/3
f 210/5/3 204/5/3 203/5/3
f 211/3/3 205/3/3 204/3/3
f 211/5/3 204/5/3 210/5/3
f 212/3/3 205/3/3 211/3/3
f 213/4/3 208/4/3 207/4/3
f 214/4/3 208/4/3 213/4/3
f 215/3/3 211/3/3 210/3/3
f 216/5/3 212/5/3 211/5/3
f 216/3/3 211/3/3 215/3/3
f 217/3/3 205/3/3 212/3/3
f 217/5/3 212/5/3 216/5/3
f 218/3/3 217/3/3 216/3/3
f 218/3/3 205/3/3 217/3/3
f 219/6/3 206/6/3 205/6/3
f 219/3/3 205/3/3 218/3/3
f 220/2/3 214/2/3 213/2/3
f 221/4/3 208/4/3 214/4/3
f 221/2/3 214/2/3 220/2/3
f 222/5/3 216/5/3 215/5/3
f 223/3/3 218/3/3 216/3/3
f 223/5/3 216/5/3 222/5/3
f 224/5/3 219/5/3 218/5/3
f 224/3/3 218/3/3 223/3/3
f 225/6/3 206/6/3 219/6/3
f 225/5/3 219/5/3 224/5/3
f 226/6/3 206/6/3 225/6/3
f 227/4/3 221/4/3 220/4/3
f 228/6/3 209/6/3 208/6/3
f 228/4/3 208/4/3 221/4/3
f 228/4/3 221/4/3 227/4/3
f 229/6/3 202/6/3 201/6/3
f 230/6/3 202/6/3 229/6/3
f 231/6/3 227/6/3 226/6/3
f 231/6/3 228/6/3 227/6/3
f 232/6/3 209/6/3 228/6/3
f 232/6/3 228/6/3 231/6/3
f 235/6/3 234/6/3 233/6/3
f 236/6/3 234/6/3 235/6/3
f 239/6/3 238/6/3 237/6/3
f 240/6/3 238/6/3 239/6/3
f 243/6/3 242/6/3 241/6/3
f 244/6/3 242/6/3 243/6/3
f 249/2/3 246/2/3 245/2/3
f 250/2/3 246/2/3 249/2/3
f 251/6/3 248/6/3 247/6/3
f 252/6/3 248/6/3 251/6/3
f 255/6/3 254/6/3 253/6/3
f 256/6/3 254/6/3 255/6/3
f 259/6/3 258/6/3 257/6/3
f 260/6/3 258/6/3 259/6/3
f 263/6/3 262/6/3 261/6/3
f 264/6/3 262/6/3 263/6/3
f 267/6/3 266/6/3 265/6/3
f 268/6/3 266/6/3 267/6/3
f 271/6/3 270/6/3 269/6/3
f 272/6/3 270/6/3 271/6/3
f 273/6/4 274/6/4 275/6/4
f 275/6/4 274/6/4 276/6/4
f 277/6/4 278/6/4 279/6/4
f 279/6/4 278/6/4 280/6/4
f 281/6/4 282/6/4 283/6/4
f 283/6/4 282/6/4 284/6/4
f 285/6/4 286/6/4 287/6/4
f 287/6/4 286/6/4 288/6/4
f 289/2/4 290/2/4 293/2/4
f 293/2/4 290/2/4 294/2/4
f 291/6/4 292/6/4 295/6/4
f 295/6/4 292/6/4 296/6/4
f 297/6/4 298/6/4 299/6/4
f 299/6/4 298/6/4 300/6/4
f 301/6/4 302/6/4 303/6/4
f 303/6/4 302/6/4 304/6/4
f 305/6/4 306/6/4 309/6/4
f 309/6/4 306/6/4 310/6/4
f 307/6/4 308/6/4 311/6/4
f 311/6/4 308/6/4 312/6/4
f 313/6/4 314/6/4 320/6/4
f 320/6/4 314/6/4 321/6/4
f 321/6/4 314/6/4 322/6/4
f 317/5/4 318/5/4 324/5/4
f 318/3/4 319/3/4 325/3/4
f 324/5/4 318/5/4 325/5/4
f 325/3/4 319/3/4 326/3/4
f 321/4/4 322/4/4 327/4/4
f 327/4/4 322/4/4 328/4/4
f 324/3/4 325/3/4 329/3/4
f 325/5/4 326/5/4 330/5/4
f 329/3/4 325/3/4 330/3/4
f 326/3/4 319/3/4 331/3/4
f 330/5/4 326/5/4 331/5/4
f 330/3/4 331/3/4 332/3/4
f 331/3/4 319/3/4 332/3/4
f 319/6/4 320/6/4 333/6/4
f 332/3/4 319/3/4 333/3/4
f 327/2/4 328/2/4 334/2/4
f 328/4/4 322/4/4 335/4/4
f 334/2/4 328/2/4 335/2/4
f 329/5/4 330/5/4 336/5/4
f 330/3/4 332/3/4 337/3/4
f 336/5/4 330/5/4 337/5/4
f 332/5/4 333/5/4 338/5/4
f 337/3/4 332/3/4 338/3/4
f 333/6/4 320/6/4 339/6/4
f 338/5/4 333/5/4 339/5/4
f 339/6/4 320/6/4 340/6/4
f 334/4/4 335/4/4 341/4/4
f 322/6/4 323/6/4 342/6/4
f 335/4/4 322/4/4 342/4/4
f 341/4/4 335/4/4 342/4/4
f 315/6/4 316/6/4 343/6/4
f 343/6/4 316/6/4 344/6/4
f 340/6/4 341/6/4 345/6/4
f 341/6/4 342/6/4 345/6/4
f 342/6/4 323/6/4 346/6/4
f 345/6/4 342/6/4 346/6/4
f 347/6/4 348/6/4 349/6/4
f 349/6/4 348/6/4 350/6/4
f 347/6/4 349/6/4 351/6/4
f 350/6/4 348/6/4 352/6/4
f 347/6/4 351/6/4 353/6/4
f 351/6/4 352/6/4 353/6/4
f 352/6/4 348/6/4 354/6/4
f 353/6/4 352/6/4 354/6/4
f 355/6/4 356/6/4 357/6/4
f 357/6/4 356/6/4 358/6/4
f 363/5/5 360/5/5 359/5/5
f 364/3/5 361/3/5 360/3/5
f 364/5/5 360/5/5 363/5/5
f 365/5/5 362/5/5 361/5/5
f 365/3/5 361/3/5 364/3/5
f 366/5/5 362/5/5 365/5/5
f 367/3/5 364/3/5 363/3/5
f 367/3/5 365/3/5 364/3/5
f 367/3/5 366/3/5 365/3/5
f 368/3/5 366/3/5 367/3/5
f 369/3/5 367/3/5 363/3/5
f 369/5/5 368/5/5 367/5/5
f 370/5/5 368/5/5 369/5/5
f 371/3/5 369/3/5 363/3/5
f 371/3/5 370/3/5 369/3/5
f 372/3/5 370/3/5 371/3/5
f 373/3/5 370/3/5 372/3/5
f 374/3/5 370/3/5 373/3/5
f 375/5/5 372/5/5 371/5/5
f 376/3/5 373/3/5 372/3/5
f 376/5/5 372/5/5 375/5/5
f 377/5/5 374/5/5 373/5/5
f 377/3/5 373/3/5 376/3/5
f 378/5/5 374/5/5 377/5/5
f 382/6/5 380/6/5 379/6/5
f 383/6/5 380/6/5 382/6/5
f 385/6/5 384/6/5 383/6/5
f 386/6/5 384/6/5 385/6/5
f 387/6/5 382/6/5 381/6/5
f 388/6/5 382/6/5 387/6/5
f 389/6/5 384/6/5 386/6/5
f 390/6/5 384/6/5 389/6/5
f 391/6/5 389/6/5 388/6/5
f 392/6/5 389/6/5 391/6/5
f 395/6/5 394/6/5 393/6/5
f 396/6/5 394/6/5 395/6/5
f 401/6/5 398/6/5 397/6/5
f 402/6/5 398/6/5 401/6/5
f 403/6/5 400/6/5 399/6/5
f 404/6/5 400/6/5 403/6/5
f 407/6/5 406/6/5 405/6/5
f 408/6/5 406/6/5 407/6/5
f 413/6/5 410/6/5 409/6/5
f 414/6/5 410/6/5 413/6/5
f 415/6/5 412/6/5 411/6/5
f 416/6/5 412/6/5 415/6/5
f 419/6/5 418/6/5 417/6/5
f 420/6/5 418/6/5 419/6/5
f 423/6/5 422/6/5 421/6/5
f 424/6/5 422/6/5 423/6/5
f 427/6/5 426/6/5 425/6/5
f 428/6/5 426/6/5 427/6/5
f 429/6/5 427/6/5 425/6/5
f 431/6/5 429/6/5 425/6/5
f 431/6/5 430/6/5 429/6/5
f 432/6/5 430/6/5 431/6/5
f 433/6/6 434/6/6 435/6/6
f 435/6/6 434/6/6 436/6/6
f 437/6/6 438/6/6 441/6/6
f 441/6/6 438/6/6 442/6/6
f 439/6/6 440/6/6 443/6/6
f 443/6/6 440/6/6 444/6/6
f 445/6/6 446/6/6 447/6/6
f 447/6/6 446/6/6 448/6/6
f 449/6/6 450/6/6 453/6/6
f 453/6/6 450/6/6 454/6/6
f 451/6/6 452/6/6 455/6/6
f 455/6/6 452/6/6 456/6/6
f 457/6/6 458/6/6 459/6/6
f 459/6/6 458/6/6 460/6/6
f 461/6/6 462/6/6 463/6/6
f 463/6/6 462/6/6 464/6/6
f 464/6/6 462/6/6 465/6/6
f 465/6/6 462/6/6 466/6/6
f 467/6/6 468/6/6 471/6/6
f 469/6/6 470/6/6 471/6/6
f 468/6/6 469/6/6 471/6/6
f 471/6/6 470/6/6 472/6/6
f 473/6/6 474/6/6 475/6/6
f 473/6/6 475/6/6 477/6/6
f 475/6/6 476/6/6 477/6/6
f 477/6/6 476/6/6 478/6/6
f 478/6/6 476/6/6 479/6/6
f 479/6/6 476/6/6 480/6/6
f 481/6/6 482/6/6 483/6/6
f 481/6/6 483/6/6 484/6/6
f 481/6/6 484/6/6 485/6/6
f 485/6/6 484/6/6 486/6/6
f 487/6/6 488/6/6 489/6/6
f 489/6/6 488/6/6 490/6/6
f 490/6/6 488/6/6 491/6/6
f 492/6/6 493/6/6 495/6/6
f 493/6/6 494/6/6 495/6/6
f 495/6/6 494/6/6 496/6/6
f 497/6/6 498/6/6 499/6/6
f 499/6/6 498/6/6 500/6/6
f 501/6/6 502/6/6 503/6/6
f 503/6/6 502/6/6 504/6/6
f 505/6/6 506/6/6 507/6/6
f 507/6/6 506/6/6 508/6/6
f 505/6/6 507/6/6 509/6/6
f 505/6/6 509/6/6 511/6/6
f 509/6/6 510/6/6 511/6/6
f 511/6/6 510/6/6 512/6/6
f 513/6/6 514/6/6 515/6/6
f 515/6/6 514/6/6 516/6/6
