# MagicaVoxel @ Ephtracy

# group
g guy1rightlegactuallyleft

# material
mtllib guy1rightlegactuallyleft.mtl
usemtl palette

# normals
vn -1 0 0
vn 1 0 0
vn 0 0 1
vn 0 0 -1
vn 0 -1 0
vn 0 1 0

# texcoords
vt 0.0332031 0.5
vt 0.865234 0.5
vt 0.994141 0.5

# verts
v -4 0 -1
v -4 0 -5
v -4 3 -1
v -4 3 -5
v -4 15 -1
v -4 15 -5
v 0 2 -1
v 0 2 -2
v 0 2 -4
v 0 2 -5
v 0 3 -1
v 0 3 -2
v 0 3 -4
v 0 3 -5
v 0 15 -1
v 0 15 -5
v 2 2 -2
v 2 2 -4
v 2 3 -2
v 2 3 -4
v 3 0 -1
v 3 0 -5
v 3 2 -1
v 3 2 -5
v -4 0 -1
v -4 3 -1
v -4 15 -1
v 0 2 -1
v 0 3 -1
v 0 15 -1
v 3 0 -1
v 3 2 -1
v 0 2 -2
v 0 3 -2
v 2 2 -2
v 2 3 -2
v 0 2 -4
v 0 3 -4
v 2 2 -4
v 2 3 -4
v -4 0 -5
v -4 3 -5
v -4 15 -5
v 0 2 -5
v 0 3 -5
v 0 15 -5
v 3 0 -5
v 3 2 -5
v -4 0 -1
v 3 0 -1
v -4 0 -5
v 3 0 -5
v 0 2 -1
v 3 2 -1
v 0 2 -2
v 2 2 -2
v 0 2 -4
v 2 2 -4
v 0 2 -5
v 3 2 -5
v 0 3 -2
v 2 3 -2
v 0 3 -4
v 2 3 -4
v -4 15 -1
v 0 15 -1
v -4 15 -5
v 0 15 -5

# faces
f 3/3/1 2/3/1 1/3/1
f 4/3/1 2/3/1 3/3/1
f 5/2/1 4/2/1 3/2/1
f 6/2/1 4/2/1 5/2/1
f 7/3/2 8/3/2 11/3/2
f 11/3/2 8/3/2 12/3/2
f 9/3/2 10/3/2 13/3/2
f 13/3/2 10/3/2 14/3/2
f 11/2/2 12/2/2 15/2/2
f 12/2/2 13/2/2 15/2/2
f 13/2/2 14/2/2 15/2/2
f 15/2/2 14/2/2 16/2/2
f 17/3/2 18/3/2 19/3/2
f 19/3/2 18/3/2 20/3/2
f 21/3/2 22/3/2 23/3/2
f 23/3/2 22/3/2 24/3/2
f 28/3/3 26/3/3 25/3/3
f 29/2/3 27/2/3 26/2/3
f 29/3/3 26/3/3 28/3/3
f 30/2/3 27/2/3 29/2/3
f 31/3/3 28/3/3 25/3/3
f 32/3/3 28/3/3 31/3/3
f 35/3/3 34/3/3 33/3/3
f 36/3/3 34/3/3 35/3/3
f 37/3/4 38/3/4 39/3/4
f 39/3/4 38/3/4 40/3/4
f 41/3/4 42/3/4 44/3/4
f 42/2/4 43/2/4 45/2/4
f 44/3/4 42/3/4 45/3/4
f 45/2/4 43/2/4 46/2/4
f 41/3/4 44/3/4 47/3/4
f 47/3/4 44/3/4 48/3/4
f 51/3/5 50/3/5 49/3/5
f 52/3/5 50/3/5 51/3/5
f 53/3/6 54/3/6 55/3/6
f 55/3/6 54/3/6 56/3/6
f 56/3/6 54/3/6 58/3/6
f 57/3/6 58/3/6 59/3/6
f 58/3/6 54/3/6 60/3/6
f 59/3/6 58/3/6 60/3/6
f 61/3/6 62/3/6 63/3/6
f 63/3/6 62/3/6 64/3/6
f 65/2/6 66/2/6 67/2/6
f 67/2/6 66/2/6 68/2/6
